<svg width="138" height="120" viewBox="0 0 138 120" fill="none" xmlns="http://www.w3.org/2000/svg">
<path d="M69.0904 10.5146C70.1583 10.7842 70.3674 11.2716 71.0041 12.1865C71.5875 13.2232 72.1241 14.2823 72.6601 15.3445C72.9767 15.9645 73.2933 16.5845 73.6101 17.2045C73.7669 17.5126 73.9238 17.8207 74.0854 18.1382C74.7188 19.3784 75.3632 20.6126 76.0091 21.8462C77.2468 24.2156 78.4745 26.5902 79.7008 28.9656C80.6253 30.7557 81.5536 32.5437 82.4862 34.3296C83.7237 36.6991 84.9516 39.0735 86.1779 41.449C87.1024 43.2391 88.0308 45.0271 88.9634 46.8129C90.2008 49.1824 91.4288 51.5569 92.655 53.9323C93.5796 55.7224 94.5079 57.5104 95.4405 59.2962C96.6779 61.6657 97.9059 64.0402 99.1322 66.4156C100.174 68.433 101.222 70.4472 102.273 72.4596C102.943 73.7439 103.611 75.0295 104.275 76.3168C104.427 76.6099 104.578 76.903 104.734 77.205C105.037 77.7938 105.34 78.3828 105.643 78.9721C106.303 80.2546 106.967 81.5316 107.67 82.7907C107.781 82.9919 107.893 83.1932 108.007 83.4005C108.297 83.9221 108.592 84.4409 108.887 84.9595C109.339 86.0435 109.389 86.8129 109.278 87.9781C108.781 88.5726 108.781 88.5726 108.1 88.8698C107.391 88.8522 107.391 88.8522 106.628 88.5726C106.056 87.8025 106.056 87.8025 105.513 86.7742C105.363 86.4962 105.363 86.4962 105.211 86.2126C104.893 85.6151 104.582 85.0138 104.273 84.4115C104.07 84.0212 103.866 83.631 103.663 83.2407C103.144 82.2399 102.633 81.2352 102.125 80.2288C101.579 79.1479 101.03 78.0686 100.481 76.9891C100.374 76.7789 100.268 76.5687 100.158 76.3521C99.3497 74.7607 98.5319 73.1747 97.7038 71.5938C96.6483 69.5786 95.6006 67.5595 94.5572 65.5379C93.482 63.455 92.4037 61.3739 91.3187 59.2962C90.0812 56.9267 88.8533 54.5522 87.627 52.1768C86.7025 50.3867 85.7742 48.5987 84.8416 46.8129C83.6041 44.4434 82.3762 42.0689 81.1499 39.6935C80.2253 37.9034 79.297 36.1154 78.3644 34.3296C77.2794 32.2519 76.2012 30.1707 75.1259 28.0879C73.9995 25.9071 72.8724 23.7267 71.7401 21.549C71.5648 21.2108 71.5648 21.2108 71.3859 20.8658C70.6963 19.5413 69.9802 18.237 69.2376 16.9421C68.3954 17.9824 67.8102 19.1316 67.2123 20.3241C67.1039 20.538 66.9955 20.752 66.8839 20.9724C66.6525 21.4291 66.4217 21.8861 66.1913 22.3434C65.5912 23.5345 64.9874 24.7237 64.3843 25.9133C64.2668 26.1455 64.1492 26.3776 64.028 26.6168C63.1931 28.2647 62.3489 29.9074 61.4908 31.5431C60.3831 33.6558 59.288 35.7747 58.197 37.8962C56.9517 40.3173 55.7006 42.7351 54.4398 45.148C53.4788 46.9881 52.525 48.832 51.5727 50.6768C50.4463 52.8576 49.3192 55.038 48.1869 57.2157C48.07 57.4411 47.9531 57.6666 47.8327 57.8989C47.7219 58.1118 47.6111 58.3246 47.4969 58.5439C47.4022 58.7261 47.3075 58.9082 47.2099 59.0959C46.716 60.0133 46.1983 60.9165 45.6844 61.8226C45.9849 61.8206 46.2854 61.8186 46.595 61.8166C49.4239 61.7985 52.2528 61.7852 55.0818 61.7764C56.5363 61.7717 57.9907 61.7654 59.4452 61.7553C60.8483 61.7457 62.2513 61.7403 63.6544 61.738C64.1903 61.7364 64.7262 61.7331 65.262 61.7283C66.0114 61.7219 66.7606 61.721 67.51 61.7214C67.7325 61.7182 67.9551 61.715 68.1844 61.7117C69.6737 61.7206 69.6737 61.7206 70.4059 62.2097C70.9232 63.0689 70.8129 63.8215 70.7096 64.7948C70.3306 65.299 70.3306 65.299 69.8264 65.6865C68.9611 65.7699 68.1589 65.7991 67.2938 65.7877C67.0352 65.7878 66.7766 65.788 66.5102 65.7881C65.6547 65.7875 64.7993 65.7806 63.9439 65.7736C63.351 65.7719 62.7582 65.7706 62.1654 65.7697C60.6044 65.7663 59.0435 65.7576 57.4826 65.7477C55.8901 65.7386 54.2975 65.7345 52.7049 65.73C49.5796 65.7205 46.4543 65.7052 43.3291 65.6865C43.2858 65.8705 43.2425 66.0544 43.1979 66.244C43.0238 66.9172 42.7749 67.4721 42.4654 68.0933C42.3487 68.3285 42.2321 68.5636 42.1119 68.8059C41.9853 69.0577 41.8587 69.3095 41.7282 69.569C41.5963 69.8332 41.4643 70.0974 41.3284 70.3697C40.2182 72.5847 39.0781 74.7832 37.9261 76.9763C37.3574 78.06 36.796 79.1472 36.2378 80.2364C36.0829 80.5382 35.928 80.84 35.7685 81.151C35.47 81.7331 35.1721 82.3156 34.8751 82.8984C32.4006 87.7164 32.4006 87.7164 31.2581 88.8698C30.3439 88.8225 29.9156 88.6989 29.2524 88.0525C28.832 87.2485 28.8355 86.7984 28.9028 85.8976C29.1383 85.3031 29.1383 85.3031 29.4789 84.7087C29.6097 84.4749 29.7404 84.241 29.8751 84.0001C30.0218 83.7435 30.1685 83.4869 30.3196 83.2226C32.2124 79.8237 33.9752 76.3643 35.7289 72.8909C38.216 67.9652 38.216 67.9652 39.5017 65.6865C39.212 65.6927 38.9223 65.6989 38.6238 65.7054C37.549 65.7269 36.4742 65.7405 35.3992 65.7518C34.934 65.7578 34.4688 65.7659 34.0036 65.7762C33.3349 65.7906 32.6664 65.7973 31.9976 65.8026C31.7896 65.8087 31.5816 65.8149 31.3674 65.8212C30.4217 65.8216 29.9176 65.8073 29.2039 65.1521C28.7469 64.1588 28.9305 63.4555 29.1972 62.417C30.0935 61.8138 30.2579 61.7487 31.2617 61.7551C31.6153 61.7552 31.6153 61.7552 31.976 61.7553C32.229 61.7583 32.4821 61.7614 32.7428 61.7646C33.0029 61.7654 33.2631 61.7662 33.5311 61.7671C34.3621 61.7704 35.193 61.7779 36.0239 61.7854C36.5872 61.7884 37.1506 61.7911 37.7139 61.7936C39.095 61.8001 40.476 61.8104 41.857 61.8226C41.9312 61.5748 42.0054 61.327 42.0818 61.0716C42.4863 59.9246 43.0028 58.8649 43.5591 57.788C43.6679 57.575 43.7767 57.3619 43.8889 57.1423C44.2408 56.454 44.5945 55.7667 44.9484 55.0794C45.1921 54.6037 45.4358 54.128 45.6794 53.6522C47.107 50.8663 48.5436 48.0851 49.9971 45.3128C50.8236 43.7359 51.6394 42.1534 52.4559 40.5712C53.6489 38.2602 54.8471 35.9521 56.051 33.6469C57.0167 31.7965 57.9756 29.9426 58.9331 28.0879C60.1246 25.7799 61.3195 23.4737 62.5243 21.1727C63.2139 19.8538 63.8955 18.531 64.5706 17.2045C64.7285 16.8955 64.8864 16.5865 65.0491 16.2681C65.3563 15.6662 65.6623 15.0637 65.9668 14.4604C67.8213 10.8349 67.8213 10.8349 69.0904 10.5146Z" fill="black"/>
<path d="M11.2378 93.3271C11.9179 93.3271 12.598 93.3271 13.2987 93.3271C14.1062 95.2713 14.9122 97.2161 15.7174 99.1613C15.9906 99.8209 16.2641 100.48 16.538 101.14C18.0794 104.852 19.5976 108.564 20.9535 112.349C20.2734 112.349 19.5933 112.349 18.8926 112.349C18.5969 111.619 18.3027 110.888 18.0093 110.157C17.883 109.846 17.883 109.846 17.754 109.528C17.1261 107.958 17.1261 107.958 17.1261 107.297C12.3168 107.444 12.3168 107.444 7.4104 107.594C6.92462 108.869 6.43883 110.144 5.93833 111.458C5.74401 111.752 5.5497 112.046 5.3495 112.349C4.42945 112.405 4.42945 112.405 3.58301 112.349C4.40211 109.663 5.50414 107.098 6.58236 104.51C6.78181 104.029 6.98117 103.549 7.18046 103.068C7.66137 101.908 8.14336 100.749 8.62594 99.5904C8.85708 99.0354 9.08801 98.4802 9.31892 97.9251C9.95678 96.3917 10.596 94.8589 11.2378 93.3271Z" fill="black"/>
<path d="M104.121 98.3561C105.279 99.124 105.83 100.083 106.334 101.352C106.447 102.214 106.438 103.062 106.421 103.931C106.419 104.173 106.418 104.414 106.417 104.663C106.412 105.43 106.401 106.195 106.39 106.962C106.385 107.483 106.381 108.005 106.378 108.527C106.368 109.801 106.353 111.075 106.334 112.349C105.751 112.349 105.169 112.349 104.568 112.349C104.422 111.613 104.422 111.613 104.274 110.863C104.11 111.047 103.946 111.23 103.777 111.42C102.524 112.582 101.323 112.784 99.6641 112.739C98.0585 112.523 96.9603 111.836 95.8827 110.64C95.3412 109.455 95.1924 108.577 95.4411 107.296C96.1578 105.849 96.9716 105.069 98.3852 104.324C99.4573 104.183 100.508 104.211 101.587 104.249C101.874 104.255 102.161 104.26 102.456 104.266C103.161 104.28 103.864 104.299 104.568 104.324C104.501 103.797 104.425 103.27 104.347 102.745C104.306 102.452 104.265 102.159 104.223 101.857C103.932 100.899 103.65 100.653 102.801 100.163C101.475 99.7164 100.22 99.5951 98.9165 100.131C98.5149 100.343 98.1175 100.563 97.7262 100.794C97.2076 101.054 97.2076 101.054 96.3243 101.054C96.2272 100.564 96.13 100.073 96.0299 99.5682C98.2766 97.8041 101.429 97.3461 104.121 98.3561Z" fill="black"/>
<path d="M25.0752 98.0824C25.561 98.0824 26.0468 98.0824 26.5473 98.0824C26.6444 98.769 26.7416 99.4556 26.8417 100.163C27.0664 99.93 27.291 99.697 27.5225 99.457C28.7304 98.266 29.374 97.9905 31.0371 97.9709C32.7621 98 33.7492 98.1622 35.0853 99.2713C35.5085 100.089 35.5085 100.089 35.6741 100.757C35.8684 100.757 36.0628 100.757 36.263 100.757C36.3449 100.509 36.3449 100.509 36.4286 100.256C37.0736 99.2083 37.7991 98.5577 38.9127 98.0824C40.5909 97.8548 42.1481 97.901 43.7705 98.3982C45.2122 99.5261 45.9929 100.721 46.2731 102.541C46.297 103.307 46.3074 104.065 46.3018 104.831C46.3014 105.047 46.301 105.263 46.3005 105.485C46.2989 106.169 46.2952 106.853 46.2915 107.538C46.29 108.004 46.2886 108.469 46.2874 108.935C46.2842 110.073 46.2791 111.211 46.2731 112.349C45.6901 112.349 45.1072 112.349 44.5066 112.349C44.5023 112.072 44.498 111.795 44.4936 111.509C44.4755 110.472 44.4537 109.436 44.4293 108.4C44.4196 107.953 44.4113 107.506 44.4046 107.058C44.3946 106.413 44.3792 105.767 44.3628 105.122C44.3551 104.734 44.3474 104.347 44.3395 103.947C44.1934 102.675 43.9177 101.887 43.3289 100.757C41.9556 99.8331 40.5197 99.9459 38.9127 100.163C37.8858 100.909 37.3139 101.662 36.8518 102.838C36.7827 103.58 36.7424 104.292 36.7299 105.035C36.7242 105.244 36.7185 105.453 36.7126 105.669C36.6951 106.335 36.6814 107.002 36.6678 107.668C36.6565 108.121 36.645 108.573 36.6333 109.026C36.6051 110.134 36.5803 111.241 36.5574 112.349C35.9744 112.349 35.3915 112.349 34.7909 112.349C34.7866 112.072 34.7823 111.795 34.7779 111.509C34.7598 110.472 34.738 109.436 34.7136 108.4C34.7039 107.953 34.6956 107.506 34.6889 107.058C34.6789 106.413 34.6635 105.767 34.6471 105.122C34.6394 104.734 34.6317 104.347 34.6238 103.947C34.479 102.685 34.1815 101.883 33.6132 100.757C32.3709 99.7975 30.6815 99.9915 29.197 100.163C28.0676 100.709 27.6787 101.32 27.2592 102.466C26.6486 104.39 26.6748 106.352 26.6393 108.355C26.6292 108.74 26.6192 109.125 26.6088 109.521C26.5847 110.464 26.5643 111.406 26.5473 112.349C26.0615 112.349 25.5757 112.349 25.0752 112.349C25.0752 107.641 25.0752 102.933 25.0752 98.0824Z" fill="black"/>
<path d="M78.6592 98.0829C79.145 98.0829 79.6307 98.0829 80.1313 98.0829C80.2284 98.8676 80.3256 99.6522 80.4257 100.461C80.5896 100.234 80.7536 100.007 80.9225 99.7734C81.8599 98.6735 82.5997 98.1518 84.038 97.9436C86.2719 97.9237 87.8653 98.008 89.5525 99.569C91.2523 101.285 91.6701 103.164 91.7422 105.513C91.6855 107.659 91.3473 108.987 89.8952 110.556C88.2797 112.084 86.8421 112.8 84.5739 112.743C82.9952 112.496 81.8281 111.685 80.7201 110.566C80.6229 112.92 80.5258 115.274 80.4257 117.7C79.8427 117.7 79.2598 117.7 78.6592 117.7C78.6592 111.226 78.6592 104.753 78.6592 98.0829ZM81.1985 101.52C80.0594 103.244 80.2649 105.3 80.4257 107.297C80.8738 108.767 81.8204 109.722 83.0754 110.566C84.5196 111.052 85.6596 110.98 87.1052 110.511C88.4205 109.784 88.9999 109.046 89.6261 107.687C90.1118 105.522 90.0711 103.616 88.9637 101.65C87.7709 100.26 87.0016 99.6373 85.1915 99.4576C83.4791 99.5059 82.3608 100.254 81.1985 101.52Z" fill="black"/>
<path d="M60.4053 98.0827C60.9882 98.0827 61.5712 98.0827 62.1718 98.0827C62.2689 98.7693 62.3661 99.4559 62.4662 100.163C62.6848 99.9303 62.9034 99.6974 63.1286 99.4574C64.6746 97.9676 65.9066 97.9471 68.0014 97.9945C69.3994 98.1255 69.9362 98.3282 71.0042 99.2716C72.8785 101.781 72.6496 104.507 72.5683 107.482C72.5609 107.956 72.5542 108.429 72.5482 108.902C72.5321 110.052 72.5068 111.2 72.4763 112.349C71.8933 112.349 71.3104 112.349 70.7098 112.349C70.7055 112.072 70.7012 111.795 70.6968 111.509C70.6787 110.473 70.6569 109.436 70.6325 108.4C70.6228 107.953 70.6145 107.506 70.6078 107.059C70.5978 106.413 70.5824 105.768 70.566 105.122C70.5583 104.734 70.5506 104.347 70.5427 103.948C70.3979 102.686 70.0997 101.884 69.5321 100.758C68.2426 99.7443 66.3649 99.9947 64.8215 100.163C63.4289 100.881 62.9409 101.978 62.4662 103.433C62.3207 104.492 62.3207 104.492 62.3155 105.586C62.3076 105.879 62.3076 105.879 62.2995 106.177C62.2837 106.792 62.2736 107.406 62.2638 108.021C62.254 108.441 62.2438 108.861 62.2333 109.281C62.2084 110.304 62.1887 111.327 62.1718 112.349C61.5888 112.349 61.0059 112.349 60.4053 112.349C60.4053 107.641 60.4053 102.933 60.4053 98.0827Z" fill="black"/>
<path d="M119.858 98.5287C120.156 98.6758 120.454 98.8229 120.76 98.9745C120.65 99.699 120.65 99.699 120.466 100.461C120.271 100.559 120.077 100.657 119.877 100.758C119.531 100.617 119.185 100.476 118.828 100.331C117.167 99.6688 115.67 99.6032 113.97 100.163C113.298 100.864 113.314 101.061 113.308 102.002C113.338 102.376 113.368 102.75 113.4 103.136C114.619 103.71 115.794 104.133 117.098 104.473C118.569 104.866 119.849 105.271 121.018 106.294C121.543 107.414 121.531 108.46 121.349 109.675C120.718 111.082 119.895 111.827 118.522 112.44C116.221 113.114 114.081 112.728 111.916 111.805C111.339 111.458 111.339 111.458 110.75 110.566C110.944 110.174 111.139 109.782 111.339 109.377C112.811 109.972 112.811 109.972 113.487 110.285C114.391 110.604 115.112 110.645 116.068 110.64C116.519 110.643 116.519 110.643 116.98 110.645C117.813 110.566 118.298 110.432 118.994 109.972C119.4 109.151 119.344 108.501 119.288 107.594C118.325 106.622 116.905 106.569 115.6 106.309C113.781 105.914 112.41 105.353 111.339 103.73C111.148 102.438 111.043 101.065 111.627 99.8708C113.547 97.4623 117.158 97.496 119.858 98.5287Z" fill="black"/>
<path d="M129.887 97.9527C130.089 97.9506 130.291 97.9485 130.499 97.9463C131.876 97.9635 132.842 98.2403 134.009 98.9744C134.154 99.2686 134.154 99.2686 134.303 99.5688C134.027 100.2 134.027 100.2 133.714 100.758C132.021 100.2 132.021 100.2 131.359 99.866C129.894 99.7411 128.555 99.735 127.237 100.46C126.571 101.019 126.571 101.019 126.501 101.909C126.553 102.901 126.553 102.901 127.403 103.455C128.484 104.066 129.416 104.334 130.623 104.603C132.284 105.004 133.442 105.399 134.597 106.702C135.05 107.615 134.959 108.367 134.892 109.377C134.354 110.915 133.647 111.568 132.242 112.349C129.924 113.082 127.677 112.733 125.469 111.834C124.783 111.394 124.584 111.024 124.293 110.269C124.487 109.975 124.682 109.68 124.882 109.377C126.354 109.972 126.354 109.972 127.04 110.284C128.644 110.86 130.44 110.856 131.985 110.139C132.505 109.715 132.505 109.715 132.831 109.377C132.746 108.682 132.649 107.988 132.537 107.297C132.358 107.243 132.18 107.189 131.996 107.133C131.476 106.975 130.957 106.817 130.438 106.658C129.892 106.495 129.343 106.338 128.793 106.189C127.358 105.792 126.226 105.451 125.176 104.324C124.576 103.227 124.437 102.297 124.587 101.055C125.776 98.7476 127.355 97.8782 129.887 97.9527Z" fill="black"/>
<path d="M79.2483 53.7969C79.977 54.0911 79.977 54.0911 80.7203 54.3913C80.7272 57.2151 80.7324 60.039 80.7356 62.8628C80.7371 64.1739 80.7392 65.485 80.7426 66.7961C80.7457 68.0603 80.7475 69.3245 80.7483 70.5887C80.7488 71.0721 80.7499 71.5555 80.7515 72.0389C80.7536 72.7136 80.7539 73.3883 80.7538 74.0631C80.7544 74.4478 80.7551 74.8326 80.7558 75.2291C80.7203 76.0885 80.7203 76.0885 80.4259 76.3858C79.8372 76.3979 79.2481 76.3984 78.6594 76.3858C78.2319 75.5224 78.3228 74.7652 78.3176 73.8008C78.3161 73.5963 78.3147 73.3918 78.3132 73.1812C78.3089 72.5036 78.3069 71.826 78.3052 71.1484C78.3035 70.6782 78.3018 70.2081 78.3001 69.7379C78.297 68.7518 78.2953 67.7656 78.2943 66.7794C78.2927 65.5147 78.2856 64.25 78.2772 62.9854C78.2718 62.0141 78.2702 61.043 78.2698 60.0717C78.2689 59.6054 78.2665 59.1391 78.2626 58.6728C78.2576 58.021 78.2582 57.3694 78.2601 56.7175C78.259 56.3464 78.2579 55.9753 78.2568 55.5929C78.365 54.6885 78.365 54.6885 78.8132 54.1159C78.9568 54.0106 79.1004 53.9053 79.2483 53.7969Z" fill="black"/>
<path d="M12.1213 95.7051C13.0398 96.1687 13.1897 97.0843 13.5382 98.0085C13.6149 98.2077 13.6917 98.4069 13.7707 98.6121C13.9295 99.0249 14.0873 99.438 14.2443 99.8514C14.4625 100.423 14.6856 100.994 14.9091 101.564C15.4677 102.996 15.9428 104.294 16.2431 105.811C13.6199 105.811 10.9967 105.811 8.29395 105.811C8.52805 104.393 8.78651 103.407 9.3152 102.108C9.53095 101.576 9.53095 101.576 9.75107 101.032C9.82598 100.85 9.90088 100.668 9.97806 100.48C10.2088 99.9191 10.4367 99.3567 10.6642 98.794C11.7838 96.0458 11.7838 96.0458 12.1213 95.7051Z" fill="white"/>
<path d="M100.514 105.782C100.868 105.784 100.868 105.784 101.23 105.785C101.598 105.789 101.598 105.789 101.973 105.793C102.346 105.795 102.346 105.795 102.727 105.797C103.341 105.801 103.954 105.806 104.568 105.812C104.582 106.236 104.592 106.661 104.6 107.085C104.606 107.322 104.612 107.558 104.618 107.802C104.539 108.874 104.079 109.477 103.39 110.27C102.419 110.901 101.589 110.961 100.446 110.976C100.142 110.984 99.8388 110.993 99.526 111.001C98.4806 110.832 98.155 110.497 97.5019 109.675C97.0837 108.831 97.1149 108.232 97.2075 107.298C98.1541 106.078 99.0156 105.772 100.514 105.782Z" fill="white"/>
<path d="M52.4561 98.083C53.039 98.083 53.6219 98.083 54.2225 98.083C54.2225 102.791 54.2225 107.499 54.2225 112.35C53.6396 112.35 53.0567 112.35 52.4561 112.35C52.4561 107.642 52.4561 102.934 52.4561 98.083Z" fill="black"/>
<path d="M52.7503 92.1387C54.0916 92.3038 54.0916 92.3038 54.5168 92.7331C54.572 93.4576 54.572 93.4576 54.5168 94.2192C54.3225 94.4154 54.1282 94.6116 53.928 94.8137C52.5868 94.6485 52.5868 94.6485 52.1615 94.2192C52.1063 93.4947 52.1063 93.4947 52.1615 92.7331C52.3558 92.5369 52.5501 92.3408 52.7503 92.1387Z" fill="black"/>
</svg>
