<svg width="24" height="24" viewBox="0 0 24 24" fill="none" xmlns="http://www.w3.org/2000/svg">
<path fill-rule="evenodd" clip-rule="evenodd" d="M11.2934 3.29279C11.4809 3.10532 11.7352 3 12.0004 3C12.2656 3 12.5199 3.10532 12.7074 3.29279L18.7074 9.29279L20.7074 11.2928C20.8896 11.4814 20.9904 11.734 20.9881 11.9962C20.9858 12.2584 20.8806 12.5092 20.6952 12.6946C20.5098 12.88 20.259 12.9852 19.9968 12.9875C19.7346 12.9897 19.482 12.8889 19.2934 12.7068L19.0004 12.4138V18.9998C19.0004 19.5302 18.7897 20.0389 18.4146 20.414C18.0395 20.7891 17.5308 20.9998 17.0004 20.9998H14.0004C13.7352 20.9998 13.4808 20.8944 13.2933 20.7069C13.1058 20.5194 13.0004 20.265 13.0004 19.9998V16.9998H11.0004V19.9998C11.0004 20.265 10.8951 20.5194 10.7075 20.7069C10.52 20.8944 10.2656 20.9998 10.0004 20.9998H7.00041C6.46997 20.9998 5.96127 20.7891 5.58619 20.414C5.21112 20.0389 5.00041 19.5302 5.00041 18.9998V12.4138L4.70741 12.7068C4.5188 12.8889 4.2662 12.9897 4.00401 12.9875C3.74181 12.9852 3.491 12.88 3.30559 12.6946C3.12018 12.5092 3.01501 12.2584 3.01273 11.9962C3.01045 11.734 3.11125 11.4814 3.29341 11.2928L5.29341 9.29279L11.2934 3.29279Z" fill="black"/>
</svg>
