<svg width="24" height="24" viewBox="0 0 24 24" fill="none" xmlns="http://www.w3.org/2000/svg">
<path d="M14.052 1.83269C13.8984 1.70716 13.7214 1.61334 13.5313 1.55667C13.3412 1.49999 13.1418 1.48158 12.9445 1.50251C12.7473 1.52344 12.5561 1.58328 12.3822 1.67858C12.2082 1.77387 12.0548 1.90273 11.931 2.05769L7.587 7.49969H9.507L13.1025 2.99369L14.2575 3.93719L11.3625 7.49969H13.2945L15.42 4.88369L17.997 6.98819L17.55 7.49969H18C18.4473 7.49922 18.8922 7.56544 19.32 7.69619C19.4834 7.38963 19.5354 7.03587 19.467 6.69528C19.3986 6.35469 19.2141 6.04839 18.945 5.82869L14.052 1.83269ZM4.5 8.24969C4.5 8.05078 4.57902 7.86001 4.71967 7.71936C4.86032 7.57871 5.05109 7.49969 5.25 7.49969H6.087L7.2795 5.99969H5.25C4.65326 5.99969 4.08097 6.23674 3.65901 6.6587C3.23705 7.08065 3 7.65295 3 8.24969V17.2497C3 18.2442 3.39509 19.1981 4.09835 19.9013C4.80161 20.6046 5.75544 20.9997 6.75 20.9997H18C18.7956 20.9997 19.5587 20.6836 20.1213 20.121C20.6839 19.5584 21 18.7953 21 17.9997V11.9997C21 11.204 20.6839 10.441 20.1213 9.87837C19.5587 9.31576 18.7956 8.99969 18 8.99969H5.25C5.05109 8.99969 4.86032 8.92067 4.71967 8.78002C4.57902 8.63937 4.5 8.4486 4.5 8.24969ZM15.75 14.9997H17.25C17.4489 14.9997 17.6397 15.0787 17.7803 15.2194C17.921 15.36 18 15.5508 18 15.7497C18 15.9486 17.921 16.1394 17.7803 16.28C17.6397 16.4207 17.4489 16.4997 17.25 16.4997H15.75C15.5511 16.4997 15.3603 16.4207 15.2197 16.28C15.079 16.1394 15 15.9486 15 15.7497C15 15.5508 15.079 15.36 15.2197 15.2194C15.3603 15.0787 15.5511 14.9997 15.75 14.9997Z" fill="white"/>
</svg>
