<svg width="138" height="120" viewBox="0 0 138 120" fill="none" xmlns="http://www.w3.org/2000/svg">
<path d="M69.0884 10.5156C70.1563 10.7851 70.3654 11.2726 71.0021 12.1875C71.5855 13.2241 72.1221 14.2833 72.6582 15.3455C72.9747 15.9655 73.2914 16.5855 73.6081 17.2054C73.765 17.5136 73.9218 17.8217 74.0834 18.1392C74.7168 19.3794 75.3613 20.6136 76.0072 21.8472C77.2449 24.2166 78.4726 26.5912 79.6988 28.9666C80.6234 30.7567 81.5517 32.5447 82.4843 34.3305C83.7217 36.7001 84.9497 39.0745 86.176 41.4499C87.1005 43.24 88.0288 45.028 88.9614 46.8139C90.1989 49.1834 91.4268 51.5578 92.6531 53.9333C93.5776 55.7234 94.5059 57.5114 95.4385 59.2972C96.676 61.6667 97.9039 64.0412 99.1302 66.4166C100.172 68.4339 101.22 70.4482 102.271 72.4606C102.941 73.7448 103.609 75.0305 104.273 76.3178C104.425 76.6109 104.576 76.904 104.732 77.206C105.035 77.7947 105.338 78.3838 105.641 78.9731C106.301 80.2556 106.965 81.5326 107.668 82.7917C107.779 82.9929 107.891 83.1942 108.005 83.4015C108.295 83.9231 108.59 84.4419 108.885 84.9605C109.337 86.0445 109.387 86.8139 109.276 87.9791C108.779 88.5736 108.779 88.5736 108.098 88.8708C107.39 88.8532 107.39 88.8532 106.626 88.5736C106.054 87.8034 106.054 87.8034 105.511 86.7751C105.362 86.4971 105.362 86.4971 105.209 86.2135C104.891 85.616 104.58 85.0148 104.271 84.4125C104.068 84.0222 103.864 83.6319 103.661 83.2417C103.142 82.2409 102.631 81.2361 102.123 80.2298C101.577 79.1488 101.028 78.0696 100.479 76.99C100.373 76.7798 100.266 76.5696 100.156 76.3531C99.3477 74.7617 98.53 73.1757 97.7019 71.5948C96.6464 69.5796 95.5986 67.5605 94.5553 65.5389C93.4801 63.456 92.4018 61.3749 91.3167 59.2972C90.0793 56.9277 88.8513 54.5532 87.625 52.1778C86.7005 50.3877 85.7722 48.5997 84.8396 46.8139C83.6022 44.4443 82.3742 42.0699 81.1479 39.6945C80.2234 37.9044 79.2951 36.1164 78.3625 34.3305C77.2775 32.2529 76.1992 30.1717 75.1239 28.0889C73.9975 25.9081 72.8704 23.7277 71.7381 21.55C71.5628 21.2118 71.5628 21.2118 71.3839 20.8667C70.6943 19.5423 69.9782 18.238 69.2356 16.9431C68.3935 17.9833 67.8082 19.1326 67.2104 20.3251C67.102 20.539 66.9936 20.7529 66.8819 20.9733C66.6506 21.4301 66.4197 21.8871 66.1894 22.3444C65.5892 23.5355 64.9855 24.7247 64.3824 25.9143C64.2648 26.1465 64.1472 26.3786 64.0261 26.6178C63.1911 28.2657 62.347 29.9083 61.4888 31.5441C60.3812 33.6567 59.286 35.7757 58.1951 37.8972C56.9497 40.3183 55.6986 42.736 54.4378 45.149C53.4768 46.9891 52.5231 48.833 51.5707 50.6778C50.4444 52.8586 49.3172 55.039 48.185 57.2166C48.0681 57.4421 47.9512 57.6676 47.8308 57.8999C47.7199 58.1127 47.6091 58.3256 47.4949 58.5448C47.4002 58.727 47.3056 58.9092 47.208 59.0969C46.714 60.0143 46.1964 60.9174 45.6824 61.8236C45.9829 61.8216 46.2834 61.8196 46.593 61.8176C49.422 61.7995 52.2509 61.7861 55.0799 61.7774C56.5343 61.7727 57.9888 61.7664 59.4432 61.7563C60.8463 61.7466 62.2494 61.7413 63.6525 61.739C64.1883 61.7373 64.7242 61.7341 65.2601 61.7293C66.0094 61.7229 66.7586 61.7219 67.508 61.7224C67.7306 61.7191 67.9532 61.7159 68.1825 61.7126C69.6718 61.7216 69.6718 61.7216 70.4039 62.2107C70.9212 63.0699 70.811 63.8225 70.7077 64.7958C70.3287 65.2999 70.3287 65.2999 69.8245 65.6875C68.9591 65.7709 68.1569 65.8 67.2918 65.7887C67.0332 65.7888 66.7747 65.789 66.5083 65.7891C65.6527 65.7885 64.7974 65.7815 63.9419 65.7745C63.3491 65.7729 62.7563 65.7716 62.1635 65.7707C60.6025 65.7673 59.0416 65.7586 57.4807 65.7487C55.8881 65.7396 54.2955 65.7355 52.703 65.731C49.5777 65.7214 46.4524 65.7062 43.3271 65.6875C43.2838 65.8714 43.2406 66.0554 43.196 66.245C43.0219 66.9182 42.7729 67.4731 42.4634 68.0943C42.3468 68.3294 42.2301 68.5646 42.1099 68.8069C41.9833 69.0587 41.8567 69.3105 41.7262 69.5699C41.5943 69.8342 41.4624 70.0984 41.3265 70.3707C40.2163 72.5857 39.0761 74.7842 37.9242 76.9773C37.3555 78.0609 36.794 79.1482 36.2359 80.2374C36.081 80.5392 35.9261 80.841 35.7665 81.1519C35.468 81.7341 35.1702 82.3165 34.8732 82.8994C32.3987 87.7173 32.3987 87.7173 31.2561 88.8708C30.342 88.8235 29.9136 88.6999 29.2504 88.0534C28.8301 87.2494 28.8336 86.7994 28.9008 85.8986C29.1363 85.3041 29.1363 85.3041 29.477 84.7097C29.6077 84.4758 29.7384 84.242 29.8731 84.0011C30.0198 83.7445 30.1665 83.4879 30.3177 83.2236C32.2104 79.8247 33.9733 76.3653 35.7269 72.8918C38.214 67.9661 38.214 67.9661 39.4997 65.6875C39.21 65.6937 38.9203 65.6999 38.6219 65.7063C37.547 65.7279 36.4722 65.7415 35.3973 65.7528C34.932 65.7588 34.4668 65.7669 34.0017 65.7772C33.3329 65.7916 32.6645 65.7983 31.9956 65.8036C31.7876 65.8097 31.5797 65.8158 31.3654 65.8222C30.4198 65.8226 29.9156 65.8083 29.2019 65.1531C28.7449 64.1598 28.9285 63.4565 29.1952 62.418C30.0916 61.8148 30.2559 61.7497 31.2598 61.7561C31.6133 61.7562 31.6133 61.7562 31.9741 61.7562C32.2271 61.7593 32.4801 61.7624 32.7408 61.7655C33.001 61.7664 33.2611 61.7672 33.5292 61.7681C34.3601 61.7714 35.191 61.7789 36.022 61.7864C36.5853 61.7894 37.1486 61.7921 37.712 61.7946C39.093 61.8011 40.474 61.8114 41.8551 61.8236C41.9292 61.5758 42.0034 61.3279 42.0799 61.0726C42.4843 59.9255 43.0008 58.8659 43.5571 57.789C43.666 57.5759 43.7748 57.3628 43.8869 57.1433C44.2388 56.455 44.5926 55.7677 44.9464 55.0804C45.1902 54.6047 45.4338 54.1289 45.6774 53.6532C47.1051 50.8672 48.5416 48.0861 49.9952 45.3138C50.8217 43.7369 51.6375 42.1544 52.454 40.5722C53.647 38.2612 54.8452 35.9531 56.0491 33.6479C57.0147 31.7975 57.9736 29.9436 58.9311 28.0889C60.1226 25.7808 61.3176 23.4747 62.5223 21.1737C63.2119 19.8547 63.8935 18.532 64.5687 17.2054C64.7266 16.8964 64.8844 16.5874 65.0471 16.2691C65.3544 15.6672 65.6604 15.0647 65.9649 14.4614C67.8194 10.8359 67.8194 10.8359 69.0884 10.5156Z" fill="white"/>
<path d="M11.2407 93.3281C11.9208 93.3281 12.6009 93.3281 13.3016 93.3281C14.1091 95.2723 14.9152 97.2171 15.7203 99.1623C15.9936 99.8219 16.2671 100.481 16.5409 101.141C18.0823 104.853 19.6005 108.565 20.9564 112.35C20.2763 112.35 19.5962 112.35 18.8955 112.35C18.5999 111.62 18.3056 110.889 18.0123 110.158C17.8859 109.847 17.8859 109.847 17.7569 109.529C17.129 107.959 17.129 107.959 17.129 107.298C12.3198 107.445 12.3198 107.445 7.41333 107.595C6.92755 108.87 6.44176 110.145 5.94126 111.459C5.74694 111.753 5.55263 112.047 5.35243 112.35C4.43238 112.406 4.43238 112.406 3.58594 112.35C4.40504 109.664 5.50707 107.099 6.58529 104.511C6.78473 104.03 6.9841 103.55 7.18339 103.069C7.6643 101.909 8.14629 100.75 8.62887 99.5914C8.86 99.0363 9.09094 98.4812 9.32185 97.9261C9.95971 96.3927 10.599 94.8599 11.2407 93.3281Z" fill="white"/>
<path d="M104.117 98.3561C105.275 99.124 105.826 100.083 106.331 101.352C106.443 102.214 106.434 103.062 106.417 103.931C106.416 104.173 106.414 104.414 106.413 104.663C106.408 105.43 106.397 106.195 106.386 106.962C106.381 107.483 106.377 108.005 106.374 108.527C106.364 109.801 106.349 111.075 106.331 112.349C105.748 112.349 105.165 112.349 104.564 112.349C104.418 111.613 104.418 111.613 104.27 110.863C104.106 111.047 103.942 111.23 103.773 111.42C102.52 112.582 101.319 112.784 99.6602 112.739C98.0546 112.523 96.9564 111.836 95.8788 110.64C95.3373 109.455 95.1885 108.577 95.4372 107.296C96.1538 105.849 96.9677 105.069 98.3813 104.324C99.4534 104.183 100.504 104.211 101.583 104.249C101.87 104.255 102.157 104.26 102.453 104.266C103.157 104.28 103.86 104.299 104.564 104.324C104.497 103.797 104.422 103.27 104.343 102.745C104.302 102.452 104.261 102.159 104.219 101.857C103.928 100.899 103.646 100.653 102.798 100.163C101.471 99.7164 100.216 99.5951 98.9126 100.131C98.5109 100.343 98.1136 100.563 97.7223 100.794C97.2036 101.054 97.2036 101.054 96.3204 101.054C96.2232 100.564 96.1261 100.073 96.026 99.5682C98.2727 97.8041 101.425 97.3461 104.117 98.3561Z" fill="white"/>
<path d="M25.0781 98.0843C25.5639 98.0843 26.0497 98.0843 26.5502 98.0843C26.6474 98.7709 26.7445 99.4575 26.8446 100.165C27.0693 99.9319 27.294 99.699 27.5254 99.459C28.7334 98.2679 29.3769 97.9924 31.04 97.9729C32.765 98.002 33.7521 98.1642 35.0882 99.2732C35.5114 100.091 35.5114 100.091 35.6771 100.759C35.8714 100.759 36.0657 100.759 36.2659 100.759C36.3479 100.511 36.3479 100.511 36.4315 100.258C37.0765 99.2102 37.8021 98.5597 38.9156 98.0843C40.5939 97.8568 42.151 97.9029 43.7735 98.4001C45.2151 99.5281 45.9958 100.723 46.276 102.543C46.3 103.309 46.3104 104.067 46.3047 104.833C46.3043 105.049 46.3039 105.265 46.3035 105.487C46.3018 106.171 46.2981 106.855 46.2944 107.54C46.2929 108.005 46.2916 108.471 46.2904 108.937C46.2871 110.075 46.2821 111.213 46.276 112.351C45.693 112.351 45.1101 112.351 44.5095 112.351C44.5052 112.074 44.5009 111.797 44.4965 111.511C44.4784 110.474 44.4566 109.438 44.4322 108.402C44.4225 107.955 44.4142 107.508 44.4075 107.06C44.3975 106.415 44.3821 105.769 44.3657 105.124C44.358 104.736 44.3503 104.348 44.3424 103.949C44.1964 102.677 43.9206 101.888 43.3318 100.759C41.9585 99.835 40.5227 99.9478 38.9156 100.165C37.8887 100.911 37.3169 101.664 36.8547 102.84C36.7856 103.582 36.7453 104.294 36.7328 105.037C36.7271 105.246 36.7214 105.455 36.7155 105.671C36.698 106.337 36.6843 107.004 36.6707 107.67C36.6595 108.123 36.648 108.575 36.6362 109.028C36.608 110.136 36.5832 111.243 36.5603 112.351C35.9774 112.351 35.3944 112.351 34.7938 112.351C34.7895 112.074 34.7852 111.797 34.7808 111.511C34.7627 110.474 34.7409 109.438 34.7165 108.402C34.7068 107.955 34.6985 107.508 34.6918 107.06C34.6819 106.415 34.6664 105.769 34.6501 105.124C34.6423 104.736 34.6346 104.348 34.6267 103.949C34.4819 102.687 34.1844 101.885 33.6162 100.759C32.3738 99.7995 30.6845 99.9934 29.1999 100.165C28.0705 100.711 27.6816 101.322 27.2621 102.468C26.6515 104.392 26.6777 106.353 26.6422 108.357C26.6321 108.742 26.6221 109.127 26.6117 109.523C26.5876 110.466 26.5672 111.408 26.5502 112.351C26.0644 112.351 25.5786 112.351 25.0781 112.351C25.0781 107.643 25.0781 102.935 25.0781 98.0843Z" fill="white"/>
<path d="M78.6562 98.079C79.142 98.079 79.6278 98.079 80.1283 98.079C80.2255 98.8637 80.3226 99.6483 80.4227 100.457C80.5867 100.23 80.7506 100.003 80.9196 99.7695C81.857 98.6696 82.5968 98.1479 84.0351 97.9397C86.269 97.9198 87.8624 98.0041 89.5496 99.5651C91.2494 101.281 91.6671 103.161 91.7393 105.51C91.6826 107.655 91.3443 108.983 89.8923 110.552C88.2768 112.08 86.8392 112.796 84.571 112.739C82.9922 112.492 81.8252 111.681 80.7172 110.562C80.62 112.916 80.5228 115.27 80.4227 117.696C79.8398 117.696 79.2569 117.696 78.6562 117.696C78.6562 111.222 78.6562 104.749 78.6562 98.079ZM81.1956 101.516C80.0565 103.241 80.262 105.296 80.4227 107.293C80.8709 108.763 81.8175 109.718 83.0725 110.562C84.5167 111.048 85.6566 110.977 87.1023 110.507C88.4176 109.78 88.9969 109.042 89.6232 107.683C90.1088 105.518 90.0682 103.612 88.9608 101.646C87.7679 100.256 86.9987 99.6334 85.1886 99.4537C83.4762 99.5019 82.3579 100.25 81.1956 101.516Z" fill="white"/>
<path d="M60.4062 98.0847C60.9892 98.0847 61.5721 98.0847 62.1727 98.0847C62.2699 98.7713 62.3671 99.4578 62.4672 100.165C62.6858 99.9323 62.9044 99.6993 63.1296 99.4593C64.6756 97.9695 65.9076 97.9491 68.0024 97.9964C69.4004 98.1274 69.9372 98.3301 71.0052 99.2736C72.8795 101.783 72.6506 104.509 72.5693 107.484C72.5619 107.958 72.5551 108.431 72.5491 108.904C72.5331 110.054 72.5077 111.202 72.4773 112.351C71.8943 112.351 71.3114 112.351 70.7108 112.351C70.7065 112.074 70.7022 111.797 70.6978 111.511C70.6797 110.475 70.6578 109.438 70.6335 108.402C70.6238 107.955 70.6155 107.508 70.6088 107.061C70.5988 106.415 70.5834 105.77 70.567 105.124C70.5593 104.736 70.5516 104.349 70.5436 103.95C70.3989 102.688 70.1007 101.886 69.5331 100.76C68.2436 99.7462 66.3659 99.9966 64.8225 100.165C63.4299 100.883 62.9418 101.98 62.4672 103.435C62.3217 104.494 62.3217 104.494 62.3165 105.588C62.3086 105.881 62.3086 105.881 62.3005 106.179C62.2847 106.794 62.2746 107.408 62.2647 108.023C62.255 108.443 62.2448 108.863 62.2343 109.283C62.2094 110.306 62.1897 111.329 62.1727 112.351C61.5898 112.351 61.0069 112.351 60.4062 112.351C60.4062 107.643 60.4062 102.935 60.4062 98.0847Z" fill="white"/>
<path d="M119.858 98.5267C120.156 98.6738 120.454 98.821 120.76 98.9726C120.65 99.697 120.65 99.697 120.466 100.459C120.271 100.557 120.077 100.655 119.877 100.756C119.531 100.615 119.185 100.474 118.828 100.329C117.167 99.6669 115.67 99.6012 113.97 100.161C113.298 100.862 113.314 101.059 113.308 102.001C113.338 102.374 113.368 102.748 113.4 103.134C114.619 103.708 115.794 104.131 117.098 104.471C118.569 104.864 119.849 105.269 121.018 106.292C121.543 107.412 121.531 108.458 121.349 109.673C120.718 111.08 119.895 111.825 118.522 112.438C116.221 113.112 114.081 112.726 111.916 111.803C111.339 111.456 111.339 111.456 110.75 110.564C110.944 110.172 111.139 109.78 111.339 109.375C112.811 109.97 112.811 109.97 113.487 110.283C114.391 110.602 115.112 110.643 116.068 110.639C116.519 110.641 116.519 110.641 116.98 110.643C117.813 110.564 118.298 110.43 118.994 109.97C119.4 109.149 119.344 108.499 119.288 107.592C118.325 106.62 116.905 106.567 115.6 106.307C113.781 105.912 112.41 105.351 111.339 103.728C111.148 102.436 111.043 101.063 111.627 99.8689C113.547 97.4603 117.158 97.494 119.858 98.5267Z" fill="white"/>
<path d="M129.891 97.9517C130.093 97.9496 130.295 97.9475 130.503 97.9453C131.88 97.9626 132.846 98.2393 134.013 98.9734C134.158 99.2676 134.158 99.2676 134.307 99.5678C134.031 100.199 134.031 100.199 133.718 100.757C132.025 100.199 132.025 100.199 131.363 99.8651C129.898 99.7401 128.558 99.734 127.241 100.46C126.575 101.018 126.575 101.018 126.505 101.908C126.557 102.9 126.557 102.9 127.407 103.454C128.488 104.065 129.42 104.333 130.627 104.602C132.287 105.003 133.446 105.398 134.601 106.701C135.054 107.614 134.962 108.366 134.896 109.376C134.358 110.914 133.65 111.567 132.246 112.348C129.928 113.081 127.681 112.732 125.473 111.833C124.787 111.393 124.588 111.023 124.297 110.268C124.491 109.974 124.686 109.679 124.886 109.376C126.358 109.971 126.358 109.971 127.044 110.283C128.648 110.859 130.444 110.855 131.988 110.138C132.509 109.714 132.509 109.714 132.835 109.376C132.75 108.681 132.653 107.987 132.54 107.296C132.362 107.242 132.184 107.188 132 107.132C131.48 106.975 130.961 106.816 130.442 106.657C129.895 106.494 129.347 106.337 128.797 106.188C127.361 105.791 126.23 105.45 125.18 104.323C124.58 103.226 124.441 102.296 124.591 101.054C125.78 98.7466 127.359 97.8772 129.891 97.9517Z" fill="white"/>
<path d="M79.2493 53.7969C79.9779 54.0911 79.9779 54.0911 80.7213 54.3913C80.7281 57.2151 80.7334 60.039 80.7366 62.8628C80.7381 64.1739 80.7402 65.485 80.7435 66.7961C80.7467 68.0603 80.7485 69.3245 80.7493 70.5887C80.7498 71.0721 80.7509 71.5555 80.7525 72.0389C80.7546 72.7136 80.7549 73.3883 80.7547 74.0631C80.7554 74.4478 80.7561 74.8326 80.7567 75.2291C80.7213 76.0885 80.7213 76.0885 80.4269 76.3858C79.8382 76.3979 79.2491 76.3984 78.6604 76.3858C78.2328 75.5224 78.3238 74.7652 78.3186 73.8008C78.3171 73.5963 78.3156 73.3918 78.3141 73.1812C78.3098 72.5036 78.3078 71.826 78.3062 71.1484C78.3045 70.6782 78.3028 70.2081 78.3011 69.7379C78.298 68.7518 78.2963 67.7656 78.2953 66.7794C78.2937 65.5147 78.2866 64.25 78.2782 62.9854C78.2727 62.0141 78.2712 61.043 78.2707 60.0717C78.2699 59.6054 78.2675 59.1391 78.2636 58.6728C78.2586 58.021 78.2592 57.3694 78.2611 56.7175C78.26 56.3464 78.2589 55.9753 78.2578 55.5929C78.366 54.6885 78.366 54.6885 78.8142 54.1159C78.9578 54.0106 79.1013 53.9053 79.2493 53.7969Z" fill="white"/>
<path d="M12.1243 95.7031C13.0428 96.1667 13.1927 97.0823 13.5411 98.0066C13.6179 98.2058 13.6946 98.405 13.7737 98.6102C13.9324 99.0229 14.0903 99.436 14.2473 99.8494C14.4654 100.422 14.6885 100.992 14.912 101.562C15.4706 102.994 15.9457 104.292 16.2461 105.809C13.6228 105.809 10.9996 105.809 8.29688 105.809C8.53098 104.391 8.78944 103.405 9.31813 102.106C9.53388 101.574 9.53388 101.574 9.754 101.03C9.82891 100.848 9.90381 100.666 9.98099 100.478C10.2117 99.9172 10.4396 99.3547 10.6671 98.792C11.7868 96.0439 11.7868 96.0439 12.1243 95.7031Z" fill="black"/>
<path d="M100.513 105.782C100.867 105.783 100.867 105.783 101.229 105.784C101.597 105.788 101.597 105.788 101.972 105.792C102.345 105.794 102.345 105.794 102.726 105.796C103.34 105.8 103.953 105.805 104.567 105.811C104.581 106.235 104.591 106.66 104.599 107.084C104.605 107.321 104.611 107.557 104.617 107.801C104.538 108.873 104.078 109.476 103.389 110.269C102.418 110.9 101.588 110.96 100.445 110.975C100.141 110.983 99.8378 110.992 99.525 111C98.4796 110.831 98.154 110.496 97.5009 109.674C97.0827 108.83 97.1139 108.231 97.2065 107.297C98.1531 106.077 99.0146 105.771 100.513 105.782Z" fill="black"/>
<path d="M52.4531 98.0859C53.0361 98.0859 53.619 98.0859 54.2196 98.0859C54.2196 102.794 54.2196 107.502 54.2196 112.353C53.6367 112.353 53.0537 112.353 52.4531 112.353C52.4531 107.645 52.4531 102.937 52.4531 98.0859Z" fill="white"/>
<path d="M52.7474 92.1406C54.0886 92.3057 54.0886 92.3057 54.5139 92.7351C54.5691 93.4595 54.5691 93.4595 54.5139 94.2212C54.3196 94.4173 54.1253 94.6135 53.9251 94.8156C52.5839 94.6505 52.5839 94.6505 52.1586 94.2212C52.1034 93.4967 52.1034 93.4967 52.1586 92.7351C52.3529 92.5389 52.5472 92.3427 52.7474 92.1406Z" fill="white"/>
</svg>
