<?xml version="1.0" encoding="UTF-8"?>
<svg version="1.1" xmlns="http://www.w3.org/2000/svg" width="408" height="274">
<path d="M0 0 C134.64 0 269.28 0 408 0 C408 90.42 408 180.84 408 274 C273.36 274 138.72 274 0 274 C0 183.58 0 93.16 0 0 Z " fill="#CAFEC8" transform="translate(0,0)"/>
<path d="M0 0 C0.74880432 -0.00511093 1.49760864 -0.01022186 2.269104 -0.01548767 C4.73042929 -0.0293226 7.19147261 -0.0284314 9.65283203 -0.02612305 C11.3738719 -0.03001359 13.09491081 -0.034349 14.81594849 -0.03910828 C18.41867183 -0.04655757 22.02129716 -0.04628878 25.62402344 -0.04101562 C30.2260572 -0.0352255 34.8276879 -0.05214713 39.42965508 -0.0753603 C42.98314738 -0.0901395 46.53654359 -0.09096361 50.09006119 -0.08785057 C51.78602013 -0.08836177 53.48198473 -0.0935615 55.17791367 -0.10366249 C57.55637037 -0.11609002 59.93405435 -0.10919793 62.3125 -0.09765625 C63.34925369 -0.10912186 63.34925369 -0.10912186 64.4069519 -0.12081909 C70.40536669 -0.05693689 75.95044247 1.25188455 80.56298828 5.24731445 C81.11083984 5.93696289 81.65869141 6.62661133 82.22314453 7.3371582 C82.78904297 8.02938477 83.35494141 8.72161133 83.93798828 9.43481445 C85.28564453 11.2746582 85.28564453 11.2746582 86.28564453 13.2746582 C87.56271271 13.28052444 88.83978088 13.28639069 90.1555481 13.29243469 C102.19160998 13.34965139 114.22749101 13.42240777 126.26336861 13.51037312 C132.45111921 13.55509758 138.63880365 13.59434936 144.82666016 13.62109375 C150.79845545 13.64710567 156.76999642 13.68749367 162.74163437 13.73784447 C165.01975211 13.75452737 167.29791385 13.76603276 169.57608414 13.77227211 C172.76746522 13.78189744 175.95819357 13.80993906 179.14941406 13.84228516 C180.09096848 13.84085007 181.03252289 13.83941498 182.00260925 13.8379364 C187.11093447 13.91114306 191.00508257 14.17738988 195.28564453 17.2746582 C199.07732348 22.43498664 198.71115651 27.83239491 198.67382812 33.97412109 C198.68171356 35.57272728 198.68171356 35.57272728 198.6897583 37.20362854 C198.70293752 40.71834059 198.69422787 44.23259798 198.68408203 47.74731445 C198.6861032 50.19298896 198.689015 52.63866288 198.69277954 55.08433533 C198.69719997 60.20618435 198.69078013 65.32787628 198.67675781 70.44970703 C198.65965729 77.01600412 198.66951472 83.58193357 198.6874752 90.1482172 C198.69831277 95.19680047 198.69486693 100.24529648 198.68709183 105.29388237 C198.68509023 107.71520468 198.68754767 110.13653491 198.69453049 112.55784798 C198.70214526 115.94030898 198.69054003 119.3221733 198.67382812 122.70458984 C198.67990082 123.70576843 198.68597351 124.70694702 198.69223022 125.73846436 C198.61181545 134.51961445 198.61181545 134.51961445 195.28564453 138.2746582 C190.65769829 142.24416651 186.79740552 142.83990646 180.89355469 142.72875977 C180.0733786 142.72934387 179.25320251 142.72992798 178.40817261 142.73052979 C175.71324461 142.72775625 173.01944038 142.69669977 170.32470703 142.6652832 C168.44998784 142.65781819 166.57526081 142.65212649 164.70053101 142.64813232 C159.77828234 142.63289646 154.85650954 142.59363233 149.93444824 142.54931641 C144.9070479 142.50831948 139.87957029 142.49011187 134.85205078 142.4699707 C124.99637353 142.42713607 115.14104868 142.35890957 105.28564453 142.2746582 C105.61564453 142.9346582 105.94564453 143.5946582 106.28564453 144.2746582 C106.94666281 152.02265935 107.00905451 157.92757605 102.28564453 164.2746582 C102.76001953 165.0171582 103.23439453 165.7596582 103.72314453 166.5246582 C106.75336715 171.85785001 106.73571684 177.25135006 106.28564453 183.2746582 C105.87314453 184.3265332 105.46064453 185.3784082 105.03564453 186.4621582 C104.66439453 187.8543457 104.66439453 187.8543457 104.28564453 189.2746582 C105.27057559 190.91620996 106.26202452 192.55483165 107.30908203 194.1574707 C109.60910133 199.14391255 109.07594023 205.20808829 107.73095703 210.42700195 C105.53433904 215.20726112 101.62446446 217.23134085 96.96923828 219.34106445 C93.03029686 220.71138032 89.44415845 221.07343979 85.28564453 221.2746582 C85.05232422 222.00168945 84.81900391 222.7287207 84.57861328 223.4777832 C76.68277228 240.55760844 49.03852019 249.47027843 33.28564453 256.2746582 C32.1305059 256.7960629 32.1305059 256.7960629 30.95203114 257.32800102 C28.13593205 258.32781119 26.06721722 258.5213489 23.09074402 258.51516724 C22.06575806 258.51791656 21.04077209 258.52066589 19.98472595 258.52349854 C18.87126297 258.51630798 17.75779999 258.50911743 16.6105957 258.50170898 C14.83922745 258.50214706 14.83922745 258.50214706 13.03207397 258.50259399 C9.8030645 258.50144124 6.57422945 258.4914261 3.34525466 258.47744608 C-0.03265513 258.46492469 -3.41056851 258.46376711 -6.78849792 258.46139526 C-13.18094643 258.45518463 -19.57332634 258.43877947 -25.96574467 258.41869628 C-33.24503531 258.39632431 -40.52432926 258.38534059 -47.80364573 258.37530541 C-62.77392049 258.35441285 -77.74413111 258.31924499 -92.71435547 258.2746582 C-91.45953527 254.44078859 -90.11984425 250.81545649 -88.35888672 247.18481445 C-87.90457275 246.24323486 -87.45025879 245.30165527 -86.98217773 244.33154297 C-86.50192139 243.343396 -86.02166504 242.35524902 -85.52685547 241.3371582 C-84.531995 239.26427455 -83.53720332 237.19135789 -82.54248047 235.1184082 C-80.64102151 231.17370374 -78.71706462 227.24289491 -76.73291016 223.33911133 C-70.40653088 210.09184113 -68.19204254 197.41423444 -68.21469116 182.8793335 C-68.21261314 168.69020849 -67.5290517 155.02596576 -63.71435547 141.2746582 C-63.30056641 139.77805664 -63.30056641 139.77805664 -62.87841797 138.2512207 C-60.97638656 132.71962476 -57.72607147 128.29051568 -54.34448242 123.55712891 C-45.42342291 110.9323739 -39.86624834 97.09289556 -34.65966797 82.6105957 C-34.32354492 81.68988281 -33.98742187 80.76916992 -33.64111328 79.82055664 C-33.06792341 78.24594548 -32.50734072 76.66660312 -31.96728516 75.08032227 C-31.26904297 73.1887207 -31.26904297 73.1887207 -29.71435547 70.2746582 C-27.1171875 69.0925293 -27.1171875 69.0925293 -24.71435547 68.2746582 C-24.72323792 67.64096313 -24.73212036 67.00726807 -24.74127197 66.35437012 C-24.83003606 59.73544368 -24.89021026 53.11668743 -24.93408203 46.49731445 C-24.95414841 44.02979662 -24.98140791 41.56232606 -25.01611328 39.0949707 C-25.06484853 35.54016427 -25.08737486 31.98598876 -25.10498047 28.4309082 C-25.12562561 27.33476196 -25.14627075 26.23861572 -25.1675415 25.10925293 C-25.1697519 17.49695328 -24.0489725 12.2183377 -19.00341797 6.2512207 C-18.45427734 5.80520508 -17.90513672 5.35918945 -17.33935547 4.8996582 C-16.79537109 4.43817383 -16.25138672 3.97668945 -15.69091797 3.5012207 C-10.72919882 0.42220922 -5.70652824 -0.02033529 0 0 Z " fill="#C0FBC9" transform="translate(153.71435546875,15.725341796875)"/>
<path d="M0 0 C40.59 0 81.18 0 123 0 C120.43152645 2.56847355 118.00719184 4.88034567 115.25 7.1875 C100.87979687 19.80134497 91.01054355 36.77044485 89 56 C88.86898867 58.77845408 88.7841393 61.55563763 88.70996094 64.33618164 C88.04889501 88.4669877 83.05054491 110.14601007 68.5 129.8125 C53.73016574 150.56462411 50.38014752 175.56029764 53.625 200.4375 C56.66389888 215.11837769 63.14083103 229.68831915 73.75390625 240.3203125 C75 243 75 243 72 252 C68.37 259.26 64.74 266.52 61 274 C40.87 274 20.74 274 0 274 C0 183.58 0 93.16 0 0 Z " fill="#EBFED4" transform="translate(0,0)"/>
<path d="M0 0 C0.74880432 -0.00511093 1.49760864 -0.01022186 2.269104 -0.01548767 C4.73042929 -0.0293226 7.19147261 -0.0284314 9.65283203 -0.02612305 C11.3738719 -0.03001359 13.09491081 -0.034349 14.81594849 -0.03910828 C18.41867183 -0.04655757 22.02129716 -0.04628878 25.62402344 -0.04101562 C30.2260572 -0.0352255 34.8276879 -0.05214713 39.42965508 -0.0753603 C42.98314738 -0.0901395 46.53654359 -0.09096361 50.09006119 -0.08785057 C51.78602013 -0.08836177 53.48198473 -0.0935615 55.17791367 -0.10366249 C57.55637037 -0.11609002 59.93405435 -0.10919793 62.3125 -0.09765625 C63.34925369 -0.10912186 63.34925369 -0.10912186 64.4069519 -0.12081909 C70.40536669 -0.05693689 75.95044247 1.25188455 80.56298828 5.24731445 C81.11083984 5.93696289 81.65869141 6.62661133 82.22314453 7.3371582 C82.78904297 8.02938477 83.35494141 8.72161133 83.93798828 9.43481445 C85.28564453 11.2746582 85.28564453 11.2746582 86.28564453 13.2746582 C87.56271271 13.28052444 88.83978088 13.28639069 90.1555481 13.29243469 C102.19160998 13.34965139 114.22749101 13.42240777 126.26336861 13.51037312 C132.45111921 13.55509758 138.63880365 13.59434936 144.82666016 13.62109375 C150.79845545 13.64710567 156.76999642 13.68749367 162.74163437 13.73784447 C165.01975211 13.75452737 167.29791385 13.76603276 169.57608414 13.77227211 C172.76746522 13.78189744 175.95819357 13.80993906 179.14941406 13.84228516 C180.09096848 13.84085007 181.03252289 13.83941498 182.00260925 13.8379364 C187.11093447 13.91114306 191.00508257 14.17738988 195.28564453 17.2746582 C199.07732348 22.43498664 198.71115651 27.83239491 198.67382812 33.97412109 C198.68171356 35.57272728 198.68171356 35.57272728 198.6897583 37.20362854 C198.70293752 40.71834059 198.69422787 44.23259798 198.68408203 47.74731445 C198.6861032 50.19298896 198.689015 52.63866288 198.69277954 55.08433533 C198.69719997 60.20618435 198.69078013 65.32787628 198.67675781 70.44970703 C198.65965729 77.01600412 198.66951472 83.58193357 198.6874752 90.1482172 C198.69831277 95.19680047 198.69486693 100.24529648 198.68709183 105.29388237 C198.68509023 107.71520468 198.68754767 110.13653491 198.69453049 112.55784798 C198.70214526 115.94030898 198.69054003 119.3221733 198.67382812 122.70458984 C198.67990082 123.70576843 198.68597351 124.70694702 198.69223022 125.73846436 C198.61181545 134.51961445 198.61181545 134.51961445 195.28564453 138.2746582 C190.69035663 142.1985784 186.83377238 142.86238506 180.97290039 142.82397461 C180.16075577 142.83419647 179.34861115 142.84441833 178.51185608 142.85494995 C175.84109614 142.88263472 173.17137417 142.88083816 170.50048828 142.8762207 C168.63773721 142.88399874 166.77498967 142.89266894 164.9122467 142.90219116 C161.01437866 142.91709098 157.11687304 142.91655 153.21899414 142.90600586 C148.2261374 142.89439906 143.23476037 142.9283279 138.2421484 142.97469521 C134.39790695 143.00416465 130.55402257 143.00591463 126.70968819 142.99967575 C124.86888248 143.00070182 123.0280567 143.01117106 121.18736076 143.03129959 C118.6135929 143.05599866 116.0427162 143.04247538 113.46899414 143.01928711 C112.71093475 143.03457458 111.95287537 143.04986206 111.17184448 143.06561279 C108.22944339 143.00706194 105.95437488 142.84805187 103.66983223 140.88920212 C102.27418518 139.2281189 102.27418518 139.2281189 100.28564453 136.2746582 C98.85671875 137.01522461 98.85671875 137.01522461 97.39892578 137.77075195 C96.13216282 138.41820858 94.86522652 139.06532614 93.59814453 139.7121582 C92.97230469 140.03764648 92.34646484 140.36313477 91.70166016 140.69848633 C85.16407151 144.01862297 78.59858224 145.36739602 71.28564453 144.2746582 C67.93939429 141.74789782 66.60586606 140.23532278 65.28564453 136.2746582 C58.02564453 135.9446582 50.76564453 135.6146582 43.28564453 135.2746582 C43.28564453 134.6146582 43.28564453 133.9546582 43.28564453 133.2746582 C50.21564453 133.2746582 57.14564453 133.2746582 64.28564453 133.2746582 C64.28564453 126.3446582 64.28564453 119.4146582 64.28564453 112.2746582 C64.94564453 112.2746582 65.60564453 112.2746582 66.28564453 112.2746582 C66.78064453 119.6996582 66.78064453 119.6996582 67.28564453 127.2746582 C68.93564453 125.6246582 70.58564453 123.9746582 72.28564453 122.2746582 C73.36341156 121.54782837 74.44117859 120.82099854 75.55160522 120.07214355 C78.91624847 116.62942049 78.99977938 114.95018273 79.07659912 110.29850769 C79.05366791 108.92061821 79.05366791 108.92061821 79.03027344 107.51489258 C79.03757477 106.53708328 79.0448761 105.55927399 79.05239868 104.55183411 C79.06859592 101.32331615 79.04140647 98.09681058 79.01220703 94.8684082 C79.01116962 92.62308758 79.01220582 90.37776512 79.01522827 88.13244629 C79.01504889 83.42810932 78.99420479 78.72445831 78.95800781 74.02026367 C78.91263245 67.99073247 78.91154548 61.96220347 78.92504311 55.93254852 C78.93172672 51.29651993 78.91845515 46.66071976 78.89878464 42.0247345 C78.89108727 39.80159195 78.88878147 37.57842399 78.89195633 35.35527039 C78.89269827 32.24782929 78.86744362 29.14167199 78.83496094 26.03442383 C78.83991577 25.11583084 78.84487061 24.19723785 78.84997559 23.25080872 C78.78053825 19.08799876 78.64365884 16.84979472 76.40048218 13.24621582 C72.39869179 9.51554631 68.82011506 9.02081554 63.47314453 9.1496582 C62.49732422 9.16770508 61.52150391 9.18575195 60.51611328 9.2043457 C59.78005859 9.22754883 59.04400391 9.25075195 58.28564453 9.2746582 C57.29564453 11.5846582 56.30564453 13.8946582 55.28564453 16.2746582 C39.77564453 16.2746582 24.26564453 16.2746582 8.28564453 16.2746582 C6.30564453 12.8096582 6.30564453 12.8096582 4.28564453 9.2746582 C-4.71658194 8.6758157 -4.71658194 8.6758157 -12.71435547 12.2746582 C-15.57238045 16.87780835 -16.14692058 20.79103073 -16.10203552 26.09301758 C-16.10742106 26.86161858 -16.1128066 27.63021957 -16.11835533 28.42211151 C-16.13261917 30.98770843 -16.12553525 33.55278825 -16.1184082 36.1184082 C-16.12411255 37.96175551 -16.13107706 39.80509929 -16.13920593 41.6484375 C-16.15714395 46.64837658 -16.1559679 51.64814022 -16.15026355 56.64810181 C-16.14717307 60.82320164 -16.15326249 64.9982677 -16.15930229 69.17336273 C-16.17334761 79.02226063 -16.17178575 88.87107179 -16.16040039 98.7199707 C-16.14891491 108.87998997 -16.1630021 119.03974541 -16.18979686 129.19972992 C-16.21194655 137.92515675 -16.21859301 146.65050072 -16.21272045 155.37595367 C-16.20934845 160.58631204 -16.21178239 165.79650122 -16.22897148 171.00683594 C-16.24442718 175.90545992 -16.24050031 180.80369258 -16.22166634 185.70230103 C-16.21797686 187.49939905 -16.22109936 189.29652599 -16.23155212 191.09359741 C-16.24473933 193.54828314 -16.23323575 196.00166896 -16.21556091 198.45629883 C-16.22516592 199.16622734 -16.23477093 199.87615585 -16.24466699 200.60759735 C-16.17077086 205.6005547 -14.85401708 208.43579719 -11.71435547 212.2746582 C-8.09402197 214.68821387 -5.47294424 214.54765469 -1.29296875 214.51416016 C-0.53978363 214.51617432 0.21340149 214.51818848 0.9894104 214.52026367 C2.62469999 214.52380871 4.26000329 214.52304266 5.89529037 214.51848793 C8.48464521 214.51289776 11.07355157 214.5220484 13.66287231 214.53569031 C21.02461722 214.57283122 28.38621093 214.59135693 35.74804688 214.58007812 C40.25157649 214.57422419 44.75447616 214.592502 49.25787735 214.62596703 C50.97303634 214.63391861 52.68826403 214.63264725 54.40340805 214.62194252 C56.80479028 214.60760106 59.20419545 214.62389855 61.60546875 214.64697266 C62.31213684 214.63520493 63.01880493 214.62343719 63.74688721 214.61131287 C67.624935 214.68428449 69.17289272 215.18135647 72.20315552 217.68888855 C74.28564453 220.2746582 74.28564453 220.2746582 75.28564453 222.2746582 C72.18005894 223.827451 68.88487083 223.44855649 65.47460938 223.4675293 C64.66786774 223.47570679 63.8611261 223.48388428 63.02993774 223.49230957 C60.35216007 223.51717969 57.67443561 223.53368706 54.99658203 223.5480957 C54.08166615 223.55341938 53.16675026 223.55874306 52.22410965 223.56422806 C47.37793058 223.5909715 42.53177732 223.61033927 37.68554688 223.62475586 C32.68865706 223.64137231 27.69243082 223.68612126 22.69579124 223.7371273 C18.8472115 223.77085562 14.99878784 223.78233961 11.15007401 223.78798294 C9.30893531 223.79468406 7.46780647 223.80987641 5.62681198 223.83387375 C3.04168214 223.86563778 0.45832214 223.86554526 -2.12695312 223.8581543 C-2.88051086 223.87455963 -3.6340686 223.89096497 -4.41046143 223.90786743 C-11.40522464 223.82647683 -16.21439634 220.77461734 -21.08935547 215.8996582 C-24.50558032 210.38114113 -25.00936402 204.62725519 -24.98178101 198.27357483 C-24.98631212 197.49736343 -24.99084323 196.72115204 -24.99551165 195.92141908 C-25.00811126 193.33606028 -25.00653819 190.75091333 -25.00488281 188.16552734 C-25.01087073 186.30557486 -25.01767689 184.44562486 -25.02523804 182.5856781 C-25.04287577 177.54438058 -25.04759241 172.503151 -25.04886961 167.46182561 C-25.05029272 164.31035804 -25.05456531 161.15890767 -25.05986404 158.00744438 C-25.07835508 147.00804424 -25.08653558 136.00869252 -25.08496094 125.00927734 C-25.08375893 114.76351501 -25.10487526 104.51796312 -25.13644826 94.27225405 C-25.16261114 85.4678044 -25.17332827 76.66342351 -25.17205012 67.8589353 C-25.17154061 62.60380392 -25.17721841 57.34885975 -25.19840622 52.09376717 C-25.21778938 47.15164058 -25.21791247 42.20987984 -25.20337296 37.26774025 C-25.20128405 35.45696223 -25.20599062 33.64616129 -25.21809387 31.83542252 C-25.23358094 29.3574293 -25.22421636 26.88069229 -25.20883179 24.40272522 C-25.21911891 23.69152261 -25.22940604 22.98032001 -25.2400049 22.24756581 C-25.15487518 16.01428451 -22.99151114 10.96773272 -19.00341797 6.2512207 C-18.45427734 5.80520508 -17.90513672 5.35918945 -17.33935547 4.8996582 C-16.79537109 4.43817383 -16.25138672 3.97668945 -15.69091797 3.5012207 C-10.72919882 0.42220922 -5.70652824 -0.02033529 0 0 Z " fill="#FAFAFA" transform="translate(153.71435546875,15.725341796875)"/>
<path d="M0 0 C0.00238835 0.70384071 0.00477671 1.40768143 0.00723743 2.13285065 C0.0664319 19.27680167 0.14201038 36.42060254 0.23571491 53.56439972 C0.28063709 61.85509468 0.32005997 70.14574702 0.34643555 78.43652344 C0.36944465 85.6646779 0.40287511 92.8926971 0.44870156 100.12074423 C0.47259464 103.94622381 0.491349 107.77156976 0.49761391 111.59712219 C0.50368259 115.20215074 0.52374616 118.80683756 0.55427551 122.41173935 C0.56718204 124.35677865 0.56549069 126.3018979 0.5632782 128.24697876 C0.65722318 137.02958931 1.48298638 144.48298638 8 151 C12.78793656 153.95799251 16.87607557 154.4229301 22.3762207 154.35644531 C23.1947905 154.35848969 24.01336029 154.36053406 24.85673523 154.36264038 C27.54664876 154.3656346 30.2359412 154.34721831 32.92578125 154.328125 C34.79810942 154.325066 36.67043986 154.32319095 38.54277039 154.32244873 C42.45739513 154.31785487 46.3718131 154.30345934 50.28637695 154.28125 C55.31495504 154.25287052 60.3433711 154.24202776 65.37202168 154.2375679 C69.23318616 154.23342209 73.09431763 154.22361326 76.95546532 154.21169281 C78.81070884 154.20598084 80.66595556 154.20122521 82.52120399 154.19742584 C85.10444421 154.19058812 87.68755326 154.17697031 90.27075195 154.16113281 C91.42941269 154.15945602 91.42941269 154.15945602 92.61148071 154.15774536 C96.09764276 154.44541209 96.09764276 154.44541209 99 153 C98.175 152.360625 97.35 151.72125 96.5 151.0625 C93.56519743 147.46736685 93.25899282 145.73038411 93.5 141.2265625 C94.35173291 137.43368938 96.17489042 135.62331604 99 133 C99.66 133 100.32 133 101 133 C101 132.34 101 131.68 101 131 C100.113125 131.0825 99.22625 131.165 98.3125 131.25 C95 131 95 131 92.1875 129.625 C88.94327456 125.73192947 88.60509547 121.98369514 89 117 C91.31321012 112.09599455 94.79194968 109.25167524 99 106 C97.6078125 105.4121875 97.6078125 105.4121875 96.1875 104.8125 C92.60170513 102.77351861 91.49206469 101.8130542 90 98 C89.14929204 93.88036793 89.09459905 90.55131005 91.25390625 86.8515625 C97.29101186 79.53980118 104.39318399 75.15651482 113.4921875 72.7890625 C117.65548676 71.47911476 121.2912693 69.26644654 125 67 C130.48630221 73.3303487 131.32915289 77.28188877 131.30078125 85.74609375 C130.8925869 90.16201441 129.61860549 92.48124887 127 96 C127.474375 96.7425 127.94875 97.485 128.4375 98.25 C131.46772262 103.58319181 131.45007231 108.97669186 131 115 C130.38125 116.5778125 130.38125 116.5778125 129.75 118.1875 C129.5025 119.115625 129.255 120.04375 129 121 C129.98493106 122.64155176 130.97637999 124.28017345 132.0234375 125.8828125 C134.3234568 130.86925434 133.79029569 136.93343008 132.4453125 142.15234375 C130.2486945 146.93260291 126.33881993 148.95668265 121.68359375 151.06640625 C117.74465233 152.43672211 114.15851392 152.79878158 110 153 C109.76667969 153.72703125 109.53335938 154.4540625 109.29296875 155.203125 C101.39712775 172.28295024 73.75287565 181.19562022 58 188 C57.22990758 188.34760313 56.45981516 188.69520626 55.6663866 189.05334282 C52.85028751 190.05315298 50.78157269 190.2466907 47.80509949 190.24050903 C46.78011353 190.24325836 45.75512756 190.24600769 44.69908142 190.24884033 C43.58561844 190.24164978 42.47215546 190.23445923 41.32495117 190.22705078 C39.55358292 190.22748886 39.55358292 190.22748886 37.74642944 190.22793579 C34.51741997 190.22678304 31.28858492 190.21676789 28.05961013 190.20278788 C24.68170034 190.19026649 21.30378696 190.18910891 17.92585754 190.18673706 C11.53340904 190.18052642 5.14102913 190.16412126 -1.25138921 190.14403808 C-8.53067984 190.12166611 -15.80997379 190.11068239 -23.08929026 190.10064721 C-38.05956503 190.07975465 -53.02977565 190.04458679 -68 190 C-66.7451798 186.16613039 -65.40548878 182.54079829 -63.64453125 178.91015625 C-63.19021729 177.96857666 -62.73590332 177.02699707 -62.26782227 176.05688477 C-61.78756592 175.06873779 -61.30730957 174.08059082 -60.8125 173.0625 C-59.81763953 170.98961635 -58.82284785 168.91669969 -57.828125 166.84375 C-55.92666605 162.89904554 -54.00270915 158.9682367 -52.01855469 155.06445312 C-45.69217541 141.81718293 -43.47768707 129.13957624 -43.50033569 114.60467529 C-43.49825767 100.41555029 -42.81469623 86.75130756 -39 73 C-38.72414063 72.00226563 -38.44828125 71.00453125 -38.1640625 69.9765625 C-36.26203109 64.44496656 -33.011716 60.01585748 -29.63012695 55.2824707 C-20.70906744 42.6577157 -15.15189287 28.81823736 -9.9453125 14.3359375 C-4.75185947 0 -4.75185947 0 0 0 Z " fill="#FBC984" transform="translate(129,84)"/>
<path d="M0 0 C13.36144369 26.09628175 18.24759511 53.55697889 10 82 C8.63247023 86.19018909 6.98931421 90.06924277 5 94 C4.15308594 95.69189453 4.15308594 95.69189453 3.2890625 97.41796875 C-1.29213978 106.16368267 -7.00198416 113.08072414 -14 120 C-14.80308594 120.81339844 -15.60617187 121.62679687 -16.43359375 122.46484375 C-35.07243095 140.3691455 -59.91107627 146.55839011 -85.046875 146.29296875 C-93.04446412 146.04160866 -100.32540262 144.09234601 -108 142 C-119.5623524 139.39882801 -131.22100501 139.79382397 -143 140 C-140.1308851 137.81117869 -137.19417723 135.8448177 -134.1262207 133.94238281 C-122.83677535 127.2190344 -122.83677535 127.2190344 -114.59375 117.3671875 C-112.55156911 114.33394824 -111.21250162 114.10632814 -107.6875 113.375 C-103.40925352 112.38466517 -99.88627447 111.09260933 -96 109 C-95.34 109 -94.68 109 -94 109 C-93.690625 108.21625 -93.38125 107.4325 -93.0625 106.625 C-92 104 -92 104 -91 102 C-90.33756015 94.94121468 -90.65783195 89.78083978 -94.2421875 83.65234375 C-95 82 -95 82 -94.25 79.625 C-93.8375 78.75875 -93.425 77.8925 -93 77 C-92.27908939 70.52289543 -93.05799181 65.76633606 -96 60 C-96.33 59.01 -96.66 58.02 -97 57 C-96.36578125 56.11054688 -95.7315625 55.22109375 -95.078125 54.3046875 C-92.63500061 50.41956865 -92.52709695 47.54876818 -92.75 43.125 C-92.76804687 42.43664062 -92.78609375 41.74828125 -92.8046875 41.0390625 C-92.85136252 39.3587619 -92.92309061 37.67918837 -93 36 C-91.96096527 35.99635437 -90.92193054 35.99270874 -89.85140991 35.98895264 C-80.05214004 35.9519868 -70.25318395 35.89419668 -60.45415306 35.81609726 C-55.41652512 35.77661391 -50.3790722 35.74442959 -45.34130859 35.72900391 C-40.47815793 35.71384304 -35.61548842 35.67940747 -30.75255203 35.63169098 C-28.89868989 35.61687133 -27.04475905 35.60895865 -25.19083786 35.60811615 C-22.5907354 35.60574648 -19.99196264 35.5786678 -17.39208984 35.54589844 C-16.24625427 35.55344398 -16.24625427 35.55344398 -15.07727051 35.56114197 C-9.92294232 35.46085177 -6.9820529 34.23862242 -3 31 C-0.64686954 27.7619971 -0.69718342 24.63381418 -0.5859375 20.703125 C-0.52792969 18.89521484 -0.52792969 18.89521484 -0.46875 17.05078125 C-0.4378125 15.79652344 -0.406875 14.54226562 -0.375 13.25 C-0.31699219 11.34541016 -0.31699219 11.34541016 -0.2578125 9.40234375 C-0.16355778 6.2683743 -0.07794834 3.13441051 0 0 Z " fill="#AFFEBB" transform="translate(352,122)"/>
<path d="M0 0 C0.74880432 -0.00511093 1.49760864 -0.01022186 2.269104 -0.01548767 C4.73042929 -0.0293226 7.19147261 -0.0284314 9.65283203 -0.02612305 C11.3738719 -0.03001359 13.09491081 -0.034349 14.81594849 -0.03910828 C18.41867183 -0.04655757 22.02129716 -0.04628878 25.62402344 -0.04101562 C30.2260572 -0.0352255 34.8276879 -0.05214713 39.42965508 -0.0753603 C42.98314738 -0.0901395 46.53654359 -0.09096361 50.09006119 -0.08785057 C51.78602013 -0.08836177 53.48198473 -0.0935615 55.17791367 -0.10366249 C57.55637037 -0.11609002 59.93405435 -0.10919793 62.3125 -0.09765625 C63.34925369 -0.10912186 63.34925369 -0.10912186 64.4069519 -0.12081909 C70.37002875 -0.05731324 75.87243254 1.26504961 80.52783203 5.1418457 C81.06666016 5.80442383 81.60548828 6.46700195 82.16064453 7.1496582 C82.71494141 7.80708008 83.26923828 8.46450195 83.84033203 9.1418457 C87.52429149 14.57817507 87.5641612 19.38330136 87.51269531 25.74658203 C87.51298737 26.69340851 87.51327942 27.64023499 87.51358032 28.61575317 C87.51218967 31.73782593 87.49664074 34.85965851 87.48095703 37.98168945 C87.47722597 40.14930592 87.47437944 42.31692408 87.47238159 44.48454285 C87.46475252 50.18424146 87.44511016 55.88383782 87.42297363 61.58349609 C87.40249964 67.40176002 87.39337654 73.2200405 87.38330078 79.03833008 C87.36186366 90.45048433 87.32773639 101.86256276 87.28564453 113.2746582 C84.64564453 114.5946582 82.00564453 115.9146582 79.28564453 117.2746582 C79.28017609 115.39330925 79.28017609 115.39330925 79.27459717 113.47395325 C79.23766793 101.65829047 79.17991773 89.84288881 79.10174179 78.02742481 C79.06222015 71.95284247 79.03005453 65.87840611 79.01464844 59.80371094 C78.99951294 53.94208978 78.96512216 48.08086985 78.91733551 42.21942711 C78.90248972 39.98235243 78.89460169 37.74522048 78.89376068 35.50809669 C78.89139897 32.37621832 78.86438231 29.24545592 78.83154297 26.11376953 C78.83657333 25.18732132 78.8416037 24.26087311 78.8467865 23.30635071 C78.77888122 19.12497801 78.65040754 16.86166232 76.4006958 13.24125671 C72.39563562 9.51730662 68.81881321 9.02084691 63.47314453 9.1496582 C62.49732422 9.16770508 61.52150391 9.18575195 60.51611328 9.2043457 C59.78005859 9.22754883 59.04400391 9.25075195 58.28564453 9.2746582 C57.29564453 11.5846582 56.30564453 13.8946582 55.28564453 16.2746582 C39.77564453 16.2746582 24.26564453 16.2746582 8.28564453 16.2746582 C6.30564453 12.8096582 6.30564453 12.8096582 4.28564453 9.2746582 C-4.71658194 8.6758157 -4.71658194 8.6758157 -12.71435547 12.2746582 C-15.57238045 16.87780835 -16.14692058 20.79103073 -16.10203552 26.09301758 C-16.10742106 26.86161858 -16.1128066 27.63021957 -16.11835533 28.42211151 C-16.13261917 30.98770843 -16.12553525 33.55278825 -16.1184082 36.1184082 C-16.12411255 37.96175551 -16.13107706 39.80509929 -16.13920593 41.6484375 C-16.15714395 46.64837658 -16.1559679 51.64814022 -16.15026355 56.64810181 C-16.14717307 60.82320164 -16.15326249 64.9982677 -16.15930229 69.17336273 C-16.17334761 79.02226063 -16.17178575 88.87107179 -16.16040039 98.7199707 C-16.14891491 108.87998997 -16.1630021 119.03974541 -16.18979686 129.19972992 C-16.21194655 137.92515675 -16.21859301 146.65050072 -16.21272045 155.37595367 C-16.20934845 160.58631204 -16.21178239 165.79650122 -16.22897148 171.00683594 C-16.24442718 175.90545992 -16.24050031 180.80369258 -16.22166634 185.70230103 C-16.21797686 187.49939905 -16.22109936 189.29652599 -16.23155212 191.09359741 C-16.24473933 193.54828314 -16.23323575 196.00166896 -16.21556091 198.45629883 C-16.22516592 199.16622734 -16.23477093 199.87615585 -16.24466699 200.60759735 C-16.17077086 205.6005547 -14.85401708 208.43579719 -11.71435547 212.2746582 C-8.09402197 214.68821387 -5.47294424 214.54765469 -1.29296875 214.51416016 C-0.53978363 214.51617432 0.21340149 214.51818848 0.9894104 214.52026367 C2.62469999 214.52380871 4.26000329 214.52304266 5.89529037 214.51848793 C8.48464521 214.51289776 11.07355157 214.5220484 13.66287231 214.53569031 C21.02461722 214.57283122 28.38621093 214.59135693 35.74804688 214.58007812 C40.25157649 214.57422419 44.75447616 214.592502 49.25787735 214.62596703 C50.97303634 214.63391861 52.68826403 214.63264725 54.40340805 214.62194252 C56.80479028 214.60760106 59.20419545 214.62389855 61.60546875 214.64697266 C62.31213684 214.63520493 63.01880493 214.62343719 63.74688721 214.61131287 C67.624935 214.68428449 69.17289272 215.18135647 72.20315552 217.68888855 C74.28564453 220.2746582 74.28564453 220.2746582 75.28564453 222.2746582 C72.18005894 223.827451 68.88487083 223.44855649 65.47460938 223.4675293 C64.66786774 223.47570679 63.8611261 223.48388428 63.02993774 223.49230957 C60.35216007 223.51717969 57.67443561 223.53368706 54.99658203 223.5480957 C54.08166615 223.55341938 53.16675026 223.55874306 52.22410965 223.56422806 C47.37793058 223.5909715 42.53177732 223.61033927 37.68554688 223.62475586 C32.68865706 223.64137231 27.69243082 223.68612126 22.69579124 223.7371273 C18.8472115 223.77085562 14.99878784 223.78233961 11.15007401 223.78798294 C9.30893531 223.79468406 7.46780647 223.80987641 5.62681198 223.83387375 C3.04168214 223.86563778 0.45832214 223.86554526 -2.12695312 223.8581543 C-2.88051086 223.87455963 -3.6340686 223.89096497 -4.41046143 223.90786743 C-11.40522464 223.82647683 -16.21439634 220.77461734 -21.08935547 215.8996582 C-24.50558032 210.38114113 -25.00936402 204.62725519 -24.98178101 198.27357483 C-24.98631212 197.49736343 -24.99084323 196.72115204 -24.99551165 195.92141908 C-25.00811126 193.33606028 -25.00653819 190.75091333 -25.00488281 188.16552734 C-25.01087073 186.30557486 -25.01767689 184.44562486 -25.02523804 182.5856781 C-25.04287577 177.54438058 -25.04759241 172.503151 -25.04886961 167.46182561 C-25.05029272 164.31035804 -25.05456531 161.15890767 -25.05986404 158.00744438 C-25.07835508 147.00804424 -25.08653558 136.00869252 -25.08496094 125.00927734 C-25.08375893 114.76351501 -25.10487526 104.51796312 -25.13644826 94.27225405 C-25.16261114 85.4678044 -25.17332827 76.66342351 -25.17205012 67.8589353 C-25.17154061 62.60380392 -25.17721841 57.34885975 -25.19840622 52.09376717 C-25.21778938 47.15164058 -25.21791247 42.20987984 -25.20337296 37.26774025 C-25.20128405 35.45696223 -25.20599062 33.64616129 -25.21809387 31.83542252 C-25.23358094 29.3574293 -25.22421636 26.88069229 -25.20883179 24.40272522 C-25.21911891 23.69152261 -25.22940604 22.98032001 -25.2400049 22.24756581 C-25.15487518 16.01428451 -22.99151114 10.96773272 -19.00341797 6.2512207 C-18.45427734 5.80520508 -17.90513672 5.35918945 -17.33935547 4.8996582 C-16.79537109 4.43817383 -16.25138672 3.97668945 -15.69091797 3.5012207 C-10.72919882 0.42220922 -5.70652824 -0.02033529 0 0 Z " fill="#1F1E1E" transform="translate(153.71435546875,15.725341796875)"/>
<path d="M0 0 C3.8091641 2.70651133 5.60963151 4.54450098 7 9 C7.8383135 16.70078683 7.68822664 22.70019545 3 29 C3.474375 29.7425 3.94875 30.485 4.4375 31.25 C7.46772262 36.58319181 7.45007231 41.97669186 7 48 C6.38125 49.5778125 6.38125 49.5778125 5.75 51.1875 C5.5025 52.115625 5.255 53.04375 5 54 C5.98493106 55.64155176 6.97637999 57.28017345 8.0234375 58.8828125 C10.3234568 63.86925434 9.79029569 69.93343008 8.4453125 75.15234375 C5.88457098 80.72500507 0.50396404 82.94767443 -5 85 C-9.14746137 86.07654571 -13.22415605 86.26382806 -17.5 86.375 C-18.7890625 86.42398438 -20.078125 86.47296875 -21.40625 86.5234375 C-25.90239343 85.86856444 -27.29987578 84.59167467 -30 81 C-30.91755471 77.89650614 -30.70660523 75.14660142 -30 72 C-28.57669588 69.4359595 -27.19449221 68.03774276 -25 66 C-24.34 66 -23.68 66 -23 66 C-23 65.34 -23 64.68 -23 64 C-23.886875 64.0825 -24.77375 64.165 -25.6875 64.25 C-29 64 -29 64 -31.8125 62.625 C-35.05672544 58.73192947 -35.39490453 54.98369514 -35 50 C-32.68678988 45.09599455 -29.20805032 42.25167524 -25 39 C-25.928125 38.608125 -26.85625 38.21625 -27.8125 37.8125 C-31.39829487 35.77351861 -32.50793531 34.8130542 -34 31 C-34.85070796 26.88036793 -34.90540095 23.55131005 -32.74609375 19.8515625 C-26.68057281 12.50538633 -19.57801376 8.16257869 -10.44140625 5.7890625 C-6.54680041 4.53032589 -3.32284211 2.34826552 0 0 Z " fill="#FBCA85" transform="translate(253,151)"/>
<path d="M0 0 C0.91007812 0.00902344 1.82015625 0.01804688 2.7578125 0.02734375 C3.80582031 0.04474609 3.80582031 0.04474609 4.875 0.0625 C1.43533564 10.78057017 -11.2924973 17.75278676 -20.71533203 22.828125 C-29.34512147 27.24881552 -38.22527486 31.21830602 -47.125 35.0625 C-47.89018448 35.41038071 -48.65536896 35.75826141 -49.44374084 36.11668396 C-52.33766808 37.13751881 -54.49861919 37.30415337 -57.55786133 37.28955078 C-59.14894463 37.28932419 -59.14894463 37.28932419 -60.77217102 37.28909302 C-62.47242683 37.27360916 -62.47242683 37.27360916 -64.20703125 37.2578125 C-65.37634689 37.2549826 -66.54566254 37.25215271 -67.75041199 37.24923706 C-71.47954608 37.23805562 -75.20843868 37.21295434 -78.9375 37.1875 C-81.46809549 37.17746759 -83.99869474 37.16834219 -86.52929688 37.16015625 C-92.72794677 37.13812292 -98.92645613 37.10466534 -105.125 37.0625 C-104.35802204 35.64374235 -103.58623222 34.22758548 -102.8125 32.8125 C-102.16861328 31.62914062 -102.16861328 31.62914062 -101.51171875 30.421875 C-100.17522446 28.14795233 -98.84023708 26.06744201 -97.125 24.0625 C-96.465 24.0625 -95.805 24.0625 -95.125 24.0625 C-94.87363281 23.31742187 -94.62226563 22.57234375 -94.36328125 21.8046875 C-90.28028584 12.76284909 -79.49329498 8.29069115 -71.125 4.0625 C-76.405 3.7325 -81.685 3.4025 -87.125 3.0625 C-87.125 2.7325 -87.125 2.4025 -87.125 2.0625 C-86.12719513 2.05219254 -85.12939026 2.04188507 -84.10134888 2.03126526 C-74.71300967 1.93364786 -65.32473847 1.83092499 -55.93651009 1.72316074 C-51.10955238 1.66791902 -46.28258863 1.61449702 -41.45556641 1.56518555 C-36.80009448 1.51756043 -32.14469761 1.4652183 -27.48931503 1.40955925 C-25.7102736 1.38912729 -23.93121158 1.37041561 -22.15213394 1.35342598 C-19.66661359 1.32940057 -17.18123576 1.29934354 -14.69580078 1.26782227 C-13.58449799 1.25918907 -13.58449799 1.25918907 -12.45074463 1.25038147 C-8.03232593 1.18638935 -4.41465917 -0.05659819 0 0 Z " fill="#F8AC67" transform="translate(234.125,236.9375)"/>
<path d="M0 0 C7.59 0 15.18 0 23 0 C23 0.66 23 1.32 23 2 C16.07 2 9.14 2 2 2 C2 5.96 2 9.92 2 14 C4.64 14 7.28 14 10 14 C10 12.35 10 10.7 10 9 C16.6 9 23.2 9 30 9 C30 9.99 30 10.98 30 12 C31.32 12 32.64 12 34 12 C34 12.66 34 13.32 34 14 C34.66 14 35.32 14 36 14 C36 12.35 36 10.7 36 9 C38.64 9 41.28 9 44 9 C44 10.32 44 11.64 44 13 C43.01 13 42.02 13 41 13 C41 12.34 41 11.68 41 11 C40.01 11 39.02 11 38 11 C38 11.99 38 12.98 38 14 C38.99 14 39.98 14 41 14 C41 15.32 41 16.64 41 18 C38.36 17.67 35.72 17.34 33 17 C33 17.66 33 18.32 33 19 C34.32 19 35.64 19 37 19 C37 20.32 37 21.64 37 23 C36.34 23 35.68 23 35 23 C35 26.96 35 30.92 35 35 C35.99 35 36.98 35 38 35 C37.98839844 34.18015625 37.97679687 33.3603125 37.96484375 32.515625 C37.95582031 31.43796875 37.94679687 30.3603125 37.9375 29.25 C37.92589844 28.18265625 37.91429687 27.1153125 37.90234375 26.015625 C37.98489913 23.46631499 38.25382442 21.42066409 39 19 C40.65 19 42.3 19 44 19 C44 20.98 44 22.96 44 25 C45.32 25 46.64 25 48 25 C48 29.29 48 33.58 48 38 C49.65 38 51.3 38 53 38 C53 39.32 53 40.64 53 42 C51.35 42 49.7 42 48 42 C47.67 43.32 47.34 44.64 47 46 C48.65 46 50.3 46 52 46 C52 46.66 52 47.32 52 48 C51.01 48 50.02 48 49 48 C49.04125 49.2375 49.0825 50.475 49.125 51.75 C49.13658291 55.01637962 48.8568702 57.2146947 47 60 C45.35 60 43.7 60 42 60 C42.020625 58.948125 42.04125 57.89625 42.0625 56.8125 C42.01103198 53.67295096 41.73482813 51.03116604 41 48 C40.67 49.32 40.34 50.64 40 52 C37.69 52 35.38 52 33 52 C33 52.99 33 53.98 33 55 C34.98 55 36.96 55 39 55 C39 56.65 39 58.3 39 60 C29.43 60 19.86 60 10 60 C10 55.05 10 50.1 10 45 C14.95 45 19.9 45 25 45 C25.33 46.32 25.66 47.64 26 49 C27.485 48.505 27.485 48.505 29 48 C27.515 47.505 27.515 47.505 26 47 C24.52333708 43.50970582 24.92835315 39.72563614 25 36 C23.68 36 22.36 36 21 36 C21 36.66 21 37.32 21 38 C21.99 38 22.98 38 24 38 C24 39.65 24 41.3 24 43 C19.20699867 44.39151652 14.84864218 43.68662689 10 43 C10 42.01 10 41.02 10 40 C12.97 39.505 12.97 39.505 16 39 C16 38.01 16 37.02 16 36 C15.34 36 14.68 36 14 36 C14 36.99 14 37.98 14 39 C12.68 39 11.36 39 10 39 C9.46706163 36.60629375 8.9484183 34.21091562 8.4375 31.8125 C8.28603516 31.13896484 8.13457031 30.46542969 7.97851562 29.77148438 C7.1596237 25.86746475 6.8717155 22.84812264 8 19 C7.01 19 6.02 19 5 19 C4.71125 20.11375 4.4225 21.2275 4.125 22.375 C3 26 3 26 1 28 C0.18101378 24.42649959 -0.11811958 21.14340521 -0.09765625 17.48046875 C-0.09515869 16.55903076 -0.09266113 15.63759277 -0.09008789 14.68823242 C-0.08098389 13.53299072 -0.07187988 12.37774902 -0.0625 11.1875 C-0.041875 7.495625 -0.02125 3.80375 0 0 Z " fill="#F1F3DD" transform="translate(150,83)"/>
<path d="M0 0 C7.59 0 15.18 0 23 0 C23 7.59 23 15.18 23 23 C18.71 23.33 14.42 23.66 10 24 C10.0825 25.69125 10.165 27.3825 10.25 29.125 C10.20988102 34.34715342 9.77321039 37.13695127 6 41 C-2.24977321 47.11205826 -11.44739382 50.73496386 -21.796875 50.42578125 C-25.36177721 49.73681965 -26.93585759 47.86316527 -29 45 C-29.33 44.01 -29.66 43.02 -30 42 C-37.26 41.67 -44.52 41.34 -52 41 C-52 40.34 -52 39.68 -52 39 C-45.07 39 -38.14 39 -31 39 C-31 32.07 -31 25.14 -31 18 C-30.34 18 -29.68 18 -29 18 C-28.67 22.95 -28.34 27.9 -28 33 C-26.35 31.35 -24.7 29.7 -23 28 C-19.3793999 24.97236909 -15.9322783 22.38986183 -11.5625 20.5625 C-10.716875 20.046875 -9.87125 19.53125 -9 19 C-8.02126462 15.40614946 -8.02126462 15.40614946 -8 12 C-4.71303767 11.20046862 -3.28976808 10.90341064 0 12 C0 8.04 0 4.08 0 0 Z " fill="#DFB87B" transform="translate(249,110)"/>
<path d="M0 0 C0.74880432 -0.00511093 1.49760864 -0.01022186 2.269104 -0.01548767 C4.73042929 -0.0293226 7.19147261 -0.0284314 9.65283203 -0.02612305 C11.3738719 -0.03001359 13.09491081 -0.034349 14.81594849 -0.03910828 C18.41867183 -0.04655757 22.02129716 -0.04628878 25.62402344 -0.04101562 C30.2260572 -0.0352255 34.8276879 -0.05214713 39.42965508 -0.0753603 C42.98314738 -0.0901395 46.53654359 -0.09096361 50.09006119 -0.08785057 C51.78602013 -0.08836177 53.48198473 -0.0935615 55.17791367 -0.10366249 C57.55637037 -0.11609002 59.93405435 -0.10919793 62.3125 -0.09765625 C63.34925369 -0.10912186 63.34925369 -0.10912186 64.4069519 -0.12081909 C70.37002875 -0.05731324 75.87243254 1.26504961 80.52783203 5.1418457 C81.06666016 5.80442383 81.60548828 6.46700195 82.16064453 7.1496582 C82.71494141 7.80708008 83.26923828 8.46450195 83.84033203 9.1418457 C87.52429149 14.57817507 87.5641612 19.38330136 87.51269531 25.74658203 C87.51298737 26.69340851 87.51327942 27.64023499 87.51358032 28.61575317 C87.51218967 31.73782593 87.49664074 34.85965851 87.48095703 37.98168945 C87.47722597 40.14930592 87.47437944 42.31692408 87.47238159 44.48454285 C87.46475252 50.18424146 87.44511016 55.88383782 87.42297363 61.58349609 C87.40249964 67.40176002 87.39337654 73.2200405 87.38330078 79.03833008 C87.36186366 90.45048433 87.32773639 101.86256276 87.28564453 113.2746582 C85.30564453 114.2646582 85.30564453 114.2646582 83.28564453 115.2746582 C83.28017609 113.41543228 83.28017609 113.41543228 83.27459717 111.51864624 C83.23765053 99.83573882 83.17988119 88.15309507 83.10174179 76.47038841 C83.06223848 70.46421595 83.03006383 64.45819072 83.01464844 58.4519043 C82.99950092 52.65511537 82.96508857 46.85873117 82.91733551 41.06212234 C82.90250217 38.8509943 82.8946024 36.63980847 82.89376068 34.42863083 C82.89139523 31.33048132 82.86434832 28.23345413 82.83154297 25.13549805 C82.83657333 24.22199585 82.8416037 23.30849365 82.8467865 22.36730957 C82.75634542 16.84402087 81.9645665 13.65991904 78.28564453 9.2746582 C73.7378975 5.27815323 69.545481 5.11925216 63.71240234 5.09765625 C62.94292267 5.09108505 62.17344299 5.08451385 61.38064575 5.07774353 C58.83335266 5.05802877 56.28611851 5.04635143 53.73876953 5.03637695 C52.86765282 5.03230143 51.9965361 5.0282259 51.09902191 5.02402687 C46.48740374 5.00317294 41.87581527 4.98886884 37.26416016 4.97949219 C32.50830931 4.9684349 27.75292726 4.93404106 22.99724197 4.89432049 C19.33399606 4.86813523 15.67086148 4.85979862 12.00753021 4.85621071 C10.25489896 4.85134893 8.50227254 4.83974658 6.74973297 4.82117271 C4.29160259 4.79674214 1.83468025 4.79775312 -0.62353516 4.8046875 C-1.70080368 4.78547241 -1.70080368 4.78547241 -2.79983521 4.76586914 C-8.27395782 4.82189835 -11.29056961 6.28965058 -15.71435547 9.2746582 C-19.99347322 13.98168773 -19.87703894 18.69967089 -19.91967773 24.78515625 C-19.92957733 25.65366211 -19.93947693 26.52216797 -19.94967651 27.41699219 C-19.98128491 30.29009263 -20.00604638 33.16320962 -20.03076172 36.03637695 C-20.05133181 38.02749564 -20.0723283 40.01860997 -20.09373474 42.00971985 C-20.14894968 47.25233428 -20.19836154 52.49498809 -20.24658203 57.7376709 C-20.29680124 63.08662422 -20.35248512 68.43552031 -20.40771484 73.78442383 C-20.51528936 84.28111974 -20.61673595 94.77786532 -20.71435547 105.2746582 C-21.37435547 104.9446582 -22.03435547 104.6146582 -22.71435547 104.2746582 C-23.04435547 137.9346582 -23.37435547 171.5946582 -23.71435547 206.2746582 C-24.04435547 206.2746582 -24.37435547 206.2746582 -24.71435547 206.2746582 C-24.80782037 181.63993855 -24.87834533 157.0052455 -24.92160416 132.37038422 C-24.94222436 120.93183971 -24.97033475 109.49340541 -25.01611328 98.05493164 C-25.05599745 88.08449622 -25.08179222 78.11414062 -25.09070945 68.14362764 C-25.09592148 62.86489257 -25.10816063 57.58638585 -25.1372757 52.307724 C-25.16446962 47.33699576 -25.17279236 42.36658947 -25.16678619 37.39579391 C-25.16788465 35.57372156 -25.17581477 33.7516382 -25.19117737 31.92963028 C-25.21116791 29.43597137 -25.20626221 26.94351766 -25.19537354 24.4498291 C-25.2070249 23.73385166 -25.21867627 23.01787421 -25.2306807 22.28020048 C-25.15719257 16.02616934 -23.00423153 10.98277646 -19.00341797 6.2512207 C-18.45427734 5.80520508 -17.90513672 5.35918945 -17.33935547 4.8996582 C-16.79537109 4.43817383 -16.25138672 3.97668945 -15.69091797 3.5012207 C-10.72919882 0.42220922 -5.70652824 -0.02033529 0 0 Z " fill="#565751" transform="translate(153.71435546875,15.725341796875)"/>
<path d="M0 0 C3.36445388 2.54607321 4.69261246 5.04358269 6 9 C6.62157604 17.9222061 4.0006515 25.67220548 -1 33 C-4.52219492 36.74322335 -7.75791304 38.64211054 -12.6875 40.0625 C-16.58471582 39.98896763 -18.08823127 39.58823887 -21 37 C-24.85196795 30.22584946 -24.75155824 24.29400318 -22.875 17 C-20.3725607 9.42284659 -16.00369549 3.73404659 -9.01953125 -0.21875 C-5.66195681 -1.51761826 -3.3605807 -1.09865138 0 0 Z " fill="#CFFEC5" transform="translate(71,71)"/>
<path d="M0 0 C1.51400391 0.01740234 1.51400391 0.01740234 3.05859375 0.03515625 C4.07050781 0.04417969 5.08242188 0.05320312 6.125 0.0625 C7.29869141 0.07990234 7.29869141 0.07990234 8.49609375 0.09765625 C8.49609375 2.07765625 8.49609375 4.05765625 8.49609375 6.09765625 C10.14609375 6.09765625 11.79609375 6.09765625 13.49609375 6.09765625 C13.49609375 7.74765625 13.49609375 9.39765625 13.49609375 11.09765625 C12.50609375 11.09765625 11.51609375 11.09765625 10.49609375 11.09765625 C10.49609375 17.03765625 10.49609375 22.97765625 10.49609375 29.09765625 C11.81609375 29.09765625 13.13609375 29.09765625 14.49609375 29.09765625 C14.49609375 23.48765625 14.49609375 17.87765625 14.49609375 12.09765625 C17.79609375 12.09765625 21.09609375 12.09765625 24.49609375 12.09765625 C24.49609375 13.08765625 24.49609375 14.07765625 24.49609375 15.09765625 C26.47609375 15.09765625 28.45609375 15.09765625 30.49609375 15.09765625 C30.49609375 21.36765625 30.49609375 27.63765625 30.49609375 34.09765625 C32.80609375 34.09765625 35.11609375 34.09765625 37.49609375 34.09765625 C37.49609375 35.08765625 37.49609375 36.07765625 37.49609375 37.09765625 C30.56609375 37.09765625 23.63609375 37.09765625 16.49609375 37.09765625 C16.49609375 36.10765625 16.49609375 35.11765625 16.49609375 34.09765625 C12.86609375 34.09765625 9.23609375 34.09765625 5.49609375 34.09765625 C5.49609375 29.47765625 5.49609375 24.85765625 5.49609375 20.09765625 C4.50609375 20.09765625 3.51609375 20.09765625 2.49609375 20.09765625 C2.49609375 21.74765625 2.49609375 23.39765625 2.49609375 25.09765625 C0.18609375 25.09765625 -2.12390625 25.09765625 -4.50390625 25.09765625 C-4.50390625 21.79765625 -4.50390625 18.49765625 -4.50390625 15.09765625 C-3.84390625 15.09765625 -3.18390625 15.09765625 -2.50390625 15.09765625 C-2.66632813 14.54464844 -2.82875 13.99164063 -2.99609375 13.421875 C-3.55671474 10.85595585 -3.63665958 8.53465948 -3.62890625 5.91015625 C-3.63148438 5.02972656 -3.6340625 4.14929688 -3.63671875 3.2421875 C-3.44351897 0.1225793 -3.14239825 0.12255843 0 0 Z " fill="#0B0B0B" transform="translate(277.50390625,64.90234375)"/>
<path d="M0 0 C3.8091641 2.70651133 5.60963151 4.54450098 7 9 C7.8383135 16.70078683 7.68822664 22.70019545 3 29 C3.66 29.99 4.32 30.98 5 32 C5 32.99 5 33.98 5 35 C-3.9094871 37.05771938 -12.92479796 38.0103608 -22 39 C-22 38.34 -22 37.68 -22 37 C-23.32 36.67 -24.64 36.34 -26 36 C-25.39671875 35.74605469 -24.7934375 35.49210937 -24.171875 35.23046875 C-18.03946914 32.90001179 -18.03946914 32.90001179 -13 29 C-12.41657647 25.45769191 -12.41657647 25.45769191 -13 22 C-16.41553261 19.72297826 -19.07030029 19.28175788 -23.0390625 18.5625 C-23.68617188 18.376875 -24.33328125 18.19125 -25 18 C-25.33 17.34 -25.66 16.68 -26 16 C-24.08114927 11.84249008 -22.119313 9.92818907 -18 8 C-16.40049233 7.52566324 -14.79569805 7.06898106 -13.1875 6.625 C-8.17826953 5.22061305 -4.22863331 2.9883917 0 0 Z " fill="#FBC884" transform="translate(253,151)"/>
<path d="M0 0 C1.09783813 -0.00315216 2.19567627 -0.00630432 3.32678223 -0.009552 C5.11892151 -0.00651566 5.11892151 -0.00651566 6.94726562 -0.00341797 C8.16426147 -0.00437469 9.38125732 -0.00533142 10.63513184 -0.00631714 C13.21427461 -0.00699919 15.79341909 -0.00514319 18.37255859 -0.00097656 C22.33630198 0.00437131 26.29993204 -0.00092076 30.26367188 -0.00732422 C32.76237004 -0.00666344 35.26106814 -0.00538229 37.75976562 -0.00341797 C38.95452515 -0.0054422 40.14928467 -0.00746643 41.38024902 -0.009552 C42.47808716 -0.00639984 43.57592529 -0.00324768 44.70703125 0 C46.16477966 0.00119339 46.16477966 0.00119339 47.65197754 0.00241089 C49.85351562 0.12939453 49.85351562 0.12939453 50.85351562 1.12939453 C50.95202733 2.96055336 50.98324192 4.79559386 50.97851562 6.62939453 C50.98238281 8.12986328 50.98238281 8.12986328 50.98632812 9.66064453 C50.85351562 12.12939453 50.85351562 12.12939453 49.85351562 13.12939453 C48.14032617 13.22821046 46.42306759 13.25738422 44.70703125 13.25878906 C43.60919312 13.26194122 42.51135498 13.26509338 41.38024902 13.26834106 C40.1854895 13.26631683 38.99072998 13.2642926 37.75976562 13.26220703 C36.54276978 13.26316376 35.32577393 13.26412048 34.07189941 13.2651062 C31.49275664 13.26578825 28.91361216 13.26393225 26.33447266 13.25976562 C22.37072927 13.25441776 18.40709921 13.25970982 14.44335938 13.26611328 C11.94466121 13.2654525 9.44596311 13.26417135 6.94726562 13.26220703 C5.15512634 13.26524338 5.15512634 13.26524338 3.32678223 13.26834106 C2.22894409 13.2651889 1.13110596 13.26203674 0 13.25878906 C-1.45774841 13.25759567 -1.45774841 13.25759567 -2.94494629 13.25637817 C-5.14648438 13.12939453 -5.14648438 13.12939453 -6.14648438 12.12939453 C-6.24499608 10.2982357 -6.27621067 8.4631952 -6.27148438 6.62939453 C-6.2740625 5.62908203 -6.27664062 4.62876953 -6.27929688 3.59814453 C-6.03996254 -0.85065832 -3.94512158 0.00322969 0 0 Z " fill="#F1F1F1" transform="translate(163.146484375,197.87060546875)"/>
<path d="M0 0 C4.91597313 2.78167204 7.91363254 6.4801612 9.56640625 11.859375 C10.93724166 18.62710295 10.31897171 23.95473009 7 30 C4.6904668 33.13436649 3.38955533 33.8845762 -0.375 35 C-4.8637752 35 -6.59853498 33.84773815 -10 31 C-13.03160925 26.45258612 -12.40791487 21.97662217 -12.4375 16.625 C-12.48680664 15.06265625 -12.48680664 15.06265625 -12.53710938 13.46875 C-12.59095982 5.81219604 -12.59095982 5.81219604 -9.68359375 1.81640625 C-6.05988951 -0.63631932 -4.29979426 -0.81547822 0 0 Z " fill="#C0FEC2" transform="translate(364,82)"/>
<path d="M0 0 C0.33 0 0.66 0 1 0 C1.33 36.63 1.66 73.26 2 111 C2.66 110.01 3.32 109.02 4 108 C4.00586624 108.97417374 4.01173248 109.94834747 4.01777649 110.95204163 C4.07507197 120.14761182 4.14786919 129.34294707 4.23571491 138.53827763 C4.28037909 143.26532844 4.31964392 147.99229385 4.34643555 152.71948242 C4.37250797 157.28432643 4.41293819 161.84884111 4.46318626 166.41348076 C4.47982837 168.15208263 4.49135916 169.89074143 4.49761391 171.6294117 C4.50728407 174.07107929 4.53537711 176.51190938 4.56762695 178.95336914 C4.56619186 179.66691055 4.56475677 180.38045197 4.5632782 181.11561584 C4.65699721 186.15611807 5.70152412 189.59919509 8 194 C10.296537 195.1482685 11.58313167 195.11561175 14.1328125 195.09765625 C14.93847656 195.09443359 15.74414062 195.09121094 16.57421875 195.08789062 C17.41597656 195.07951172 18.25773437 195.07113281 19.125 195.0625 C20.39923828 195.05573242 20.39923828 195.05573242 21.69921875 195.04882812 C23.79950909 195.03702874 25.8997633 195.01909306 28 195 C28 194.67 28 194.34 28 194 C34.93 194 41.86 194 49 194 C49 194.66 49 195.32 49 196 C60.55 196 72.1 196 84 196 C84.33 193.03 84.66 190.06 85 187 C87.0625 183.9375 87.0625 183.9375 89 182 C89.99 182.33 90.98 182.66 92 183 C90.73046875 184.30208333 89.4609375 185.60416667 88.19140625 186.90625 C86.91333242 189.15230761 86.70515693 190.58845268 86.42553711 193.13085938 C86.28510986 194.40767578 86.14468262 195.68449219 86 197 C75.93381153 197.11595537 65.86778247 197.20474653 55.80106163 197.25906086 C51.12641144 197.28513194 46.45221886 197.32048415 41.77783203 197.37719727 C37.26499574 197.4316064 32.75259902 197.46143927 28.23945999 197.47438622 C26.51945706 197.48361018 24.79947763 197.5016229 23.07966232 197.52865028 C20.66635294 197.56506071 18.25484936 197.56994061 15.84130859 197.56762695 C15.13352264 197.58560333 14.42573669 197.60357971 13.69650269 197.62210083 C9.95268846 197.58337935 7.53227978 196.99867982 4.63491821 194.71452332 C0.148834 190.09290731 -0.29157867 186.69216366 -0.24050903 180.3817749 C-0.24221788 179.61064936 -0.24392673 178.83952382 -0.24568737 178.04503083 C-0.24898349 175.45928821 -0.23797659 172.87380468 -0.22705078 170.28808594 C-0.22648669 168.4353028 -0.22680318 166.58251921 -0.22793579 164.72973633 C-0.2285104 159.69703679 -0.21673855 154.66443229 -0.20278788 149.63175488 C-0.19029857 144.37334358 -0.18911144 139.11493019 -0.18673706 133.85650635 C-0.180517 123.89764851 -0.16409905 113.93883449 -0.14403808 103.97999597 C-0.12169546 92.64276107 -0.11068977 81.30552411 -0.10064721 69.96827269 C-0.0797333 46.64549081 -0.04454708 23.32274786 0 0 Z " fill="#83CF99" transform="translate(137,34)"/>
<path d="M0 0 C7.59 0 15.18 0 23 0 C23 7.26 23 14.52 23 22 C15.41 22 7.82 22 0 22 C0 14.74 0 7.48 0 0 Z " fill="#0A0A0A" transform="translate(249,55)"/>
<path d="M0 0 C7.26 0 14.52 0 22 0 C22 7.26 22 14.52 22 22 C14.74 22 7.48 22 0 22 C0 14.74 0 7.48 0 0 Z " fill="#000000" transform="translate(305,55)"/>
<path d="M0 0 C1.65 0 3.3 0 5 0 C5 1.98 5 3.96 5 6 C5.99 6.33 6.98 6.66 8 7 C8 8.32 8 9.64 8 11 C6.02 11 4.04 11 2 11 C2 11.99 2 12.98 2 14 C3.98 14 5.96 14 8 14 C8 15.65 8 17.3 8 19 C-1.57 19 -11.14 19 -21 19 C-21 14.05 -21 9.1 -21 4 C-16.05 4 -11.1 4 -6 4 C-5.67 5.32 -5.34 6.64 -5 8 C-2.95163118 7.43637698 -2.95163118 7.43637698 -1 6 C-0.18415432 2.94091587 -0.18415432 2.94091587 0 0 Z " fill="#8AA791" transform="translate(181,124)"/>
<path d="M0 0 C7.59 0 15.18 0 23 0 C23 0.66 23 1.32 23 2 C16.07 2 9.14 2 2 2 C2 5.96 2 9.92 2 14 C4.64 14 7.28 14 10 14 C10 12.35 10 10.7 10 9 C16.6 9 23.2 9 30 9 C30 9.99 30 10.98 30 12 C31.32 12 32.64 12 34 12 C34 12.66 34 13.32 34 14 C34.66 14 35.32 14 36 14 C36 12.35 36 10.7 36 9 C38.64 9 41.28 9 44 9 C44 10.32 44 11.64 44 13 C43.01 13 42.02 13 41 13 C41 12.34 41 11.68 41 11 C40.01 11 39.02 11 38 11 C38 11.99 38 12.98 38 14 C38.99 14 39.98 14 41 14 C41 15.32 41 16.64 41 18 C38.36 17.67 35.72 17.34 33 17 C33 17.66 33 18.32 33 19 C33.99 19 34.98 19 36 19 C36 19.99 36 20.98 36 22 C34.68 22 33.36 22 32 22 C32 20.02 32 18.04 32 16 C25.73 16 19.46 16 13 16 C13 17.32 13 18.64 13 20 C15.64 20 18.28 20 21 20 C21.33 19.01 21.66 18.02 22 17 C22.66 17 23.32 17 24 17 C24 19.31 24 21.62 24 24 C19.38 24 14.76 24 10 24 C10 21.69 10 19.38 10 17 C7.36 17 4.72 17 2 17 C2 18.98 2 20.96 2 23 C1.34 23 0.68 23 0 23 C0 15.41 0 7.82 0 0 Z " fill="#FC2624" transform="translate(150,83)"/>
<path d="M0 0 C2.69030149 2.69030149 2.23656887 4.74937726 2.24884033 8.40458679 C2.24164978 9.30441788 2.23445923 10.20424896 2.22705078 11.13134766 C2.22734283 12.07773605 2.22763489 13.02412445 2.22793579 13.99919128 C2.2265388 17.13757391 2.21096024 20.27572118 2.1953125 23.4140625 C2.19158368 25.5859667 2.18873609 27.75787257 2.18673706 29.92977905 C2.17909027 35.65418112 2.15943281 41.37848216 2.1373291 47.10284424 C2.11689317 52.94094475 2.10774017 58.77906155 2.09765625 64.6171875 C2.0761879 76.07816946 2.04203937 87.53907634 2 99 C0.02 99.99 0.02 99.99 -2 101 C-2.04633004 88.56952399 -2.08187266 76.1390685 -2.10362434 63.70852375 C-2.11406378 57.93659224 -2.12822601 52.16471979 -2.15087891 46.39282227 C-2.17260142 40.82316189 -2.18456743 35.25355834 -2.18975449 29.68385887 C-2.19345129 27.55838311 -2.20067015 25.43291047 -2.21146011 23.30745888 C-2.22596702 20.33161307 -2.22797826 17.3560024 -2.22705078 14.38012695 C-2.23424133 13.50043243 -2.24143188 12.62073792 -2.24884033 11.71438599 C-2.23412843 7.35521699 -2.0440575 3.96810896 0 0 Z " fill="#454545" transform="translate(239,30)"/>
<path d="M0 0 C7.59 0 15.18 0 23 0 C23 7.59 23 15.18 23 23 C18.38 23 13.76 23 9 23 C8.67 21.35 8.34 19.7 8 18 C10.97 18 13.94 18 17 18 C17 14.04 17 10.08 17 6 C13.04 6 9.08 6 5 6 C5 8.64 5 11.28 5 14 C2.525 13.01 2.525 13.01 0 12 C0 8.04 0 4.08 0 0 Z " fill="#0F0F0F" transform="translate(249,110)"/>
<path d="M0 0 C7.59 0 15.18 0 23 0 C23 7.59 23 15.18 23 23 C22.34 23 21.68 23 21 23 C21 21.02 21 19.04 21 17 C18.69 17 16.38 17 14 17 C14 19.31 14 21.62 14 24 C9.05 24 4.1 24 -1 24 C-1 21.69 -1 19.38 -1 17 C2.82989106 15.19769832 5.78121808 14.80377759 10 15 C10 14.01 10 13.02 10 12 C7.36 12 4.72 12 2 12 C2 12.99 2 13.98 2 15 C1.01 15 0.02 15 -1 15 C-1 13.02 -1 11.04 -1 9 C3.62 9 8.24 9 13 9 C13 10.98 13 12.96 13 15 C15.64 15 18.28 15 21 15 C21 10.71 21 6.42 21 2 C14.07 2 7.14 2 0 2 C0 1.34 0 0.68 0 0 Z " fill="#E94841" transform="translate(197,83)"/>
<path d="M0 0 C1.65 0 3.3 0 5 0 C5 1.98 5 3.96 5 6 C6.32 6 7.64 6 9 6 C9 10.29 9 14.58 9 19 C10.65 19 12.3 19 14 19 C14 19.33 14 19.66 14 20 C6.58165418 20.09377123 -0.66236293 20.17402193 -8 19 C-8.33 17.02 -8.66 15.04 -9 13 C-10.65 13 -12.3 13 -14 13 C-14.04241723 10.66705225 -14.04092937 8.33297433 -14 6 C-13 5 -13 5 -11.15234375 4.90234375 C-9.1015625 4.93489583 -7.05078125 4.96744792 -5 5 C-5 8.63 -5 12.26 -5 16 C-3.68 16 -2.36 16 -1 16 C-1.01160156 15.18015625 -1.02320313 14.3603125 -1.03515625 13.515625 C-1.04869141 11.89914063 -1.04869141 11.89914063 -1.0625 10.25 C-1.07990234 8.64898437 -1.07990234 8.64898437 -1.09765625 7.015625 C-1.01510087 4.46631499 -0.74617558 2.42066409 0 0 Z " fill="#600C0C" transform="translate(189,102)"/>
<path d="M0 0 C3.1875 2.1875 3.1875 2.1875 5 5 C5.1875 7.5 5.1875 7.5 4 10 C0.09257855 14.29816359 -3.12444461 15.8680247 -8.9453125 16.19140625 C-11 16 -11 16 -13.5 14.5 C-15.47804222 11.20326297 -16 8.84459456 -16 5 C-11.72894544 -0.59655425 -6.66206576 -0.92934773 0 0 Z " fill="#FDEBCA" transform="translate(236,197)"/>
<path d="M0 0 C2.5625 1.0625 2.5625 1.0625 4 3 C4.75 6.3125 4.75 6.3125 4 10 C1.22183079 13.2793853 -1.9624732 15.51993523 -6.171875 16.51171875 C-9.49610836 16.69292696 -11.685719 16.19642562 -14.5 14.4375 C-16.60020266 11.02467068 -16.63210717 8.93311127 -16 5 C-10.99764594 -0.00235406 -6.81693201 -0.64173605 0 0 Z " fill="#FDEBCB" transform="translate(237,170)"/>
<path d="M0 0 C2.125 1.75 2.125 1.75 3 4 C2.91821548 7.27138096 2.27811282 8.6643466 0.1875 11.1875 C-4.19113057 14.81550819 -7.22607692 15.5249021 -13 15 C-14.875 13.9375 -14.875 13.9375 -16 12 C-16.9375 8.5625 -16.9375 8.5625 -17 5 C-12.51374379 -1.14783258 -6.9943364 -1.82460949 0 0 Z " fill="#FDEACB" transform="translate(238,143)"/>
<path d="M0 0 C2.125 1.9375 2.125 1.9375 2.75 5.375 C2.125 8.9375 2.125 8.9375 -0.1875 11.3125 C-4.50611621 13.92375631 -7.86619348 14.38471487 -12.875 13.9375 C-14.8125 12.4375 -14.8125 12.4375 -15.875 9.9375 C-16.10344671 7.21690731 -16.01204173 4.6783346 -15.875 1.9375 C-10.21938185 -0.77719671 -6.17310988 -2.2813667 0 0 Z " fill="#FDEBCB" transform="translate(240.875,221.0625)"/>
<path d="M0 0 C3.96 0 7.92 0 12 0 C12 2.97 12 5.94 12 9 C14.64 9 17.28 9 20 9 C20 9.99 20 10.98 20 12 C18.35 12 16.7 12 15 12 C15 13.65 15 15.3 15 17 C13.68 17 12.36 17 11 17 C11 17.66 11 18.32 11 19 C9.02 19 7.04 19 5 19 C5 16.03 5 13.06 5 10 C3.35 10 1.7 10 0 10 C0 6.7 0 3.4 0 0 Z " fill="#060606" transform="translate(294,103)"/>
<path d="M0 0 C0.33 0 0.66 0 1 0 C1.02316114 8.03198028 1.04093436 16.06394662 1.05181217 24.09595203 C1.05703273 27.82545462 1.0641154 31.55493438 1.07543945 35.28442383 C1.08629767 38.88297945 1.09228308 42.4815131 1.09487724 46.08008385 C1.09672619 47.45361362 1.10033666 48.82714218 1.10573006 50.20066261 C1.11297928 52.12310236 1.11340839 54.04556417 1.11352539 55.96801758 C1.115746 57.06277908 1.11796661 58.15754059 1.12025452 59.28547668 C1 62 1 62 0 65 C-0.22718496 67.56634861 -0.41608184 70.11678107 -0.5625 72.6875 C-0.60568359 73.38939453 -0.64886719 74.09128906 -0.69335938 74.81445312 C-0.7991736 76.54275206 -0.90006581 78.2713511 -1 80 C-1.33 80 -1.66 80 -2 80 C-2.0463024 70.01227883 -2.08185853 60.02458311 -2.10362434 50.03677654 C-2.11406985 45.39923504 -2.12824303 40.76176687 -2.15087891 36.12426758 C-2.17257995 31.65038645 -2.18456285 27.17657594 -2.18975449 22.70264626 C-2.19345517 20.99417827 -2.20068152 19.28571422 -2.21146011 17.57727623 C-2.22593871 15.18774379 -2.22797948 12.79850466 -2.22705078 10.40893555 C-2.23424133 9.69971451 -2.24143188 8.99049347 -2.24884033 8.25978088 C-2.23342481 4.60393109 -2.08851622 3.13277433 0 0 Z " fill="#ACFEBB" transform="translate(140,80)"/>
<path d="M0 0 C5.28 0 10.56 0 16 0 C16 5.94 16 11.88 16 18 C13.69 18 11.38 18 9 18 C9 14.7 9 11.4 9 8 C6.03 8 3.06 8 0 8 C0 5.36 0 2.72 0 0 Z " fill="#040404" transform="translate(311,80)"/>
<path d="M0 0 C4.62 0 9.24 0 14 0 C14 4.62 14 9.24 14 14 C9.38 14 4.76 14 0 14 C0 9.38 0 4.76 0 0 Z " fill="#020101" transform="translate(160,128)"/>
<path d="M0 0 C1.51400391 0.01740234 1.51400391 0.01740234 3.05859375 0.03515625 C4.07050781 0.04417969 5.08242188 0.05320312 6.125 0.0625 C7.29869141 0.07990234 7.29869141 0.07990234 8.49609375 0.09765625 C8.49609375 2.07765625 8.49609375 4.05765625 8.49609375 6.09765625 C10.14609375 6.09765625 11.79609375 6.09765625 13.49609375 6.09765625 C13.49609375 7.74765625 13.49609375 9.39765625 13.49609375 11.09765625 C12.50609375 11.09765625 11.51609375 11.09765625 10.49609375 11.09765625 C10.49609375 17.03765625 10.49609375 22.97765625 10.49609375 29.09765625 C11.81609375 29.42765625 13.13609375 29.75765625 14.49609375 30.09765625 C12.84609375 30.09765625 11.19609375 30.09765625 9.49609375 30.09765625 C9.49609375 24.15765625 9.49609375 18.21765625 9.49609375 12.09765625 C6.55703125 12.12859375 6.55703125 12.12859375 3.55859375 12.16015625 C1.53776499 12.18142813 -0.48426426 12.17009678 -2.50390625 12.09765625 C-3.50390625 11.09765625 -3.50390625 11.09765625 -3.63671875 8.84765625 C-3.63414062 7.94015625 -3.6315625 7.03265625 -3.62890625 6.09765625 C-3.63148438 5.19015625 -3.6340625 4.28265625 -3.63671875 3.34765625 C-3.44818505 0.15367356 -3.21403411 0.12535234 0 0 Z " fill="#B5B5B5" transform="translate(277.50390625,64.90234375)"/>
<path d="M0 0 C4.62 0 9.24 0 14 0 C14 2.31 14 4.62 14 7 C13.01 7 12.02 7 11 7 C11 7.66 11 8.32 11 9 C11.99 9 12.98 9 14 9 C14 10.65 14 12.3 14 14 C9.20699867 15.39151652 4.84864218 14.68662689 0 14 C0 13.01 0 12.02 0 11 C1.98 10.67 3.96 10.34 6 10 C6 9.01 6 8.02 6 7 C5.34 7 4.68 7 4 7 C4 7.99 4 8.98 4 10 C2.68 10 1.36 10 0 10 C0 6.7 0 3.4 0 0 Z " fill="#A59F89" transform="translate(160,112)"/>
<path d="M0 0 C4.875 1.75 4.875 1.75 6 4 C3.00853442 5.49573279 -0.05899662 5.14733589 -3.33959961 5.14526367 C-4.09585129 5.14862228 -4.85210297 5.1519809 -5.63127136 5.15544128 C-8.13831207 5.16496242 -10.64528608 5.16689495 -13.15234375 5.16796875 C-14.89107796 5.17118042 -16.6298119 5.17454443 -18.36854553 5.17805481 C-22.01612983 5.18404892 -25.66369042 5.18589441 -29.3112793 5.18530273 C-33.99005499 5.18520107 -38.66867905 5.19885614 -43.34741879 5.21607494 C-46.93930258 5.2271817 -50.53114957 5.22922235 -54.12304878 5.22869301 C-55.8482573 5.22987502 -57.57346671 5.23430911 -59.29865837 5.24202538 C-61.70954958 5.25179902 -64.12010956 5.24895777 -66.53100586 5.24291992 C-67.24643555 5.24853943 -67.96186523 5.25415894 -68.69897461 5.25994873 C-72.36356662 5.23657199 -73.86163164 5.09224558 -77 3 C-75.34339355 3.00870117 -75.34339355 3.00870117 -73.65332031 3.01757812 C-58.34799588 3.07094254 -43.05202501 2.7917842 -27.75 2.5 C-25.14323229 2.45165442 -22.53646146 2.40347624 -19.9296875 2.35546875 C-13.61975459 2.23890456 -7.30986291 2.12029101 -1 2 C-0.67 1.34 -0.34 0.68 0 0 Z " fill="#23262D" transform="translate(223,234)"/>
<path d="M0 0 C6.6 0 13.2 0 20 0 C20 0.99 20 1.98 20 3 C21.32 3 22.64 3 24 3 C24 3.66 24 4.32 24 5 C24.66 5 25.32 5 26 5 C26 3.35 26 1.7 26 0 C28.64 0 31.28 0 34 0 C34 1.32 34 2.64 34 4 C33.01 4 32.02 4 31 4 C31 3.34 31 2.68 31 2 C30.01 2 29.02 2 28 2 C28 2.99 28 3.98 28 5 C28.99 5 29.98 5 31 5 C31 6.32 31 7.64 31 9 C28.36 8.67 25.72 8.34 23 8 C23 8.66 23 9.32 23 10 C23.99 10 24.98 10 26 10 C26 10.99 26 11.98 26 13 C24.68 13 23.36 13 22 13 C22 11.02 22 9.04 22 7 C16.555 6.505 16.555 6.505 11 6 C11 5.01 11 4.02 11 3 C8.36 3 5.72 3 3 3 C3 3.99 3 4.98 3 6 C2.01 6 1.02 6 0 6 C0 4.02 0 2.04 0 0 Z " fill="#E12B2C" transform="translate(160,92)"/>
<path d="M0 0 C3.19871704 4.26495606 5.0590702 8.08297783 7 13 C7.495 13.99 7.495 13.99 8 15 C7.01 15 6.02 15 5 15 C4.505 13.02 4.505 13.02 4 11 C2.89857666 11.98468262 2.89857666 11.98468262 1.77490234 12.98925781 C-3.13852406 16.2383638 -8.73887339 15.38108656 -14.3984375 15.171875 C-15.58853424 15.14401917 -16.77863098 15.11616333 -18.00479126 15.08746338 C-21.79565563 14.99429973 -25.58498259 14.87253765 -29.375 14.75 C-31.94916933 14.68170505 -34.52338893 14.61527707 -37.09765625 14.55078125 C-43.39918048 14.3888251 -49.69968465 14.20339955 -56 14 C-56 13.34 -56 12.68 -56 12 C-28.775 11.505 -28.775 11.505 -1 11 C-0.67 7.37 -0.34 3.74 0 0 Z " fill="#A7FCC8" transform="translate(214,199)"/>
<path d="M0 0 C2.31 0 4.62 0 7 0 C7 1.98 7 3.96 7 6 C7.99 6 8.98 6 10 6 C10 4.02 10 2.04 10 0 C11.65 0 13.3 0 15 0 C15 3.63 15 7.26 15 11 C10.05 11 5.1 11 0 11 C0 7.37 0 3.74 0 0 Z " fill="#C5C5C5" transform="translate(249,96)"/>
<path d="M0 0 C0.99 0.33 1.98 0.66 3 1 C1.09570312 2.953125 1.09570312 2.953125 -0.80859375 4.90625 C-2.61475399 7.76947342 -2.61475399 7.76947342 -3 15 C-28.08 15 -53.16 15 -79 15 C-79 14.67 -79 14.34 -79 14 C-73.06 13.67 -67.12 13.34 -61 13 C-61 12.67 -61 12.34 -61 12 C-54.07 12 -47.14 12 -40 12 C-40 12.66 -40 13.32 -40 14 C-28.45 14 -16.9 14 -5 14 C-4.67 11.03 -4.34 8.06 -4 5 C-1.9375 1.9375 -1.9375 1.9375 0 0 Z " fill="#A9FED2" transform="translate(226,216)"/>
<path d="M0 0 C3.96 0 7.92 0 12 0 C12 3.96 12 7.92 12 12 C8.04 12 4.08 12 0 12 C0 8.04 0 4.08 0 0 Z " fill="#FAFAFA" transform="translate(310,60)"/>
<path d="M0 0 C0.33 0 0.66 0 1 0 C2.30734434 11.23107539 2.11285861 22.46207013 2.0625 33.75 C2.05747437 35.71874886 2.05291335 37.68749896 2.04882812 39.65625 C2.03790809 44.43753118 2.02070218 49.21875158 2 54 C1.01 53.67 0.02 53.34 -1 53 C-1.02540371 46.41634955 -1.04288948 39.83271179 -1.05493164 33.24902344 C-1.05995313 31.01041186 -1.06677158 28.77180355 -1.07543945 26.53320312 C-1.08760069 23.3111897 -1.09325024 20.08921973 -1.09765625 16.8671875 C-1.10539818 15.37153763 -1.10539818 15.37153763 -1.11329651 13.84567261 C-1.11367654 9.11351773 -0.99028154 4.65329527 0 0 Z " fill="#454444" transform="translate(131,67)"/>
<path d="M0 0 C3.63 0 7.26 0 11 0 C11 3.96 11 7.92 11 12 C7.37 12 3.74 12 0 12 C0 8.04 0 4.08 0 0 Z " fill="#F8F8F8" transform="translate(255,60)"/>
<path d="M0 0 C7.26 0 14.52 0 22 0 C22 3.63 22 7.26 22 11 C20.68 11 19.36 11 18 11 C18 8.36 18 5.72 18 3 C15.69 3 13.38 3 11 3 C11 3.99 11 4.98 11 6 C7.37 6 3.74 6 0 6 C0 4.02 0 2.04 0 0 Z " fill="#151515" transform="translate(249,86)"/>
<path d="M0 0 C2.31 0 4.62 0 7 0 C7 6.6 7 13.2 7 20 C5.35 20 3.7 20 2 20 C2 18.02 2 16.04 2 14 C1.34 14 0.68 14 0 14 C0 9.38 0 4.76 0 0 Z " fill="#060606" transform="translate(273,93)"/>
<path d="M0 0 C3.96 0 7.92 0 12 0 C12 2.31 12 4.62 12 7 C10.35 7 8.7 7 7 7 C7 8.98 7 10.96 7 13 C4.69 13 2.38 13 0 13 C0 8.71 0 4.42 0 0 Z " fill="#1C1C1C" transform="translate(290,55)"/>
<path d="M0 0 C-1.32 0.33 -2.64 0.66 -4 1 C-4 2.98 -4 4.96 -4 7 C-2.68 7 -1.36 7 0 7 C0.33 6.01 0.66 5.02 1 4 C1 5.32 1 6.64 1 8 C0.34 8 -0.32 8 -1 8 C-1 11.96 -1 15.92 -1 20 C-1.33 20 -1.66 20 -2 20 C-2 16.37 -2 12.74 -2 9 C-4.64 9 -7.28 9 -10 9 C-10 6.69 -10 4.38 -10 2 C-10.99 2 -11.98 2 -13 2 C-13.33 2.99 -13.66 3.98 -14 5 C-16.97 5 -19.94 5 -23 5 C-23 3.68 -23 2.36 -23 1 C-15.34916042 -0.24911667 -7.72559014 -0.09053426 0 0 Z " fill="#F82729" transform="translate(186,98)"/>
<path d="M0 0 C4.29 0 8.58 0 13 0 C13 2.31 13 4.62 13 7 C17.95 7 22.9 7 28 7 C28 4.69 28 2.38 28 0 C29.98 0 31.96 0 34 0 C34 0.66 34 1.32 34 2 C32.35 2 30.7 2 29 2 C29 3.98 29 5.96 29 8 C24.71 8 20.42 8 16 8 C16 11.96 16 15.92 16 20 C15.67 20 15.34 20 15 20 C15 16.04 15 12.08 15 8 C13.68 8 12.36 8 11 8 C11 6.02 11 4.04 11 2 C9.35 2 7.7 2 6 2 C5.67 7.28 5.34 12.56 5 18 C4.01 18 3.02 18 2 18 C2 14.04 2 10.08 2 6 C2.66 6 3.32 6 4 6 C4 4.68 4 3.36 4 2 C2.68 2 1.36 2 0 2 C0 1.34 0 0.68 0 0 Z " fill="#F7FBE2" transform="translate(183,100)"/>
<path d="M0 0 C0.33 1.32 0.66 2.64 1 4 C1.99 4 2.98 4 4 4 C4 2.68 4 1.36 4 0 C4.99 0 5.98 0 7 0 C7 1.65 7 3.3 7 5 C8.98 5 10.96 5 13 5 C13 5.66 13 6.32 13 7 C12.01 7 11.02 7 10 7 C10.04125 8.2375 10.0825 9.475 10.125 10.75 C10.13658291 14.01637962 9.8568702 16.2146947 8 19 C6.35 19 4.7 19 3 19 C3 14.71 3 10.42 3 6 C2.01 6 1.02 6 0 6 C0 4.02 0 2.04 0 0 Z " fill="#110908" transform="translate(189,124)"/>
<path d="M0 0 C3.63 0 7.26 0 11 0 C11 3.63 11 7.26 11 11 C7.37 11 3.74 11 0 11 C0 7.37 0 3.74 0 0 Z " fill="#F3F3F3" transform="translate(255,116)"/>
<path d="M0 0 C7.26 0 14.52 0 22 0 C22 1.65 22 3.3 22 5 C14.74 5 7.48 5 0 5 C0 3.35 0 1.7 0 0 Z " fill="#1B1B1B" transform="translate(249,80)"/>
<path d="M0 0 C0.99 0 1.98 0 3 0 C3 6.93 3 13.86 3 21 C9.6 21 16.2 21 23 21 C23 21.66 23 22.32 23 23 C15.41 23 7.82 23 0 23 C0 15.41 0 7.82 0 0 Z " fill="#2B362C" transform="translate(150,128)"/>
<path d="M0 0 C3.35111834 2.23407889 4.81553956 3.26215824 5.8125 7.25 C5.874375 8.1575 5.93625 9.065 6 10 C2.25 11.125 2.25 11.125 0 10 C-2.54615009 9.76827173 -5.07396225 9.58105471 -7.625 9.4375 C-8.33140625 9.39431641 -9.0378125 9.35113281 -9.765625 9.30664062 C-11.51018537 9.20055249 -13.25506697 9.09977111 -15 9 C-12.0889878 6.67933294 -9.16348341 4.98861978 -5.8125 3.375 C-2.68874848 2.00424981 -2.68874848 2.00424981 0 0 Z " fill="#F9AB6B" transform="translate(253,151)"/>
<path d="M0 0 C1.32 0 2.64 0 4 0 C4.33 2.64 4.66 5.28 5 8 C3.68 8 2.36 8 1 8 C1 13.61 1 19.22 1 25 C-0.32 25 -1.64 25 -3 25 C-3 19.06 -3 13.12 -3 7 C-2.01 7 -1.02 7 0 7 C0 4.69 0 2.38 0 0 Z " fill="#FEFEFE" transform="translate(291,69)"/>
<path d="M0 0 C1.65 0 3.3 0 5 0 C5 1.98 5 3.96 5 6 C6.32 6 7.64 6 9 6 C9 7.32 9 8.64 9 10 C8.34 10 7.68 10 7 10 C7 10.99 7 11.98 7 13 C6.01 13 5.02 13 4 13 C4 13.66 4 14.32 4 15 C3.01 15 2.02 15 1 15 C1 14.01 1 13.02 1 12 C0.34 12 -0.32 12 -1 12 C-1.14285714 3.42857143 -1.14285714 3.42857143 0 0 Z " fill="#AC1E1D" transform="translate(189,102)"/>
<path d="M0 0 C2.97 0 5.94 0 9 0 C9 0.99 9 1.98 9 3 C7.02 3 5.04 3 3 3 C3 3.99 3 4.98 3 6 C4.98 6 6.96 6 9 6 C9 7.65 9 9.3 9 11 C4.71 11 0.42 11 -4 11 C-4 9.68 -4 8.36 -4 7 C-2.68 7 -1.36 7 0 7 C0 4.69 0 2.38 0 0 Z " fill="#3D4F41" transform="translate(180,132)"/>
<path d="M0 0 C1.32 0 2.64 0 4 0 C4 5.28 4 10.56 4 16 C1.03 16 -1.94 16 -5 16 C-5 14.02 -5 12.04 -5 10 C-3.35 10 -1.7 10 0 10 C0 6.7 0 3.4 0 0 Z " fill="#111111" transform="translate(280,117)"/>
<path d="M0 0 C0.99386719 0.00902344 1.98773438 0.01804687 3.01171875 0.02734375 C4.15060547 0.04474609 4.15060547 0.04474609 5.3125 0.0625 C5.3125 0.3925 5.3125 0.7225 5.3125 1.0625 C4.075 1.145 2.8375 1.2275 1.5625 1.3125 C-2.48493242 1.78992601 -3.94433299 3.02542223 -6.6875 6.0625 C-8.0075 6.0625 -9.3275 6.0625 -10.6875 6.0625 C-11.0175 19.2625 -11.3475 32.4625 -11.6875 46.0625 C-12.0175 46.0625 -12.3475 46.0625 -12.6875 46.0625 C-12.8304338 40.84807719 -12.97283657 35.63364024 -13.11474609 30.41918945 C-13.16310241 28.64509692 -13.21160412 26.87100834 -13.26025391 25.09692383 C-13.33013475 22.54769906 -13.39949361 19.99846055 -13.46875 17.44921875 C-13.49062378 16.65537277 -13.51249756 15.86152679 -13.53503418 15.04362488 C-13.77515164 6.16199646 -13.77515164 6.16199646 -11.375 3.4375 C-7.55314297 0.06004495 -4.92593303 -0.05795215 0 0 Z " fill="#BCF7BB" transform="translate(152.6875,23.9375)"/>
<path d="M0 0 C0 0.33 0 0.66 0 1 C-12.87 1 -25.74 1 -39 1 C-29.45197971 -5.36534686 -10.58283321 -2.51118076 0 0 Z " fill="#BFFEC2" transform="translate(226,273)"/>
<path d="M0 0 C3.3 0 6.6 0 10 0 C10 1.98 10 3.96 10 6 C8.02 6 6.04 6 4 6 C4 7.98 4 9.96 4 12 C2.68 12 1.36 12 0 12 C0 8.04 0 4.08 0 0 Z " fill="#111111" transform="translate(317,121)"/>
<path d="M0 0 C4.875 1.75 4.875 1.75 6 4 C2.63747397 5.02668449 -0.3645753 5.08914278 -3.87011719 5.02172852 C-5.05103943 5.00163223 -6.23196167 4.98153595 -7.44866943 4.96083069 C-9.35353119 4.92027809 -9.35353119 4.92027809 -11.296875 4.87890625 C-12.60078186 4.85529526 -13.90468872 4.83168427 -15.24810791 4.80735779 C-18.70711335 4.74466232 -22.16596191 4.67555497 -25.62481689 4.60510254 C-29.15735762 4.53428737 -32.69000917 4.46954943 -36.22265625 4.40429688 C-43.14855794 4.27547212 -50.07431285 4.13987187 -57 4 C-57 3.67 -57 3.34 -57 3 C-38.52 2.67 -20.04 2.34 -1 2 C-0.67 1.34 -0.34 0.68 0 0 Z " fill="#313439" transform="translate(223,234)"/>
<path d="M0 0 C2.31 0 4.62 0 7 0 C7 3.3 7 6.6 7 10 C5.68 10 4.36 10 3 10 C3 11.32 3 12.64 3 14 C2.01 14 1.02 14 0 14 C0 9.38 0 4.76 0 0 Z " fill="#7DA789" transform="translate(204,129)"/>
<path d="M0 0 C3.3 0 6.6 0 10 0 C10 3.63 10 7.26 10 11 C8.35 11 6.7 11 5 11 C5 8.69 5 6.38 5 4 C3.35 4 1.7 4 0 4 C0 2.68 0 1.36 0 0 Z " fill="#831010" transform="translate(200,109)"/>
<path d="M0 0 C2.05078125 0.03255208 4.1015625 0.06510417 6.15234375 0.09765625 C5.93578125 1.36609375 5.93578125 1.36609375 5.71484375 2.66015625 C5.14646405 6.13358774 4.64031982 9.61211287 4.15234375 13.09765625 C6.46234375 13.09765625 8.77234375 13.09765625 11.15234375 13.09765625 C11.15234375 13.42765625 11.15234375 13.75765625 11.15234375 14.09765625 C8.51234375 14.09765625 5.87234375 14.09765625 3.15234375 14.09765625 C2.82234375 12.11765625 2.49234375 10.13765625 2.15234375 8.09765625 C0.50234375 8.09765625 -1.14765625 8.09765625 -2.84765625 8.09765625 C-2.89007348 5.7647085 -2.88858562 3.43063058 -2.84765625 1.09765625 C-1.84765625 0.09765625 -1.84765625 0.09765625 0 0 Z " fill="#A12B27" transform="translate(177.84765625,106.90234375)"/>
<path d="M0 0 C7.59 0 15.18 0 23 0 C23 4.95 23 9.9 23 15 C22.34 15 21.68 15 21 15 C21 10.71 21 6.42 21 2 C14.07 2 7.14 2 0 2 C0 1.34 0 0.68 0 0 Z " fill="#191C17" transform="translate(197,83)"/>
<path d="M0 0 C7.59 0 15.18 0 23 0 C23 0.66 23 1.32 23 2 C16.07 2 9.14 2 2 2 C2 6.29 2 10.58 2 15 C1.34 15 0.68 15 0 15 C0 10.05 0 5.1 0 0 Z " fill="#242721" transform="translate(150,83)"/>
<path d="M0 0 C-0.99 1.485 -0.99 1.485 -2 3 C-4.97 2.505 -4.97 2.505 -8 2 C-8 2.99 -8 3.98 -8 5 C-5.36 5 -2.72 5 0 5 C0.33 4.01 0.66 3.02 1 2 C3 4 3 4 3 8 C-1.62 8 -6.24 8 -11 8 C-11 6.02 -11 4.04 -11 2 C-7.17010894 0.19769832 -4.21878192 -0.19622241 0 0 Z " fill="#E11D1F" transform="translate(207,98)"/>
<path d="M0 0 C0.99 0 1.98 0 3 0 C3 0.99 3 1.98 3 3 C5.64 3 8.28 3 11 3 C11.33 2.01 11.66 1.02 12 0 C12.66 0 13.32 0 14 0 C14 2.31 14 4.62 14 7 C9.38 7 4.76 7 0 7 C0 4.69 0 2.38 0 0 Z " fill="#D3443D" transform="translate(160,100)"/>
<path d="M0 0 C-1.49835228 4.66154042 -4.88463591 5.86610751 -9 8 C-9 8.99 -9 9.98 -9 11 C-10.2065625 12.11375 -10.2065625 12.11375 -11.4375 13.25 C-14.50695055 16.54404449 -14.74042213 18.5871762 -15 23 C-17.26385938 19.60421093 -17.23206396 17.94202939 -16.58984375 13.98046875 C-15.59386643 10.63635948 -13.67836889 9.17617472 -11 7 C-10.25363281 6.38640625 -9.50726563 5.7728125 -8.73828125 5.140625 C-2.353625 0 -2.353625 0 0 0 Z " fill="#F8DC95" transform="translate(236,132)"/>
<path d="M0 0 C2.64 0 5.28 0 8 0 C8 2.64 8 5.28 8 8 C5.36 8 2.72 8 0 8 C0 5.36 0 2.72 0 0 Z " fill="#99B8A0" transform="translate(163,131)"/>
<path d="M0 0 C2.64 0 5.28 0 8 0 C8 2.64 8 5.28 8 8 C5.36 8 2.72 8 0 8 C0 5.36 0 2.72 0 0 Z " fill="#0C0C0C" transform="translate(286,125)"/>
<path d="M0 0 C2 1 2 1 2.61889648 2.79199219 C3.00392085 5.02271632 3.11381451 7.06596839 3.09765625 9.328125 C3.09282227 10.52695313 3.09282227 10.52695313 3.08789062 11.75 C3.07951172 12.575 3.07113281 13.4 3.0625 14.25 C3.05798828 15.09046875 3.05347656 15.9309375 3.04882812 16.796875 C3.03707961 18.86461401 3.01914522 20.93231624 3 23 C2.01 23 1.02 23 0 23 C0 15.41 0 7.82 0 0 Z " fill="#262526" transform="translate(234,108)"/>
<path d="M0 0 C3.96 0 7.92 0 12 0 C12 3.96 12 7.92 12 12 C11.67 12 11.34 12 11 12 C11 8.37 11 4.74 11 1 C7.7 1 4.4 1 1 1 C1 2.32 1 3.64 1 5 C2.65 5 4.3 5 6 5 C5.34 7.64 4.68 10.28 4 13 C2.35 13 0.7 13 -1 13 C-0.67 8.71 -0.34 4.42 0 0 Z " fill="#BDA289" transform="translate(199,108)"/>
<path d="M0 0 C2.97 0 5.94 0 9 0 C9 2.31 9 4.62 9 7 C6.03 7 3.06 7 0 7 C0 4.69 0 2.38 0 0 Z " fill="#040404" transform="translate(318,99)"/>
<path d="M0 0 C1.65 0 3.3 0 5 0 C5 4.29 5 8.58 5 13 C3.68 13 2.36 13 1 13 C0.1276588 10.00519083 -0.10829766 7.36424089 -0.0625 4.25 C-0.05347656 3.45078125 -0.04445312 2.6515625 -0.03515625 1.828125 C-0.02355469 1.22484375 -0.01195312 0.6215625 0 0 Z " fill="#441713" transform="translate(175,117)"/>
<path d="M0 0 C4.95 0 9.9 0 15 0 C15 1.32 15 2.64 15 4 C10.05 4 5.1 4 0 4 C0 2.68 0 1.36 0 0 Z " fill="#040404" transform="translate(249,103)"/>
<path d="M0 0 C4.62 0 9.24 0 14 0 C14 1.98 14 3.96 14 6 C13.01 6 12.02 6 11 6 C11 5.01 11 4.02 11 3 C8.36 3 5.72 3 3 3 C3 3.99 3 4.98 3 6 C2.01 6 1.02 6 0 6 C0 4.02 0 2.04 0 0 Z " fill="#0D0202" transform="translate(196,92)"/>
<path d="M0 0 C4.62 0 9.24 0 14 0 C14 1.98 14 3.96 14 6 C13.01 6 12.02 6 11 6 C11 5.01 11 4.02 11 3 C8.36 3 5.72 3 3 3 C3 3.99 3 4.98 3 6 C2.01 6 1.02 6 0 6 C0 4.02 0 2.04 0 0 Z " fill="#0C0202" transform="translate(160,92)"/>
<path d="M0 0 C1.32 0 2.64 0 4 0 C4.33 3.63 4.66 7.26 5 11 C6.32 11.33 7.64 11.66 9 12 C7.68 12.33 6.36 12.66 5 13 C5 14.65 5 16.3 5 18 C4.67 18 4.34 18 4 18 C4 15.03 4 12.06 4 9 C-0.95 9 -5.9 9 -11 9 C-11 8.34 -11 7.68 -11 7 C-6.38 7 -1.76 7 3 7 C3 5.35 3 3.7 3 2 C2.01 2 1.02 2 0 2 C0 1.34 0 0.68 0 0 Z " fill="#DCFADF" transform="translate(171,119)"/>
<path d="M0 0 C1.98 0 3.96 0 6 0 C6 0.99 6 1.98 6 3 C6.66 3 7.32 3 8 3 C8 4.65 8 6.3 8 8 C5.36 8 2.72 8 0 8 C0 5.36 0 2.72 0 0 Z " fill="#090909" transform="translate(299,125)"/>
<path d="M0 0 C4.62 0 9.24 0 14 0 C14 2.31 14 4.62 14 7 C13.01 7 12.02 7 11 7 C11 5.35 11 3.7 11 2 C9.68 2 8.36 2 7 2 C7 2.66 7 3.32 7 4 C4.69 4 2.38 4 0 4 C0 2.68 0 1.36 0 0 Z " fill="#892A25" transform="translate(160,112)"/>
<path d="M0 0 C0.99 0 1.98 0 3 0 C3 0.66 3 1.32 3 2 C3.763125 2.144375 4.52625 2.28875 5.3125 2.4375 C8 3 8 3 11 4 C11 3.01 11 2.02 11 1 C13.64 1 16.28 1 19 1 C19 1.99 19 2.98 19 4 C13.61972975 5.19088986 8.54708616 6.2919519 3 6 C3 5.01 3 4.02 3 3 C2.01 3 1.02 3 0 3 C0 2.01 0 1.02 0 0 Z " fill="#D07D6E" transform="translate(188,94)"/>
<path d="M0 0 C0.33 0 0.66 0 1 0 C1 1.98 1 3.96 1 6 C2.32 6.33 3.64 6.66 5 7 C3.68 7 2.36 7 1 7 C1 8.98 1 10.96 1 13 C0.01 13.33 -0.98 13.66 -2 14 C-2 12.02 -2 10.04 -2 8 C-3.98 8 -5.96 8 -8 8 C-8 7.01 -8 6.02 -8 5 C-5.69 5 -3.38 5 -1 5 C-0.67 3.35 -0.34 1.7 0 0 Z " fill="#B5ECC3" transform="translate(191,130)"/>
<path d="M0 0 C0.99 0 1.98 0 3 0 C3 1.65 3 3.3 3 5 C4.65 5 6.3 5 8 5 C8 6.65 8 8.3 8 10 C5.36 10 2.72 10 0 10 C0 6.7 0 3.4 0 0 Z " fill="#1D1D1D" transform="translate(283,66)"/>
<path d="M0 0 C1.98 0 3.96 0 6 0 C6 2.97 6 5.94 6 9 C4.02 9 2.04 9 0 9 C0 6.03 0 3.06 0 0 Z " fill="#070707" transform="translate(283,104)"/>
<path d="M0 0 C1.98 0 3.96 0 6 0 C6 2.97 6 5.94 6 9 C4.02 9 2.04 9 0 9 C0 6.03 0 3.06 0 0 Z " fill="#000000" transform="translate(275,66)"/>
<path d="M0 0 C0.66 0.66 1.32 1.32 2 2 C1.34 2 0.68 2 0 2 C0 2.99 0 3.98 0 5 C0.66 5.66 1.32 6.32 2 7 C1.44570312 7.31453125 0.89140625 7.6290625 0.3203125 7.953125 C-0.40414062 8.38109375 -1.12859375 8.8090625 -1.875 9.25 C-2.95394531 9.87648437 -2.95394531 9.87648437 -4.0546875 10.515625 C-6.20874162 12.15928076 -6.99140585 13.51567335 -8 16 C-8.9375 13.5 -8.9375 13.5 -9 10 C-6.98619818 7.01249181 -4.56198906 4.52222426 -2 2 C-1.34 1.34 -0.68 0.68 0 0 Z " fill="#FADC95" transform="translate(228,163)"/>
<path d="M0 0 C0.99 0 1.98 0 3 0 C3 4.95 3 9.9 3 15 C1.68 15 0.36 15 -1 15 C-0.67 10.05 -0.34 5.1 0 0 Z " fill="#111111" transform="translate(311,118)"/>
<path d="M0 0 C3.3 0 6.6 0 10 0 C10 1.65 10 3.3 10 5 C6.7 5 3.4 5 0 5 C0 3.35 0 1.7 0 0 Z " fill="#090909" transform="translate(317,112)"/>
<path d="M0 0 C0.33 0 0.66 0 1 0 C1.28571429 8.57142857 1.28571429 8.57142857 -1 12 C-2.65 12 -4.3 12 -6 12 C-6 10.02 -6 8.04 -6 6 C-4.68 6 -3.36 6 -2 6 C-2 5.01 -2 4.02 -2 3 C-1.34 3 -0.68 3 0 3 C0 2.01 0 1.02 0 0 Z " fill="#AADFB8" transform="translate(198,131)"/>
<path d="M0 0 C4.62 0 9.24 0 14 0 C14 0.99 14 1.98 14 3 C12.35 3 10.7 3 9 3 C8.34 4.32 7.68 5.64 7 7 C7 5.35 7 3.7 7 2 C6.01 2 5.02 2 4 2 C4 3.32 4 4.64 4 6 C3.01 6 2.02 6 1 6 C0.67 4.02 0.34 2.04 0 0 Z " fill="#7E836F" transform="translate(189,122)"/>
<path d="M0 0 C0.33 0.66 0.66 1.32 1 2 C1.99 2.66 2.98 3.32 4 4 C1.69 4.66 -0.62 5.32 -3 6 C-2.68991116 7.60463449 -2.37683713 9.20869231 -2.0625 10.8125 C-1.88847656 11.70582031 -1.71445313 12.59914062 -1.53515625 13.51953125 C-1.02258847 16.11397171 -1.02258847 16.11397171 0 19 C-3.875 17.25 -3.875 17.25 -5 15 C-5.53676049 11.16599653 -5.87196229 7.50306786 -3.8828125 4.07421875 C-2.5 2.4375 -2.5 2.4375 0 0 Z " fill="#FCDB98" transform="translate(228,217)"/>
<path d="M0 0 C1.98 0 3.96 0 6 0 C6 0.99 6 1.98 6 3 C7.32 3 8.64 3 10 3 C10 3.66 10 4.32 10 5 C10.66 5.33 11.32 5.66 12 6 C8.04 6 4.08 6 0 6 C0 4.02 0 2.04 0 0 Z " fill="#957365" transform="translate(174,92)"/>
<path d="M0 0 C5.05177786 0.62515168 5.05177786 0.62515168 9.9375 -0.375 C9.625 1.5625 9.625 1.5625 8.9375 3.625 C7.9475 3.955 6.9575 4.285 5.9375 4.625 C5.2775 4.295 4.6175 3.965 3.9375 3.625 C1.39134991 3.39327173 -1.13646225 3.20605471 -3.6875 3.0625 C-4.39390625 3.01931641 -5.1003125 2.97613281 -5.828125 2.93164062 C-7.57268537 2.82555249 -9.31756697 2.72477111 -11.0625 2.625 C-7.45843068 -0.89777452 -4.85517197 -0.54116533 0 0 Z " fill="#FBB876" transform="translate(249.0625,157.375)"/>
<path d="M0 0 C4.62 0 9.24 0 14 0 C14 0.99 14 1.98 14 3 C9.38 3 4.76 3 0 3 C0 2.01 0 1.02 0 0 Z " fill="#B2332E" transform="translate(160,108)"/>
<path d="M0 0 C2.64 0 5.28 0 8 0 C8 2.64 8 5.28 8 8 C8.66 8.33 9.32 8.66 10 9 C9.34 10.32 8.68 11.64 8 13 C8 11.68 8 10.36 8 9 C6.68 8.67 5.36 8.34 4 8 C4 6.02 4 4.04 4 2 C2.68 1.34 1.36 0.68 0 0 Z " fill="#CDFCD3" transform="translate(181,122)"/>
<path d="M0 0 C2.64 0 5.28 0 8 0 C8 1.65 8 3.3 8 5 C5.36 5 2.72 5 0 5 C0 3.35 0 1.7 0 0 Z " fill="#161616" transform="translate(286,117)"/>
<path d="M0 0 C1.65 0 3.3 0 5 0 C5 2.64 5 5.28 5 8 C3.35 8 1.7 8 0 8 C0 5.36 0 2.72 0 0 Z " fill="#000000" transform="translate(275,55)"/>
<path d="M0 0 C3.3 0 6.6 0 10 0 C10 0.99 10 1.98 10 3 C9.34 3 8.68 3 8 3 C8 3.66 8 4.32 8 5 C5.36 5 2.72 5 0 5 C0 3.35 0 1.7 0 0 Z " fill="#838383" transform="translate(169,203)"/>
<path d="M0 0 C0 2.62113708 -0.31292445 4.50935112 -1 7 C-1.66 7 -2.32 7 -3 7 C-2.97679687 7.62648437 -2.95359375 8.25296875 -2.9296875 8.8984375 C-2.91164062 9.71570313 -2.89359375 10.53296875 -2.875 11.375 C-2.85179687 12.18710938 -2.82859375 12.99921875 -2.8046875 13.8359375 C-3 16 -3 16 -5 18 C-6.60556845 9.16937355 -6.60556845 9.16937355 -4.1875 4.5 C-2.83823214 2.95797959 -1.44885311 1.44885311 0 0 Z " fill="#F7DB94" transform="translate(224,193)"/>
<path d="M0 0 C0 3.3 0 6.6 0 10 C-1.98 10.99 -1.98 10.99 -4 12 C-4.08090971 10.37581255 -4.13914995 8.75048255 -4.1875 7.125 C-4.22230469 6.22007813 -4.25710937 5.31515625 -4.29296875 4.3828125 C-4.19628906 3.59648438 -4.09960938 2.81015625 -4 2 C-1 0 -1 0 0 0 Z " fill="#413F3E" transform="translate(241,119)"/>
<path d="M0 0 C0.33 0 0.66 0 1 0 C1 1.65 1 3.3 1 5 C2.32 5 3.64 5 5 5 C5.33 4.01 5.66 3.02 6 2 C6 3.32 6 4.64 6 6 C5.34 6 4.68 6 4 6 C4 9.96 4 13.92 4 18 C3.67 18 3.34 18 3 18 C3 14.37 3 10.74 3 7 C0.36 7 -2.28 7 -5 7 C-5 6.34 -5 5.68 -5 5 C-3.35 5 -1.7 5 0 5 C0 3.35 0 1.7 0 0 Z " fill="#D49E87" transform="translate(181,100)"/>
<path d="M0 0 C2.64 0.66 5.28 1.32 8 2 C5.90437578 4.17323993 3.84995029 6.11345222 1.4375 7.9375 C-1.10280527 10.08698908 -2.45685846 12.07615287 -4 15 C-5 13 -5 13 -4.375 10.625 C-2.74438603 7.5120097 -0.84002745 6.01791424 2 4 C1.34 2.68 0.68 1.36 0 0 Z " fill="#9EFCC3" transform="translate(222,187)"/>
<path d="M0 0 C1.73662334 3.22515763 2.8905928 6.51329166 4 10 C6.31 10.33 8.62 10.66 11 11 C11.33 12.32 11.66 13.64 12 15 C3.81537406 12.88949897 3.81537406 12.88949897 0.9375 9.75 C-0.21134288 6.3800609 -0.2079817 3.53568888 0 0 Z " fill="#F6D38D" transform="translate(219,175)"/>
<path d="M0 0 C0.99 0 1.98 0 3 0 C3 3.96 3 7.92 3 12 C2.01 12 1.02 12 0 12 C0 8.04 0 4.08 0 0 Z " fill="#DFE1BF" transform="translate(185,106)"/>
<path d="M0 0 C0.66 0 1.32 0 2 0 C1.67 6.27 1.34 12.54 1 19 C0.67 19 0.34 19 0 19 C0 15.37 0 11.74 0 8 C-2.97 8 -5.94 8 -9 8 C-9 7.67 -9 7.34 -9 7 C-6.03 7 -3.06 7 0 7 C0 4.69 0 2.38 0 0 Z " fill="#F4F1DC" transform="translate(174,100)"/>
<path d="M0 0 C1.98 0 3.96 0 6 0 C6 1.98 6 3.96 6 6 C4.02 6 2.04 6 0 6 C0 4.02 0 2.04 0 0 Z " fill="#181818" transform="translate(313,63)"/>
<path d="M0 0 C2.31 0 4.62 0 7 0 C7 1.65 7 3.3 7 5 C4.69 5 2.38 5 0 5 C0 3.35 0 1.7 0 0 Z " fill="#0A0A0A" transform="translate(249,96)"/>
<path d="M0 0 C2.31 0 4.62 0 7 0 C7 1.65 7 3.3 7 5 C4.69 5 2.38 5 0 5 C0 3.35 0 1.7 0 0 Z " fill="#1B1B1B" transform="translate(295,71)"/>
<path d="M0 0 C0.98484375 0.01804687 1.9696875 0.03609375 2.984375 0.0546875 C4.10585937 0.08949219 4.10585937 0.08949219 5.25 0.125 C5.25 0.455 5.25 0.785 5.25 1.125 C4.0125 1.2075 2.775 1.29 1.5 1.375 C-1.73882964 1.75975459 -2.62907883 2.02524003 -5.25 4.1875 C-5.745 4.826875 -6.24 5.46625 -6.75 6.125 C-7.74 5.795 -8.73 5.465 -9.75 5.125 C-9.75 4.135 -9.75 3.145 -9.75 2.125 C-6.40060119 0.09941119 -3.88037449 -0.09238987 0 0 Z " fill="#BDD9B3" transform="translate(152.75,23.875)"/>
<path d="M0 0 C0.66 1.65 1.32 3.3 2 5 C-1.63 5 -5.26 5 -9 5 C-4 0 -4 0 0 0 Z " fill="#F7A566" transform="translate(256,180)"/>
<path d="M0 0 C0.99 0 1.98 0 3 0 C3 0.99 3 1.98 3 3 C5.64 3 8.28 3 11 3 C11.33 2.01 11.66 1.02 12 0 C12.66 0 13.32 0 14 0 C14 1.98 14 3.96 14 6 C13.34 5.67 12.68 5.34 12 5 C10.52331663 4.9047301 9.04224543 4.87014041 7.5625 4.875 C6.78003906 4.87242188 5.99757812 4.86984375 5.19140625 4.8671875 C2.82104653 4.91617452 2.82104653 4.91617452 0 6 C0 4.02 0 2.04 0 0 Z " fill="#E0151A" transform="translate(160,100)"/>
<path d="M0 0 C0 0.99 0 1.98 0 3 C-2.64 3 -5.28 3 -8 3 C-8 4.98 -8 6.96 -8 9 C-8.66 9 -9.32 9 -10 9 C-10 6.36 -10 3.72 -10 1 C-6.78548731 -0.60725635 -3.56387464 -0.05748185 0 0 Z " fill="#E84E48" transform="translate(160,97)"/>
<path d="M0 0 C3.63 0 7.26 0 11 0 C11 0.33 11 0.66 11 1 C8.03 1 5.06 1 2 1 C1.67 2.98 1.34 4.96 1 7 C-0.32 7 -1.64 7 -3 7 C-2.01 4.69 -1.02 2.38 0 0 Z " fill="#99D2A2" transform="translate(212,24)"/>
<path d="M0 0 C0.66 0 1.32 0 2 0 C2 3.3 2 6.6 2 10 C0.02 10 -1.96 10 -4 10 C-4 9.01 -4 8.02 -4 7 C-2.68 7 -1.36 7 0 7 C0 4.69 0 2.38 0 0 Z " fill="#060706" transform="translate(180,132)"/>
<path d="M0 0 C0.66 0 1.32 0 2 0 C2 2.64 2 5.28 2 8 C-0.31 7.67 -2.62 7.34 -5 7 C-4.34 5.68 -3.68 4.36 -3 3 C-2.01 3 -1.02 3 0 3 C0 2.01 0 1.02 0 0 Z " fill="#741111" transform="translate(196,112)"/>
<path d="M0 0 C1.65 0 3.3 0 5 0 C5 1.98 5 3.96 5 6 C3.35 6 1.7 6 0 6 C0 4.02 0 2.04 0 0 Z " fill="#3C2F26" transform="translate(181,124)"/>
<path d="M0 0 C1.65 0 3.3 0 5 0 C5 1.98 5 3.96 5 6 C3.35 6 1.7 6 0 6 C0 4.02 0 2.04 0 0 Z " fill="#0B0B0B" transform="translate(258,63)"/>
<path d="M0 0 C0.99 0.33 1.98 0.66 3 1 C3.33 2.32 3.66 3.64 4 5 C0.7 5.33 -2.6 5.66 -6 6 C-4 4 -2 2 0 0 Z " fill="#F59F61" transform="translate(256,205)"/>
<path d="M0 0 C1.98 0 3.96 0 6 0 C6 0.99 6 1.98 6 3 C4.68 3 3.36 3 2 3 C2 4.65 2 6.3 2 8 C1.34 8 0.68 8 0 8 C0 5.36 0 2.72 0 0 Z " fill="#050605" transform="translate(204,135)"/>
<path d="M0 0 C1.03115279 3.26913624 0.9638984 5.86041348 0.5625 9.25 C0.46066406 10.14203125 0.35882813 11.0340625 0.25390625 11.953125 C0.17011719 12.62859375 0.08632812 13.3040625 0 14 C-0.33 14 -0.66 14 -1 14 C-1 10.7 -1 7.4 -1 4 C-1.66 4 -2.32 4 -3 4 C-3 5.98 -3 7.96 -3 10 C-3.33 10 -3.66 10 -4 10 C-4 7.36 -4 4.72 -4 2 C-2.68 2 -1.36 2 0 2 C0 1.34 0 0.68 0 0 Z " fill="#CBFADD" transform="translate(203,129)"/>
<path d="M0 0 C1.32 0 2.64 0 4 0 C4 2.31 4 4.62 4 7 C2.68 7 1.36 7 0 7 C0 4.69 0 2.38 0 0 Z " fill="#060606" transform="translate(275,117)"/>
<path d="M0 0 C1.32 0 2.64 0 4 0 C4 2.31 4 4.62 4 7 C2.68 7 1.36 7 0 7 C0 4.69 0 2.38 0 0 Z " fill="#0F0F0F" transform="translate(267,100)"/>
<path d="M0 0 C2.64 0 5.28 0 8 0 C8 1.32 8 2.64 8 4 C7.01 4 6.02 4 5 4 C5 3.34 5 2.68 5 2 C4.01 2 3.02 2 2 2 C2 2.99 2 3.98 2 5 C1.34 5 0.68 5 0 5 C0 3.35 0 1.7 0 0 Z " fill="#020202" transform="translate(186,92)"/>
<path d="M0 0 C1.22589844 0.01353516 1.22589844 0.01353516 2.4765625 0.02734375 C3.41628906 0.04474609 3.41628906 0.04474609 4.375 0.0625 C2.1842961 2.35363732 0.28042812 3.7600667 -2.625 5.0625 C-2.955 4.4025 -3.285 3.7425 -3.625 3.0625 C-4.615 2.4025 -5.605 1.7425 -6.625 1.0625 C-4.21954362 -0.14022819 -2.67503047 -0.03821472 0 0 Z " fill="#ADF8C1" transform="translate(228.625,159.9375)"/>
<path d="M0 0 C2.97 0 5.94 0 9 0 C9 0.99 9 1.98 9 3 C6.03 3 3.06 3 0 3 C0 2.01 0 1.02 0 0 Z " fill="#220404" transform="translate(160,123)"/>
<path d="M0 0 C1.65 0 3.3 0 5 0 C5 1.65 5 3.3 5 5 C3.02 5 1.04 5 -1 5 C-0.67 3.35 -0.34 1.7 0 0 Z " fill="#DE695B" transform="translate(189,102)"/>
<path d="M0 0 C1.65 0 3.3 0 5 0 C5 1.65 5 3.3 5 5 C3.35 5 1.7 5 0 5 C0 3.35 0 1.7 0 0 Z " fill="#000000" transform="translate(258,119)"/>
<path d="M0 0 C0.33 0.99 0.66 1.98 1 3 C5.62 3 10.24 3 15 3 C15 3.33 15 3.66 15 4 C10.38 4 5.76 4 1 4 C0.67 5.32 0.34 6.64 0 8 C-0.38063221 5.6739143 -0.71269945 3.33944736 -1 1 C-0.67 0.67 -0.34 0.34 0 0 Z " fill="#E8E2C6" transform="translate(159,108)"/>
<path d="M0 0 C1.65 0 3.3 0 5 0 C5 1.65 5 3.3 5 5 C3.35 5 1.7 5 0 5 C0 3.35 0 1.7 0 0 Z " fill="#DEDEDE" transform="translate(296,105)"/>
<path d="M0 0 C1.65 0 3.3 0 5 0 C5 1.65 5 3.3 5 5 C3.35 5 1.7 5 0 5 C0 3.35 0 1.7 0 0 Z " fill="#0E0E0E" transform="translate(259,96)"/>
<path d="M0 0 C1.65 0 3.3 0 5 0 C5 1.65 5 3.3 5 5 C3.35 5 1.7 5 0 5 C0 3.35 0 1.7 0 0 Z " fill="#060606" transform="translate(311,92)"/>
<path d="M0 0 C1.65 0 3.3 0 5 0 C5 1.65 5 3.3 5 5 C3.35 5 1.7 5 0 5 C0 3.35 0 1.7 0 0 Z " fill="#E1E1E1" transform="translate(300,85)"/>
<path d="M0 0 C0.66 0 1.32 0 2 0 C2 3.3 2 6.6 2 10 C1.01 10 0.02 10 -1 10 C-0.67 6.7 -0.34 3.4 0 0 Z " fill="#161C16" transform="translate(200,133)"/>
<path d="M0 0 C2.475 0.495 2.475 0.495 5 1 C5 2.32 5 3.64 5 5 C3.35 5 1.7 5 0 5 C0 3.35 0 1.7 0 0 Z " fill="#121613" transform="translate(192,138)"/>
<path d="M0 0 C0.33 0.99 0.66 1.98 1 3 C-0.43359375 5.26171875 -0.43359375 5.26171875 -2.4375 7.6875 C-3.09621094 8.49574219 -3.75492187 9.30398437 -4.43359375 10.13671875 C-4.95050781 10.75160156 -5.46742187 11.36648437 -6 12 C-6.66 11.67 -7.32 11.34 -8 11 C-5.36 7.37 -2.72 3.74 0 0 Z " fill="#F7BE7B" transform="translate(103,135)"/>
<path d="M0 0 C4.62 0 9.24 0 14 0 C14 0.99 14 1.98 14 3 C12.35 3 10.7 3 9 3 C9 2.34 9 1.68 9 1 C6.03 1 3.06 1 0 1 C0 0.67 0 0.34 0 0 Z " fill="#8B8872" transform="translate(189,122)"/>
<path d="M0 0 C1.32 0 2.64 0 4 0 C4 1.32 4 2.64 4 4 C3.01 4 2.02 4 1 4 C1 4.66 1 5.32 1 6 C0.01 6 -0.98 6 -2 6 C-2 5.01 -2 4.02 -2 3 C-1.34 3 -0.68 3 0 3 C0 2.01 0 1.02 0 0 Z " fill="#CBB19A" transform="translate(192,111)"/>
<path d="M0 0 C2.64 0 5.28 0 8 0 C8 0.99 8 1.98 8 3 C5.36 3 2.72 3 0 3 C0 2.01 0 1.02 0 0 Z " fill="#A91A1A" transform="translate(201,109)"/>
<path d="M0 0 C2.64 0 5.28 0 8 0 C8 0.99 8 1.98 8 3 C5.36 3 2.72 3 0 3 C0 2.01 0 1.02 0 0 Z " fill="#BDB79D" transform="translate(163,95)"/>
<path d="M0 0 C0.99 0.33 1.98 0.66 3 1 C1.7934375 2.2684375 1.7934375 2.2684375 0.5625 3.5625 C-2.21628662 6.8515158 -2.74117776 9.68629604 -3 14 C-3.33 14 -3.66 14 -4 14 C-4.63019694 5.96498906 -4.63019694 5.96498906 -2 1.9375 C-1.34 1.298125 -0.68 0.65875 0 0 Z " fill="#A1F8BA" transform="translate(226,216)"/>
<path d="M0 0 C1.63001953 0.15275391 1.63001953 0.15275391 3.29296875 0.30859375 C4.54013672 0.43427734 4.54013672 0.43427734 5.8125 0.5625 C5.8125 0.8925 5.8125 1.2225 5.8125 1.5625 C-2.6025 2.0575 -2.6025 2.0575 -11.1875 2.5625 C-7.66064248 -0.96435752 -4.6936992 -0.45422896 0 0 Z " fill="#FCB977" transform="translate(252.1875,184.4375)"/>
<path d="M0 0 C0.268125 0.556875 0.53625 1.11375 0.8125 1.6875 C2.00699665 4.08933398 2.00699665 4.08933398 3.625 6.625 C5 9 5 9 5 11 C1.125 9.25 1.125 9.25 0 7 C-0.04022391 4.6670134 -0.04320247 2.33293334 0 0 Z " fill="#F9D68F" transform="translate(223,225)"/>
<path d="M0 0 C2.31 0 4.62 0 7 0 C7 0.99 7 1.98 7 3 C4.69 3 2.38 3 0 3 C0 2.01 0 1.02 0 0 Z " fill="#080808" transform="translate(308,103)"/>
<path d="M0 0 C4.875 1.75 4.875 1.75 6 4 C2.98968256 4.93423645 2.13349732 5.04449911 -1 4 C-0.67 2.68 -0.34 1.36 0 0 Z " fill="#36312F" transform="translate(223,234)"/>
<path d="M0 0 C1.98 0 3.96 0 6 0 C5.67 1.32 5.34 2.64 5 4 C2.69 4 0.38 4 -2 4 C-1.34 2.68 -0.68 1.36 0 0 Z " fill="#3B3B3B" transform="translate(196,203)"/>
<path d="M0 0 C1.65 0 3.3 0 5 0 C5 1.32 5 2.64 5 4 C3.35 4 1.7 4 0 4 C0 2.68 0 1.36 0 0 Z " fill="#3A0405" transform="translate(205,121)"/>
<path d="M0 0 C2.64 0 5.28 0 8 0 C8 0.99 8 1.98 8 3 C5.36 3 2.72 3 0 3 C0 2.01 0 1.02 0 0 Z " fill="#FBF8E2" transform="translate(163,100)"/>
<path d="M0 0 C2.64 0 5.28 0 8 0 C8 0.99 8 1.98 8 3 C5.36 3 2.72 3 0 3 C0 2.01 0 1.02 0 0 Z " fill="#FAF8E0" transform="translate(199,100)"/>
<path d="M0 0 C0.66 0 1.32 0 2 0 C3.26264601 4.29299643 2.62950412 6.87831311 1 11 C0.67 11 0.34 11 0 11 C0 7.37 0 3.74 0 0 Z " fill="#D5FECE" transform="translate(141,93)"/>
<path d="M0 0 C1.32 0 2.64 0 4 0 C4 1.65 4 3.3 4 5 C2.68 5 1.36 5 0 5 C0 3.35 0 1.7 0 0 Z " fill="#111612" transform="translate(176,92)"/>
<path d="M0 0 C1.32 0.33 2.64 0.66 4 1 C4 1.66 4 2.32 4 3 C4.66 3 5.32 3 6 3 C5.67 3.66 5.34 4.32 5 5 C3.35 5 1.7 5 0 5 C0 3.35 0 1.7 0 0 Z " fill="#686868" transform="translate(169,203)"/>
<path d="M0 0 C1 2 1 2 0.44140625 3.9453125 C0.15136719 4.66460937 -0.13867188 5.38390625 -0.4375 6.125 C-0.72496094 6.84945312 -1.01242188 7.57390625 -1.30859375 8.3203125 C-1.53675781 8.87460938 -1.76492187 9.42890625 -2 10 C-2.66 10 -3.32 10 -4 10 C-3.43454163 6.04179141 -2.19097652 3.3340947 0 0 Z " fill="#F7BD7B" transform="translate(110,122)"/>
<path d="M0 0 C1.32 0.33 2.64 0.66 4 1 C4 2.32 4 3.64 4 5 C3.01 5 2.02 5 1 5 C0.67 5.66 0.34 6.32 0 7 C0 4.69 0 2.38 0 0 Z " fill="#80231F" transform="translate(205,113)"/>
<path d="M0 0 C0.33 0.66 0.66 1.32 1 2 C1.99 2 2.98 2 4 2 C4.33 1.34 4.66 0.68 5 0 C5 1.65 5 3.3 5 5 C3.35 5 1.7 5 0 5 C0 3.35 0 1.7 0 0 Z " fill="#E43B38" transform="translate(176,100)"/>
<path d="M0 0 C1.98 0 3.96 0 6 0 C6 0.99 6 1.98 6 3 C4.02 3 2.04 3 0 3 C0 2.01 0 1.02 0 0 Z " fill="#040000" transform="translate(204,129)"/>
<path d="M0 0 C1.67542976 0.28604898 3.34385343 0.61781233 5 1 C4.360625 1.226875 3.72125 1.45375 3.0625 1.6875 C0.72806339 2.85250896 0.72806339 2.85250896 0.25 5.625 C0.1675 6.40875 0.085 7.1925 0 8 C-0.33 8 -0.66 8 -1 8 C-1.04241723 5.66705225 -1.04092937 3.33297433 -1 1 C-0.67 0.67 -0.34 0.34 0 0 Z " fill="#FDE7A0" transform="translate(242,121)"/>
<path d="M0 0 C0.99 0 1.98 0 3 0 C3 0.66 3 1.32 3 2 C4.65 2.33 6.3 2.66 8 3 C8 3.33 8 3.66 8 4 C5.36 3.67 2.72 3.34 0 3 C0 2.01 0 1.02 0 0 Z " fill="#8F8F77" transform="translate(188,94)"/>
</svg>
