<?xml version="1.0" encoding="UTF-8"?>
<svg version="1.1" xmlns="http://www.w3.org/2000/svg" width="408" height="274">
<path d="M0 0 C134.64 0 269.28 0 408 0 C408 90.42 408 180.84 408 274 C273.36 274 138.72 274 0 274 C0 183.58 0 93.16 0 0 Z " fill="#EEF1FD" transform="translate(0,0)"/>
<path d="M0 0 C54.12 0 108.24 0 164 0 C161.44150195 1.70566536 159.0885608 2.91059919 156.3125 4.1875 C144.13449181 10.29420469 137.37336981 20.06895998 133.125 32.8125 C130.55068223 40.90199526 129.88705431 47.9907319 130.04296875 56.41015625 C130.06537316 58.47329751 130.08682678 60.53644926 130.10742188 62.59960938 C130.14432962 65.82280413 130.1871845 69.04545151 130.24682617 72.26831055 C130.60848938 92.80730623 128.0631104 109.1590744 113.3359375 124.7890625 C101.679219 135.82201011 88.06087669 143.78751962 73.125 149.5 C63.24045394 153.3254477 55.45003817 159.13252406 51 169 C46.51204868 183.14012059 52.31518866 197.4168116 58.66088867 209.9152832 C63.33578066 218.77459019 68.88249266 227.12039292 75.1171875 234.95703125 C75.62918701 235.6130835 76.14118652 236.26913574 76.66870117 236.94506836 C77.65176001 238.19423732 78.65611619 239.42705478 79.68481445 240.63891602 C82.45547863 244.16462727 83.3041998 246.29587214 82.80078125 250.8203125 C82.5465304 252.21591061 82.28185317 253.60971357 82 255 C82 255.66 82 256.32 82 257 C83.2065625 257.433125 83.2065625 257.433125 84.4375 257.875 C87 259 87 259 88 261 C88.13415472 263.6723621 88.04318541 266.32250488 88 269 C87.06430176 269.02505615 86.12860352 269.0501123 85.16455078 269.07592773 C60.56955619 269.73351447 60.56955619 269.73351447 36 271 C51.95619713 271.81348059 67.90138626 272.27122764 83.875 272.5625 C86.13542172 272.60585723 88.39583844 272.64947581 90.65625 272.69335938 C96.10411305 272.79857014 101.55202772 272.90061492 107 273 C107 273.33 107 273.66 107 274 C71.69 274 36.38 274 0 274 C0 183.58 0 93.16 0 0 Z " fill="#FEFEFE" transform="translate(0,0)"/>
<path d="M0 0 C66.66 0 133.32 0 202 0 C202 90.42 202 180.84 202 274 C155.14 274 108.28 274 60 274 C60 273.67 60 273.34 60 273 C60.95703827 272.98969254 61.91407654 272.97938507 62.90011597 272.96876526 C72.04550442 272.86979492 81.19084315 272.76697772 90.33614922 272.66066074 C95.03462816 272.60615594 99.73311346 272.55287617 104.43164062 272.50268555 C125.30242247 272.27885565 146.14927087 272.005633 167 271 C153.21363366 270.16669703 139.43376527 269.7208864 125.62768555 269.39282227 C117.05708475 269.17916426 108.54329098 268.76668174 100 268 C99.37020398 249.75924125 109.0619967 229.90700495 119 215 C119.99 214.67 120.98 214.34 122 214 C121.34 213.67 120.68 213.34 120 213 C120.58394531 212.30003906 120.58394531 212.30003906 121.1796875 211.5859375 C134.27694277 194.50518523 140.61540138 171.98261418 148 152 C148.99663555 149.33205277 149.99781814 146.66586991 151 144 C154.63 143.67 158.26 143.34 162 143 C162.33 141.02 162.66 139.04 163 137 C164.32 137.33 165.64 137.66 167 138 C165.77119784 136.7058258 165.77119784 136.7058258 163 135 C162.70703125 132.3984375 162.70703125 132.3984375 162.8125 129.375 C162.85310547 127.87066406 162.85310547 127.87066406 162.89453125 126.3359375 C162.92933594 125.56507812 162.96414063 124.79421875 163 124 C160.69 123.67 158.38 123.34 156 123 C156.15726563 122.07574219 156.31453125 121.15148437 156.4765625 120.19921875 C158.26776307 107.51101686 159.50468065 92.03050175 152 81 C147.76903143 75.91830049 142.65443427 74.309684 136.25 73.5625 C130.86456306 73.68630315 126.59113715 76.42036441 122 79 C116.20689655 82 116.20689655 82 114 82 C113.855625 80.865625 113.71125 79.73125 113.5625 78.5625 C113.38828522 75.19222799 113.38828522 75.19222799 112 74 C109.48393551 73.75650989 106.96913976 73.61636634 104.4453125 73.4765625 C101.66613019 72.93493272 100.75049421 72.16783058 99 70 C99.33 70.99 99.66 71.98 100 73 C98.906875 73.12375 97.81375 73.2475 96.6875 73.375 C92.92618198 73.75464801 92.92618198 73.75464801 90 76 C77.1340758 65.83176958 65.77879376 53.94279008 57 40 C57 39.34 57 38.68 57 38 C57.66 38 58.32 38 59 38 C59 37.34 59 36.68 59 36 C58.175 35.855625 57.35 35.71125 56.5 35.5625 C52.92546564 33.96672573 51.91870556 32.9816274 49.5 30.0625 C36.49518719 14.74243643 18.89499077 6.64677885 0 1 C0 0.67 0 0.34 0 0 Z " fill="#FEFEFE" transform="translate(206,0)"/>
<path d="M0 0 C0.79339783 0.00424484 1.58679565 0.00848969 2.40423584 0.01286316 C4.9312982 0.02961835 7.45755483 0.06726369 9.984375 0.10546875 C11.70050929 0.12051972 13.41665612 0.13420741 15.1328125 0.14648438 C19.33364246 0.1795114 23.53387225 0.2312711 27.734375 0.29296875 C28.724375 2.27296875 29.714375 4.25296875 30.734375 6.29296875 C33.18662194 6.18683039 33.18662194 6.18683039 35.734375 5.29296875 C36.92656342 2.79204913 36.92656342 2.79204913 37.734375 0.29296875 C42.62732647 0.21863096 47.51994683 0.16427848 52.41333008 0.12817383 C54.07679981 0.11311761 55.74023005 0.09266812 57.40356445 0.06665039 C59.79909022 0.03012668 62.19408967 0.01321093 64.58984375 0 C65.69950752 -0.02322578 65.69950752 -0.02322578 66.83158875 -0.04692078 C71.33243634 -0.04837699 74.22919449 0.40609532 77.734375 3.29296875 C81.54093739 7.97369673 81.14052037 12.56992009 81.07495117 18.31567383 C81.07560829 19.82369568 81.07560829 19.82369568 81.07627869 21.36218262 C81.07419172 24.67915387 81.05086443 27.99561723 81.02734375 31.3125 C81.02174748 33.61463647 81.01747753 35.91677652 81.01448059 38.21891785 C81.0030343 44.27377207 80.97356869 50.3284099 80.94036865 56.38317871 C80.9096633 62.56336541 80.89597424 68.74358711 80.88085938 74.92382812 C80.84869901 87.04697 80.79750503 99.16995137 80.734375 111.29296875 C79.414375 111.62296875 78.094375 111.95296875 76.734375 112.29296875 C78.714375 113.28296875 78.714375 113.28296875 80.734375 114.29296875 C80.80393794 123.072674 80.8572181 131.85228413 80.88981152 140.63220501 C80.9054561 144.70924819 80.92667208 148.78610258 80.96069336 152.86303711 C80.99333024 156.79877893 81.0112371 160.73433935 81.01900673 164.67020607 C81.0245425 166.17049832 81.03535261 167.67078084 81.05156517 169.17099571 C81.07339772 171.27526547 81.0763396 173.37878919 81.07495117 175.4831543 C81.08494392 177.27851875 81.08494392 177.27851875 81.09513855 179.1101532 C80.59597243 183.51401744 79.04692991 185.93013771 76.01306152 189.08021545 C72.81237019 190.78367441 69.81374859 190.71979782 66.27539062 190.69702148 C65.53020676 190.70388474 64.78502289 190.71074799 64.01725769 190.71781921 C61.5581854 190.73609558 59.09975052 190.73224912 56.640625 190.7265625 C54.92956332 190.73112355 53.21850347 190.7364289 51.50744629 190.7424469 C47.92301995 190.75137935 44.33881639 190.74895299 40.75439453 190.73901367 C36.16074403 190.72751708 31.56786144 190.74774492 26.97431183 190.77693081 C23.44153967 190.79527431 19.90895223 190.7950042 16.37614441 190.78929329 C14.68245872 190.78913988 12.98876066 190.79520024 11.29512024 190.80758476 C8.92737584 190.82246059 6.56105904 190.81184483 4.19335938 190.79467773 C3.49401779 190.8043457 2.79467621 190.81401367 2.07414246 190.82397461 C-1.30086351 190.77272404 -2.92242668 190.59400277 -5.50134277 188.33192444 C-6.08355591 187.65906906 -6.66576904 186.98621368 -7.265625 186.29296875 C-9.58671169 185.58484061 -11.91939647 184.91272723 -14.265625 184.29296875 C-16.61650513 179.59120848 -15.78674242 172.78773024 -15.89038086 167.57299805 C-15.93199861 165.93630301 -15.99333079 164.29998323 -16.07495117 162.66479492 C-16.74827396 148.94428136 -16.74827396 148.94428136 -12.99072266 144.75927734 C-10.22265625 142.9296875 -10.22265625 142.9296875 -7.42895508 141.58862305 C-6.71505615 141.16105713 -6.00115723 140.73349121 -5.265625 140.29296875 C-5.265625 138.97296875 -5.265625 137.65296875 -5.265625 136.29296875 C-6.049375 136.29296875 -6.833125 136.29296875 -7.640625 136.29296875 C-9.18229167 136.29296875 -10.72395833 136.29296875 -12.265625 136.29296875 C-13.750625 137.28296875 -13.750625 137.28296875 -15.265625 138.29296875 C-15.3357117 121.42944943 -15.38861147 104.56597559 -15.42106152 87.70234394 C-15.43652923 79.8722325 -15.45761688 72.04221156 -15.49194336 64.2121582 C-15.5218487 57.38733665 -15.5412007 50.56258065 -15.54789048 43.7376954 C-15.55180084 40.12407739 -15.56098857 36.5106469 -15.58281517 32.897089 C-15.6069859 28.86270459 -15.60759427 24.82864603 -15.60620117 20.79418945 C-15.616987 19.59656982 -15.62777283 18.3989502 -15.6388855 17.16503906 C-15.63476151 16.06432571 -15.63063751 14.96361237 -15.62638855 13.82954407 C-15.62915393 12.87548833 -15.63191931 11.92143259 -15.63476849 10.93846607 C-15.08505098 6.99887011 -13.27034029 4.37181923 -10.59472656 1.4987793 C-7.14591774 -0.28672037 -3.78831923 -0.07649577 0 0 Z " fill="#F6F8FD" transform="translate(167.265625,77.70703125)"/>
<path d="M0 0 C0.79088516 -0.00686325 1.58177032 -0.0137265 2.3966217 -0.02079773 C5.00296132 -0.03905281 7.60869824 -0.03523013 10.21508789 -0.02954102 C12.03203018 -0.03410351 13.84897075 -0.03940929 15.66590881 -0.04542542 C19.47135434 -0.05435402 23.27658997 -0.05193633 27.08203125 -0.04199219 C31.95232751 -0.03050396 36.82189857 -0.05071287 41.69209957 -0.07990932 C45.4436959 -0.09827903 49.1951187 -0.09797732 52.94674873 -0.0922718 C54.74205098 -0.09211868 56.53736506 -0.09815589 58.33262444 -0.11056328 C60.8459067 -0.12548599 63.35785254 -0.11478767 65.87109375 -0.09765625 C66.60842743 -0.10732422 67.34576111 -0.11699219 68.10543823 -0.12695312 C73.20775165 -0.05433649 76.12705528 1.10659594 80.00024414 4.40405273 C83.93883173 8.90383678 83.40492615 13.84545782 83.34082031 19.51855469 C83.34125839 20.53365616 83.34169647 21.54875763 83.34214783 22.59461975 C83.34006072 25.94405465 83.31673274 29.2929867 83.29321289 32.64233398 C83.28761668 34.96689073 83.2833467 37.29145102 83.28034973 39.61601257 C83.26890304 45.73004957 83.23943708 51.84387229 83.20623779 57.95782471 C83.1755333 64.19833477 83.16184357 70.43887951 83.14672852 76.67944336 C83.11456745 88.92107389 83.06337298 101.16254548 83.00024414 113.40405273 C82.34024414 113.07405273 81.68024414 112.74405273 81.00024414 112.40405273 C80.99659851 111.13951263 80.99295288 109.87497253 80.98919678 108.57211304 C80.95225211 96.65375028 80.89448491 84.73564602 80.8163414 72.81748009 C80.77683603 66.69023951 80.74466238 60.56314332 80.72924805 54.43579102 C80.71410189 48.5222965 80.67969194 42.60919883 80.63193512 36.69588089 C80.61710038 34.44009475 80.60920193 32.18425196 80.60836029 29.92841721 C80.60599527 26.76801007 80.57895164 23.60870378 80.54614258 20.44848633 C80.55117294 19.51628265 80.55620331 18.58407898 80.56138611 17.62362671 C80.47039791 11.9568701 79.80273703 8.70334535 76.00024414 4.40405273 C72.30484012 3.1722514 68.89721036 3.27993161 65.05102539 3.30639648 C63.8921003 3.30851891 63.8921003 3.30851891 62.70976257 3.3106842 C60.24405025 3.31627807 57.77842899 3.32882941 55.31274414 3.34155273 C53.64021941 3.34656853 51.96769326 3.3511313 50.29516602 3.35522461 C46.19682368 3.36624549 42.09854935 3.38350589 38.00024414 3.40405273 C37.72180664 4.2097168 37.44336914 5.01538086 37.15649414 5.84545898 C36.58415039 7.11196289 36.58415039 7.11196289 36.00024414 8.40405273 C33.50024414 9.34155273 33.50024414 9.34155273 31.00024414 9.40405273 C28.86169564 7.26550424 28.57369351 6.2712996 28.00024414 3.40405273 C22.96490179 3.30495433 17.93013072 3.23247693 12.89404297 3.18432617 C11.18202828 3.16424769 9.47008186 3.13697882 7.75830078 3.10229492 C5.29320406 3.05360872 2.82901624 3.031047 0.36352539 3.01342773 C-0.39812424 2.99278259 -1.15977386 2.97213745 -1.94450378 2.9508667 C-5.64274366 2.94931565 -7.78948662 3.27357308 -10.95996094 5.2409668 C-14.09001035 8.56020532 -14.12426167 11.28757639 -14.12001038 15.66215515 C-14.12138504 16.75170502 -14.1227597 17.84125488 -14.12417603 18.96382141 C-14.12058075 20.15928085 -14.11698547 21.3547403 -14.11328125 22.58642578 C-14.11342728 23.84507446 -14.1135733 25.10372314 -14.11372375 26.4005127 C-14.11401096 29.85271853 -14.10812656 33.3048897 -14.1011498 36.75708747 C-14.09490356 40.36457122 -14.09431145 43.97205574 -14.09312439 47.57954407 C-14.09001483 54.41119192 -14.08180648 61.2428238 -14.0717749 68.07446462 C-14.06060214 75.85189307 -14.05510038 83.62932228 -14.05007946 91.40675676 C-14.03962357 107.40586468 -14.02203136 123.40495665 -13.99975586 139.40405273 C-12.67975586 138.41405273 -11.35975586 137.42405273 -9.99975586 136.40405273 C-9.99975586 137.06405273 -9.99975586 137.72405273 -9.99975586 138.40405273 C-8.34975586 138.07405273 -6.69975586 137.74405273 -4.99975586 137.40405273 C-4.50475586 139.87905273 -4.50475586 139.87905273 -3.99975586 142.40405273 C-8.6496072 146.25678671 -8.6496072 146.25678671 -11.64501953 147.51660156 C-14.41578959 149.30080165 -14.41578959 149.30080165 -14.56738281 153.14111328 C-14.5665923 154.6912248 -14.5384017 156.24147818 -14.48803711 157.79077148 C-14.48096237 158.6077803 -14.47388763 159.42478912 -14.46659851 160.26655579 C-14.43861098 162.87582011 -14.37586892 165.48293733 -14.31225586 168.09155273 C-14.28717842 169.86040195 -14.26436428 171.6292848 -14.24389648 173.39819336 C-14.18877057 177.73430697 -14.10247161 182.06881588 -13.99975586 186.40405273 C-12.90663086 186.52135742 -11.81350586 186.63866211 -10.68725586 186.75952148 C-6.21043792 187.54201614 -4.68757575 188.79229476 -1.99975586 192.40405273 C-2.18725586 194.71655273 -2.18725586 194.71655273 -2.99975586 196.40405273 C-7.91478344 197.69640988 -12.77265688 197.51540791 -17.81225586 197.46655273 C-18.6959082 197.46204102 -19.57956055 197.4575293 -20.48999023 197.45288086 C-22.65994145 197.44115139 -24.82985758 197.42321768 -26.99975586 197.40405273 C-27.15613525 196.84395508 -27.31251465 196.28385742 -27.47363281 195.70678711 C-28.17834001 193.48898164 -28.91117979 191.46245113 -29.99975586 189.40405273 C-32.42918606 188.03287249 -32.42918606 188.03287249 -35.18725586 187.90405273 C-36.53883789 187.73389648 -36.53883789 187.73389648 -37.91772461 187.56030273 C-38.60479492 187.50874023 -39.29186523 187.45717773 -39.99975586 187.40405273 C-40.1222168 188.00733398 -40.24467773 188.61061523 -40.37084961 189.23217773 C-41.23406408 192.21321652 -42.99595697 194.07706048 -44.99975586 196.40405273 C-51.45030568 195.0515181 -57.71081265 193.3734504 -63.99975586 191.40405273 C-64.65975586 192.39405273 -65.31975586 193.38405273 -65.99975586 194.40405273 C-68.74975586 194.76733398 -68.74975586 194.76733398 -71.99975586 194.71655273 C-73.60850586 194.71075195 -73.60850586 194.71075195 -75.24975586 194.70483398 C-77.99975586 194.40405273 -77.99975586 194.40405273 -79.99975586 192.40405273 C-79.93788086 191.10467773 -79.87600586 189.80530273 -79.81225586 188.46655273 C-79.68315876 186.34356377 -79.68315876 186.34356377 -79.99975586 184.40405273 C-82.33765656 182.45070091 -82.33765656 182.45070091 -84.99975586 181.40405273 C-86.39910599 178.60535247 -86.25240991 176.49906481 -85.99975586 173.40405273 C-84.41787967 171.27001222 -83.56285197 170.49262965 -80.91381836 170.07592773 C-80.15842773 170.10170898 -79.40303711 170.12749023 -78.62475586 170.15405273 C-77.87452148 170.16952148 -77.12428711 170.18499023 -76.35131836 170.20092773 C-73.99975586 170.40405273 -73.99975586 170.40405273 -68.99975586 171.40405273 C-68.00975586 165.95905273 -68.00975586 165.95905273 -66.99975586 160.40405273 C-68.97975586 161.39405273 -68.97975586 161.39405273 -70.99975586 162.40405273 C-73.33179398 162.48178734 -75.66814645 162.49373002 -77.99975586 162.40405273 C-77.85770845 160.82037526 -77.71095433 159.23711956 -77.56225586 157.65405273 C-77.48104492 156.77233398 -77.39983398 155.89061523 -77.31616211 154.98217773 C-77.03737121 152.71054821 -76.61185009 150.6055345 -75.99975586 148.40405273 C-77.31975586 148.40405273 -78.63975586 148.40405273 -79.99975586 148.40405273 C-79.36029686 142.9642714 -77.5722781 138.26412386 -75.56225586 133.21655273 C-75.2496582 132.41024414 -74.93706055 131.60393555 -74.61499023 130.77319336 C-73.27429044 127.36333743 -72.04494774 124.47184055 -69.99975586 121.40405273 C-66.37475586 120.21655273 -66.37475586 120.21655273 -62.99975586 119.40405273 C-63.32975586 118.76467773 -63.65975586 118.12530273 -63.99975586 117.46655273 C-66.44440297 109.97982097 -65.00199556 102.54647783 -61.99975586 95.40405273 C-60.32831564 92.27643354 -58.54972319 89.95738793 -55.07397461 88.71655273 C-51.58856592 88.08642235 -49.71290842 88.07831841 -46.42553711 89.57983398 C-41.87522723 93.00172564 -40.39005842 98.0262441 -38.99975586 103.40405273 C-38.72989298 107.38134088 -38.98460498 111.28303767 -39.31225586 115.25170898 C-39.20913086 116.29198242 -39.10600586 117.33225586 -38.99975586 118.40405273 C-36.71217233 120.17149518 -36.71217233 120.17149518 -33.99975586 121.40405273 C-30.24114152 125.0287497 -29.52314299 130.12697192 -28.31225586 135.02905273 C-28.08731445 135.90045898 -27.86237305 136.77186523 -27.63061523 137.66967773 C-25.99975586 144.07414677 -25.99975586 144.07414677 -25.99975586 146.40405273 C-27.31975586 146.73405273 -28.63975586 147.06405273 -29.99975586 147.40405273 C-29.66975586 148.06405273 -29.33975586 148.72405273 -28.99975586 149.40405273 C-27.54116865 148.75879296 -26.08289449 148.11282554 -24.62475586 147.46655273 C-23.81264648 147.1069043 -23.00053711 146.74725586 -22.16381836 146.37670898 C-20.76291801 145.74706244 -19.37350302 145.09092631 -17.99975586 144.40405273 C-17.9982893 143.71382963 -17.99682274 143.02360653 -17.99531174 142.31246758 C-17.95824662 125.51133823 -17.89923599 108.71044351 -17.81585312 91.90948296 C-17.77605781 83.78462267 -17.74366786 75.65985932 -17.72875977 67.53491211 C-17.71574575 60.45250785 -17.68878765 53.37031682 -17.64514279 46.28803265 C-17.62252211 42.5385864 -17.60684552 38.7894032 -17.60787201 35.03988266 C-17.60875701 30.85221459 -17.57850885 26.66532252 -17.5456543 22.4777832 C-17.55319984 20.61661613 -17.55319984 20.61661613 -17.56089783 18.71784973 C-17.43074025 8.01397867 -17.43074025 8.01397867 -12.99975586 3.40405273 C-8.93917281 0.06583088 -5.063273 -0.0308282 0 0 Z " fill="#FCFCFC" transform="translate(166.999755859375,75.595947265625)"/>
<path d="M0 0 C1.64826111 2.96687001 2.44271087 5.65626525 3 9 C3 7.68 3 6.36 3 5 C3.66 5 4.32 5 5 5 C5.33 6.32 5.66 7.64 6 9 C6.66 8.01 7.32 7.02 8 6 C8 7.65 8 9.3 8 11 C8.66 10.67 9.32 10.34 10 10 C10.33 11.98 10.66 13.96 11 16 C11.66 15.34 12.32 14.68 13 14 C12.79375 15.2375 12.5875 16.475 12.375 17.75 C11.92040516 21.30580345 12.27274636 22.85030219 14 26 C14.0777346 28.33203812 14.08967728 30.66839059 14 33 C14.66 32.67 15.32 32.34 16 32 C16.39258939 29.47907827 16.39258939 29.47907827 16.5 26.5625 C16.77854195 21.22145805 16.77854195 21.22145805 19 19 C19.33 19.66 19.66 20.32 20 21 C20.268125 19.906875 20.53625 18.81375 20.8125 17.6875 C21.87663739 14.38307337 22.34654664 13.05039578 25 11 C25.66 11.66 26.32 12.32 27 13 C28.485 11.02 28.485 11.02 30 9 C30.66 10.32 31.32 11.64 32 13 C32.99 13 33.98 13 35 13 C37.01151741 13.63106429 39.01363702 14.29373761 41 15 C38.17446016 19.23830976 35.87819112 18.97715348 31 20 C32.98 20.99 32.98 20.99 35 22 C32.53846154 26.8 32.53846154 26.8 29.8125 27.8125 C29.214375 27.874375 28.61625 27.93625 28 28 C29.65 28.66 31.3 29.32 33 30 C33 31.65 33 33.3 33 35 C34.65 33.02 36.3 31.04 38 29 C38.66 30.32 39.32 31.64 40 33 C43.18490007 33.2773501 43.18490007 33.2773501 46 31 C45.690625 31.5775 45.38125 32.155 45.0625 32.75 C43.63452043 35.7646204 43.63452043 35.7646204 43 39 C44.35444301 40.77190909 44.35444301 40.77190909 46 42 C42.6233144 43.12556187 40.43807549 42.6876151 37 42 C35.68 42.33 34.36 42.66 33 43 C36.96 45.475 36.96 45.475 41 48 C39.68 48.99 38.36 49.98 37 51 C37.66 52.32 38.32 53.64 39 55 C38.01 55 37.02 55 36 55 C35.67 55.66 35.34 56.32 35 57 C34.01 56.34 33.02 55.68 32 55 C28.88667752 55.66868314 28.88667752 55.66868314 27.8125 58.0625 C27.544375 58.701875 27.27625 59.34125 27 60 C26.34 58.68 25.68 57.36 25 56 C20.34947128 55.73067479 20.34947128 55.73067479 16 57 C15.37330801 59.16467461 14.84572626 61.35864524 14.375 63.5625 C14.11460937 64.76003906 13.85421875 65.95757812 13.5859375 67.19140625 C13.39257812 68.11824219 13.19921875 69.04507813 13 70 C15.64 70 18.28 70 21 70 C21.23668569 77.03482474 20.7879537 83.1834265 19 90 C20.52488037 89.99238647 20.52488037 89.99238647 22.08056641 89.98461914 C34.12239138 89.94421864 46.15530415 90.12296894 58.19433594 90.37231445 C61.36387368 90.43727197 64.53348144 90.49709955 67.703125 90.55664062 C80.48445204 90.80934929 93.23663262 91.27632222 106 92 C105.67 92.66 105.34 93.32 105 94 C85.6079257 94.85665771 66.22053248 95.31813631 46.8125 95.5625 C46.01546661 95.57284019 45.21843323 95.58318039 44.39724731 95.59383392 C4.43025093 96.10848602 -35.54034191 96.11008126 -75.50999433 96.12211341 C-80.79460477 96.12374068 -86.07921204 96.12666946 -91.36382109 96.13082403 C-158.72727686 96.18316567 -158.72727686 96.18316567 -188.96875 95.5546875 C-189.91682022 95.53527225 -190.86489044 95.51585701 -191.84169006 95.49585342 C-197.89581006 95.36692891 -203.94772075 95.19629344 -210 95 C-211.48507553 94.95533474 -211.48507553 94.95533474 -213.00015259 94.90976715 C-216.06373952 94.81417542 -219.12649872 94.70426613 -222.18945312 94.59033203 C-223.14114128 94.5615843 -224.09282944 94.53283657 -225.07335663 94.5032177 C-225.95056618 94.46736124 -226.82777573 94.43150478 -227.73156738 94.39456177 C-228.50891487 94.36667131 -229.28626236 94.33878086 -230.08716583 94.31004524 C-232 94 -232 94 -234 92 C-223.27005256 91.31771449 -212.5891733 90.91599918 -201.8359375 91.0078125 C-200.30431976 91.01962555 -200.30431976 91.01962555 -198.74176025 91.03167725 C-194.53860341 91.06806714 -190.3357015 91.11125502 -186.1328125 91.17138672 C-183.01298815 91.21340614 -179.8934651 91.23702223 -176.7734375 91.2578125 C-175.34093155 91.28574387 -175.34093155 91.28574387 -173.87948608 91.3142395 C-173.00321564 91.31769379 -172.12694519 91.32114807 -171.22412109 91.32470703 C-170.45393646 91.33438507 -169.68375183 91.34406311 -168.89022827 91.35403442 C-168.26645294 91.23720306 -167.64267761 91.1203717 -167 91 C-166.01 89.515 -166.01 89.515 -165 88 C-164.07380859 88.29003906 -164.07380859 88.29003906 -163.12890625 88.5859375 C-157.45651132 90.32996151 -151.80806965 91.78217894 -146 93 C-143.74754119 90.31158141 -142.11786042 88.35358125 -141 85 C-137.59936022 85.07018206 -134.32608225 85.26087061 -131 86 C-128.05218954 89.20791139 -128 90.59984196 -128 95 C-124.93722733 94.85873374 -121.87486458 94.71215604 -118.8125 94.5625 C-117.94818359 94.52318359 -117.08386719 94.48386719 -116.19335938 94.44335938 C-112.04085878 94.23652984 -108.05462138 93.99896469 -104 93 C-103.67 92.01 -103.34 91.02 -103 90 C-102.05896927 89.99635437 -101.11793854 89.99270874 -100.14839172 89.98895264 C-91.27590825 89.95199603 -82.40377164 89.89421626 -73.53155231 89.81609726 C-68.97032046 89.77660402 -64.40928219 89.74442468 -59.84790039 89.72900391 C-55.44508349 89.71384937 -51.04279873 89.67942558 -46.64021873 89.63169098 C-44.96137304 89.6168647 -43.28245137 89.60895827 -41.60354042 89.60811615 C-39.24984773 89.60574839 -36.89762797 89.5786869 -34.54418945 89.54589844 C-33.8515097 89.5509288 -33.15882996 89.55595917 -32.44515991 89.56114197 C-27.72867935 89.45961864 -25.28038549 88.37826922 -22 85 C-20.88331761 81.64995282 -20.8864058 79.16231946 -20.90234375 75.63256836 C-20.90564697 74.31788071 -20.9089502 73.00319305 -20.91235352 71.64866638 C-20.91647247 70.94653959 -20.92059143 70.2444128 -20.92483521 69.52100945 C-20.93759614 67.32328701 -20.9441135 65.1256249 -20.94897461 62.9278717 C-20.96040326 58.2643874 -20.97965178 53.6009528 -21 48.9375 C-21.02357253 43.53065408 -21.04396926 38.1238365 -21.05593872 32.71695137 C-21.06243593 30.54872485 -21.0749428 28.38058486 -21.08764648 26.21238708 C-21.09094971 24.90085159 -21.09425293 23.5893161 -21.09765625 22.23803711 C-21.10289307 21.07904404 -21.10812988 19.92005096 -21.11352539 18.72593689 C-21 16 -21 16 -20 14 C-21.65 14 -23.3 14 -25 14 C-24.67 12.68 -24.34 11.36 -24 10 C-19.25 9.875 -19.25 9.875 -17 11 C-16.67 10.01 -16.34 9.02 -16 8 C-14 11 -14 11 -14 13 C-13.34 13 -12.68 13 -12 13 C-11.67 12.34 -11.34 11.68 -11 11 C-10.67 12.32 -10.34 13.64 -10 15 C-7.48916886 13.74458443 -7.12874554 12.49936512 -6 10 C-3.56574762 14.96993194 -2.65384002 18.34605369 -3 24 C-1.02 23.505 -1.02 23.505 1 23 C1 23.66 1 24.32 1 25 C2.32 25 3.64 25 5 25 C4.38125 24.46375 3.7625 23.9275 3.125 23.375 C0.7217098 20.68896977 -0.06022153 18.44585438 -1 15 C0.32 15 1.64 15 3 15 C2.236875 14.401875 1.47375 13.80375 0.6875 13.1875 C-1.3483575 11.53040668 -3.1978279 9.89702326 -5 8 C-4.34 7.34 -3.68 6.68 -3 6 C-3.99 5.505 -3.99 5.505 -5 5 C-4.67 4.01 -4.34 3.02 -4 2 C-3.01 2 -2.02 2 -1 2 C-0.67 1.34 -0.34 0.68 0 0 Z " fill="#F4CFC9" transform="translate(268,178)"/>
<path d="M0 0 C0.99 0.495 0.99 0.495 2 1 C2.06957765 9.25817754 2.12285044 17.51623215 2.15543652 25.77463055 C2.17107795 29.60954343 2.19228805 33.44425545 2.22631836 37.27905273 C2.25896667 40.98137696 2.27686447 44.68350825 2.28463173 48.38596535 C2.29016547 49.79694467 2.30097164 51.20791369 2.31719017 52.61881065 C2.33903449 54.59822627 2.340226 56.57783693 2.34057617 58.55737305 C2.35056892 60.24614815 2.35056892 60.24614815 2.36076355 61.96903992 C1.84885729 66.26982761 0.24474857 68.70757255 -2.72131348 71.7872467 C-5.92200481 73.49070566 -8.92062641 73.42682907 -12.45898438 73.40405273 C-13.57676018 73.41434761 -13.57676018 73.41434761 -14.71711731 73.42485046 C-17.1761896 73.44312683 -19.63462448 73.43928037 -22.09375 73.43359375 C-23.80481168 73.4381548 -25.51587153 73.44346015 -27.22692871 73.44947815 C-30.81135505 73.4584106 -34.39555861 73.45598424 -37.97998047 73.44604492 C-42.57363097 73.43454833 -47.16651356 73.45477617 -51.76006317 73.48396206 C-55.29283533 73.50230556 -58.82542277 73.50203545 -62.35823059 73.49632454 C-64.05191628 73.49617113 -65.74561434 73.50223149 -67.43925476 73.51461601 C-69.80699916 73.52949184 -72.17331596 73.51887608 -74.54101562 73.50170898 C-75.590028 73.51621094 -75.590028 73.51621094 -76.66023254 73.53100586 C-80.03523851 73.47975529 -81.65680168 73.30103402 -84.23571777 71.03895569 C-84.81793091 70.36610031 -85.40014404 69.69324493 -86 69 C-88.32108669 68.29187186 -90.65377147 67.61975848 -93 67 C-94.52804308 63.94391385 -94.06545518 60.78263643 -93.984375 57.4375 C-93.96787903 56.69040771 -93.95138306 55.94331543 -93.93438721 55.17358398 C-93.89687861 53.59318875 -93.85633107 52.01286318 -93.81298828 50.43261719 C-93.75025499 48.00984791 -93.70883173 45.58728624 -93.66796875 43.1640625 C-93.62892068 41.63017425 -93.58859888 40.09631779 -93.546875 38.5625 C-93.53734802 37.83538818 -93.52782104 37.10827637 -93.51800537 36.35913086 C-93.44824219 34.31640625 -93.44824219 34.31640625 -93 31 C-92.01 30.34 -91.02 29.68 -90 29 C-89.67 29.33 -89.34 29.66 -89 30 C-86.29161914 30.09514592 -83.60881487 30.12554932 -80.90014648 30.11352539 C-79.62708649 30.11374443 -79.62708649 30.11374443 -78.32830811 30.1139679 C-75.50921109 30.11326848 -72.69017929 30.10547478 -69.87109375 30.09765625 C-67.92196183 30.09579217 -65.97282945 30.09436822 -64.0236969 30.09336853 C-58.88293168 30.08954255 -53.74219453 30.07971159 -48.60144043 30.06866455 C-43.35994852 30.05845215 -38.1184521 30.05387128 -32.87695312 30.04882812 C-22.58462108 30.03808939 -12.29231726 30.02049195 -2 30 C-2 20.43 -2 10.86 -2 1 C-1.34 0.67 -0.68 0.34 0 0 Z " fill="#FCFDFD" transform="translate(246,195)"/>
<path d="M0 0 C3.12749793 3.12749793 2.32542906 6.97182813 2.3359375 11.171875 C2.3459227 12.54463593 2.3459227 12.54463593 2.35610962 13.94512939 C2.36624831 15.88527412 2.37092626 17.82545381 2.37060547 19.765625 C2.37496253 22.72455053 2.41122395 25.68196519 2.44921875 28.640625 C2.45509 30.52603657 2.45905733 32.41145522 2.4609375 34.296875 C2.47530853 35.17833191 2.48967957 36.05978882 2.50448608 36.96795654 C2.49833282 37.80191956 2.49217957 38.63588257 2.48583984 39.49511719 C2.48868988 40.2218866 2.49153992 40.94865601 2.49447632 41.69744873 C2 44 2 44 -2 50 C6.25 50.33 14.5 50.66 23 51 C22.01 47.04 22.01 47.04 21 43 C20.76904493 38.97214361 20.90817251 35.04040955 21 31 C27.6 31 34.2 31 41 31 C41.18004053 38.11160094 40.80366114 44.1235419 39 51 C40.52488037 50.99238647 40.52488037 50.99238647 42.08056641 50.98461914 C54.12239138 50.94421864 66.15530415 51.12296894 78.19433594 51.37231445 C81.36387368 51.43727197 84.53348144 51.49709955 87.703125 51.55664062 C100.48445204 51.80934929 113.23663262 52.27632222 126 53 C125.67 53.66 125.34 54.32 125 55 C105.6079257 55.85665771 86.22053248 56.31813631 66.8125 56.5625 C66.01546661 56.57284019 65.21843323 56.58318039 64.39724731 56.59383392 C24.43025093 57.10848602 -15.54034191 57.11008126 -55.50999433 57.12211341 C-60.79460477 57.12374068 -66.07921204 57.12666946 -71.36382109 57.13082403 C-138.72727686 57.18316567 -138.72727686 57.18316567 -168.96875 56.5546875 C-169.91682022 56.53527225 -170.86489044 56.51585701 -171.84169006 56.49585342 C-177.89581006 56.36692891 -183.94772075 56.19629344 -190 56 C-191.48507553 55.95533474 -191.48507553 55.95533474 -193.00015259 55.90976715 C-196.06373952 55.81417542 -199.12649872 55.70426613 -202.18945312 55.59033203 C-203.14114128 55.5615843 -204.09282944 55.53283657 -205.07335663 55.5032177 C-205.95056618 55.46736124 -206.82777573 55.43150478 -207.73156738 55.39456177 C-208.50891487 55.36667131 -209.28626236 55.33878086 -210.08716583 55.31004524 C-212 55 -212 55 -214 53 C-203.27005256 52.31771449 -192.5891733 51.91599918 -181.8359375 52.0078125 C-180.30431976 52.01962555 -180.30431976 52.01962555 -178.74176025 52.03167725 C-174.53860341 52.06806714 -170.3357015 52.11125502 -166.1328125 52.17138672 C-163.01298815 52.21340614 -159.8934651 52.23702223 -156.7734375 52.2578125 C-155.34093155 52.28574387 -155.34093155 52.28574387 -153.87948608 52.3142395 C-153.00321564 52.31769379 -152.12694519 52.32114807 -151.22412109 52.32470703 C-150.45393646 52.33438507 -149.68375183 52.34406311 -148.89022827 52.35403442 C-148.26645294 52.23720306 -147.64267761 52.1203717 -147 52 C-146.34 51.01 -145.68 50.02 -145 49 C-144.07380859 49.29003906 -144.07380859 49.29003906 -143.12890625 49.5859375 C-137.45651132 51.32996151 -131.80806965 52.78217894 -126 54 C-123.74754119 51.31158141 -122.11786042 49.35358125 -121 46 C-117.59936022 46.07018206 -114.32608225 46.26087061 -111 47 C-108.05218954 50.20791139 -108 51.59984196 -108 56 C-104.93722733 55.85873374 -101.87486458 55.71215604 -98.8125 55.5625 C-97.94818359 55.52318359 -97.08386719 55.48386719 -96.19335938 55.44335938 C-92.04085878 55.23652984 -88.05462138 54.99896469 -84 54 C-83.67 53.01 -83.34 52.02 -83 51 C-82.05896927 50.99635437 -81.11793854 50.99270874 -80.14839172 50.98895264 C-71.27590825 50.95199603 -62.40377164 50.89421626 -53.53155231 50.81609726 C-48.97032046 50.77660402 -44.40928219 50.74442468 -39.84790039 50.72900391 C-35.44508349 50.71384937 -31.04279873 50.67942558 -26.64021873 50.63169098 C-24.96137304 50.6168647 -23.28245137 50.60895827 -21.60354042 50.60811615 C-19.24984773 50.60574839 -16.89762797 50.5786869 -14.54418945 50.54589844 C-13.8515097 50.5509288 -13.15882996 50.55595917 -12.44515991 50.56114197 C-7.72867935 50.45961864 -5.28038549 49.37826922 -2 46 C-1.08812389 43.26437166 -0.85269741 41.53854525 -0.79467773 38.7121582 C-0.77473251 37.85149246 -0.75478729 36.99082672 -0.73423767 36.1040802 C-0.71752518 35.17899155 -0.70081268 34.25390289 -0.68359375 33.30078125 C-0.6524221 31.87550362 -0.6524221 31.87550362 -0.62062073 30.4214325 C-0.55521948 27.38519544 -0.49628396 24.34887169 -0.4375 21.3125 C-0.39430583 19.25454831 -0.35069124 17.19660541 -0.30664062 15.13867188 C-0.19954769 10.09253684 -0.09825354 5.04631457 0 0 Z " fill="#D9DADF" transform="translate(248,217)"/>
<path d="M0 0 C1.58941406 0.01353516 1.58941406 0.01353516 3.2109375 0.02734375 C4.00757813 0.03894531 4.80421875 0.05054688 5.625 0.0625 C6.12 1.0525 6.12 1.0525 6.625 2.0625 C7.28886719 2.02769531 7.95273438 1.99289063 8.63671875 1.95703125 C17.43958146 1.68716247 17.43958146 1.68716247 21.625 5.0625 C22.625 6.0625 22.625 6.0625 23 9.1875 C22.50949661 14.25603506 20.80635306 16.16534251 17.625 20.0625 C18.42164063 20.01609375 19.21828125 19.9696875 20.0390625 19.921875 C29.78190111 19.59000215 29.78190111 19.59000215 33.3125 21.75 C35.84317792 24.28067792 36.625 25.49587843 36.625 29.0625 C34.625 31.0625 34.625 31.0625 32.28662109 31.28955078 C31.33352051 31.27907715 30.38041992 31.26860352 29.3984375 31.2578125 C27.8515625 31.24814453 27.8515625 31.24814453 26.2734375 31.23828125 C25.19320312 31.22152344 24.11296875 31.20476562 23 31.1875 C21.91203125 31.17847656 20.8240625 31.16945313 19.703125 31.16015625 C17.01019848 31.13653409 14.31770745 31.10359556 11.625 31.0625 C11.39043091 30.22235352 11.39043091 30.22235352 11.15112305 29.36523438 C10.44641585 27.1474289 9.71357607 25.12089839 8.625 23.0625 C6.1955698 21.69131976 6.1955698 21.69131976 3.4375 21.5625 C2.53644531 21.4490625 1.63539063 21.335625 0.70703125 21.21875 C0.01996094 21.1671875 -0.66710937 21.115625 -1.375 21.0625 C-1.49746094 21.66578125 -1.61992188 22.2690625 -1.74609375 22.890625 C-2.60930822 25.87166379 -4.37120111 27.73550774 -6.375 30.0625 C-12.82554982 28.70996536 -19.08605679 27.03189767 -25.375 25.0625 C-26.035 26.0525 -26.695 27.0425 -27.375 28.0625 C-30.125 28.42578125 -30.125 28.42578125 -33.375 28.375 C-34.98375 28.36919922 -34.98375 28.36919922 -36.625 28.36328125 C-39.375 28.0625 -39.375 28.0625 -41.375 26.0625 C-41.313125 24.763125 -41.25125 23.46375 -41.1875 22.125 C-41.0584029 20.00201103 -41.0584029 20.00201103 -41.375 18.0625 C-43.71290071 16.10914818 -43.71290071 16.10914818 -46.375 15.0625 C-47.77435013 12.26379973 -47.62765405 10.15751208 -47.375 7.0625 C-45.79312381 4.92845948 -44.93809611 4.15107692 -42.2890625 3.734375 C-41.53367187 3.76015625 -40.77828125 3.7859375 -40 3.8125 C-39.20980469 3.83828125 -38.41960937 3.8640625 -37.60546875 3.890625 C-35.13404936 4.08106712 -32.77612063 4.44285597 -30.375 5.0625 C-30.045 4.0725 -29.715 3.0825 -29.375 2.0625 C-28.21742187 2.00191406 -27.05984375 1.94132813 -25.8671875 1.87890625 C-24.32811543 1.79444498 -22.78905345 1.70979982 -21.25 1.625 C-20.48945312 1.58568359 -19.72890625 1.54636719 -18.9453125 1.50585938 C-15.6521412 1.32132822 -12.47541299 1.0794012 -9.21875 0.53125 C-6.09743256 0.01674713 -3.16094569 -0.03512162 0 0 Z " fill="#060C2A" transform="translate(128.375,241.9375)"/>
<path d="M0 0 C0.70548981 0.00202423 1.41097961 0.00404846 2.1378479 0.00613403 C3.24756454 0.00350555 3.24756454 0.00350555 4.37969971 0.00082397 C6.83686638 -0.00359453 9.29396168 -0.00065657 11.75112915 0.00271606 C13.45124322 0.00204302 15.1513572 0.001073 16.85147095 -0.00018311 C20.41926996 -0.00166008 23.98704398 0.00049445 27.55484009 0.00515747 C32.13851409 0.01085476 36.72212954 0.00757575 41.30580139 0.00158501 C44.81782476 -0.00202063 48.32983414 -0.00088201 51.84185791 0.0017128 C53.53243008 0.00238206 55.22300351 0.00155367 56.91357422 -0.00076675 C59.27222072 -0.00329332 61.6307711 0.00054735 63.9894104 0.00613403 C64.69490021 0.0041098 65.40039001 0.00208557 66.1272583 0 C70.94936644 0.02126585 70.94936644 0.02126585 72.06362915 1.13552856 C72.19644165 2.94802856 72.19644165 2.94802856 72.18862915 5.13552856 C72.19249634 6.21834106 72.19249634 6.21834106 72.19644165 7.32302856 C72.06362915 9.13552856 72.06362915 9.13552856 71.06362915 10.13552856 C68.66014629 10.23049564 66.28551933 10.26111718 63.88174438 10.24905396 C62.75498795 10.24927299 62.75498795 10.24927299 61.60546875 10.24949646 C59.11102456 10.2487972 56.61665412 10.24100421 54.1222229 10.23318481 C52.39729351 10.23132068 50.67236358 10.22989676 48.94743347 10.22889709 C44.39850412 10.22507154 39.84960648 10.21524094 35.3006897 10.20419312 C30.66242909 10.1939798 26.02416338 10.18939965 21.38589478 10.18435669 C12.27845893 10.1736187 3.17104667 10.15654183 -5.93637085 10.13552856 C-5.96326301 8.65645965 -5.98271706 7.17725374 -5.99887085 5.69802856 C-6.01047241 4.87431763 -6.02207397 4.05060669 -6.0340271 3.20193481 C-5.84279397 -0.84455828 -3.47717561 0.0153346 0 0 Z " fill="#FDFDFE" transform="translate(166.93637084960938,143.86447143554688)"/>
<path d="M0 0 C0.70548981 0.00202423 1.41097961 0.00404846 2.1378479 0.00613403 C3.24756454 0.00350555 3.24756454 0.00350555 4.37969971 0.00082397 C6.83686638 -0.00359453 9.29396168 -0.00065657 11.75112915 0.00271606 C13.45124322 0.00204302 15.1513572 0.001073 16.85147095 -0.00018311 C20.41926996 -0.00166008 23.98704398 0.00049445 27.55484009 0.00515747 C32.13851409 0.01085476 36.72212954 0.00757575 41.30580139 0.00158501 C44.81782476 -0.00202063 48.32983414 -0.00088201 51.84185791 0.0017128 C53.53243008 0.00238206 55.22300351 0.00155367 56.91357422 -0.00076675 C59.27222072 -0.00329332 61.6307711 0.00054735 63.9894104 0.00613403 C64.69490021 0.0041098 65.40039001 0.00208557 66.1272583 0 C70.94936644 0.02126585 70.94936644 0.02126585 72.06362915 1.13552856 C72.19644165 2.94802856 72.19644165 2.94802856 72.18862915 5.13552856 C72.19249634 6.21834106 72.19249634 6.21834106 72.19644165 7.32302856 C72.06362915 9.13552856 72.06362915 9.13552856 71.06362915 10.13552856 C68.6960134 10.23578552 66.35755842 10.27171792 63.9894104 10.2649231 C63.2495993 10.26667542 62.50978821 10.26842773 61.74755859 10.27023315 C59.29039192 10.27465166 56.83329662 10.2717137 54.37612915 10.26834106 C52.67601508 10.2690141 50.9759011 10.26998413 49.27578735 10.27124023 C45.70798834 10.27271721 42.14021432 10.27056268 38.57241821 10.26589966 C33.98874421 10.26020237 29.40512876 10.26348138 24.82145691 10.26947212 C21.30943355 10.27307776 17.79742417 10.27193914 14.28540039 10.26934433 C12.59482822 10.26867507 10.90425479 10.26950346 9.21368408 10.27182388 C6.85503758 10.27435045 4.4964872 10.27050978 2.1378479 10.2649231 C1.43235809 10.26694733 0.72686829 10.26897156 0 10.27105713 C-4.82210814 10.24979128 -4.82210814 10.24979128 -5.93637085 9.13552856 C-6.06918335 7.32302856 -6.06918335 7.32302856 -6.06137085 5.13552856 C-6.06394897 4.41365356 -6.0665271 3.69177856 -6.06918335 2.94802856 C-5.7898684 -0.86379902 -3.22140531 0.01420664 0 0 Z " fill="#FDFDFE" transform="translate(166.93637084960938,165.86447143554688)"/>
<path d="M0 0 C10.02227763 -0.0231241 20.04454897 -0.04091543 30.0668478 -0.05181217 C34.72011186 -0.05704085 39.37335774 -0.06413823 44.02661133 -0.07543945 C48.51344546 -0.08626886 53.00026204 -0.09227695 57.48710823 -0.09487724 C59.20280293 -0.0967314 60.91849662 -0.10035182 62.63418388 -0.10573006 C65.02884913 -0.11294121 67.42344096 -0.11399091 69.81811523 -0.11352539 C70.53452682 -0.11712067 71.25093842 -0.12071594 71.98905945 -0.12442017 C76.88594784 -0.11405216 76.88594784 -0.11405216 78 1 C78.1328125 2.8125 78.1328125 2.8125 78.125 5 C78.12886719 6.0828125 78.12886719 6.0828125 78.1328125 7.1875 C78 9 78 9 77 10 C74.62699131 10.09494733 72.28321297 10.12559319 69.90991211 10.11352539 C69.16849472 10.11367142 68.42707733 10.11381744 67.66319275 10.1139679 C65.20121379 10.11326865 62.73930957 10.10547574 60.27734375 10.09765625 C58.57483461 10.09579211 56.87232493 10.09436819 55.16981506 10.09336853 C50.68006927 10.08954302 46.19035562 10.07971247 41.70062256 10.06866455 C37.12268509 10.05845113 32.54474244 10.05387106 27.96679688 10.04882812 C18.97785043 10.03809022 9.98892788 10.02101341 1 10 C1.04125 9.21625 1.0825 8.4325 1.125 7.625 C1.28728734 4.83883881 1.28728734 4.83883881 -1 3 C-0.67 2.01 -0.34 1.02 0 0 Z " fill="#FDFDFE" transform="translate(161,209)"/>
<path d="M0 0 C0.79088516 -0.00686325 1.58177032 -0.0137265 2.3966217 -0.02079773 C5.00296132 -0.03905281 7.60869824 -0.03523013 10.21508789 -0.02954102 C12.03203018 -0.03410351 13.84897075 -0.03940929 15.66590881 -0.04542542 C19.47135434 -0.05435402 23.27658997 -0.05193633 27.08203125 -0.04199219 C31.95232751 -0.03050396 36.82189857 -0.05071287 41.69209957 -0.07990932 C45.4436959 -0.09827903 49.1951187 -0.09797732 52.94674873 -0.0922718 C54.74205098 -0.09211868 56.53736506 -0.09815589 58.33262444 -0.11056328 C60.8459067 -0.12548599 63.35785254 -0.11478767 65.87109375 -0.09765625 C66.60842743 -0.10732422 67.34576111 -0.11699219 68.10543823 -0.12695312 C73.20775165 -0.05433649 76.12705528 1.10659594 80.00024414 4.40405273 C83.93883173 8.90383678 83.40492615 13.84545782 83.34082031 19.51855469 C83.34147743 21.04120689 83.34147743 21.04120689 83.34214783 22.59461975 C83.34006072 25.94405465 83.31673274 29.2929867 83.29321289 32.64233398 C83.28761668 34.96689073 83.2833467 37.29145102 83.28034973 39.61601257 C83.26890304 45.73004957 83.23943708 51.84387229 83.20623779 57.95782471 C83.1755333 64.19833477 83.16184357 70.43887951 83.14672852 76.67944336 C83.11456745 88.92107389 83.06337298 101.16254548 83.00024414 113.40405273 C82.34024414 113.07405273 81.68024414 112.74405273 81.00024414 112.40405273 C80.99659851 111.13951263 80.99295288 109.87497253 80.98919678 108.57211304 C80.95225211 96.65375028 80.89448491 84.73564602 80.8163414 72.81748009 C80.77683603 66.69023951 80.74466238 60.56314332 80.72924805 54.43579102 C80.71410189 48.5222965 80.67969194 42.60919883 80.63193512 36.69588089 C80.61710038 34.44009475 80.60920193 32.18425196 80.60836029 29.92841721 C80.60599527 26.76801007 80.57895164 23.60870378 80.54614258 20.44848633 C80.55117294 19.51628265 80.55620331 18.58407898 80.56138611 17.62362671 C80.47039791 11.9568701 79.80273703 8.70334535 76.00024414 4.40405273 C72.30484012 3.1722514 68.89721036 3.27993161 65.05102539 3.30639648 C63.8921003 3.30851891 63.8921003 3.30851891 62.70976257 3.3106842 C60.24405025 3.31627807 57.77842899 3.32882941 55.31274414 3.34155273 C53.64021941 3.34656853 51.96769326 3.3511313 50.29516602 3.35522461 C46.19682368 3.36624549 42.09854935 3.38350589 38.00024414 3.40405273 C37.72180664 4.2097168 37.44336914 5.01538086 37.15649414 5.84545898 C36.58415039 7.11196289 36.58415039 7.11196289 36.00024414 8.40405273 C33.50024414 9.34155273 33.50024414 9.34155273 31.00024414 9.40405273 C28.86169564 7.26550424 28.57369351 6.2712996 28.00024414 3.40405273 C22.96490179 3.30495433 17.93013072 3.23247693 12.89404297 3.18432617 C11.18202828 3.16424769 9.47008186 3.13697882 7.75830078 3.10229492 C5.29320406 3.05360872 2.82901624 3.031047 0.36352539 3.01342773 C-0.39812424 2.99278259 -1.15977386 2.97213745 -1.94450378 2.9508667 C-5.64274366 2.94931565 -7.78948662 3.27357308 -10.95996094 5.2409668 C-14.11106638 8.58253403 -14.12868256 11.36974024 -14.15797424 15.77604675 C-14.16776306 16.89083908 -14.17755188 18.00563141 -14.18763733 19.15420532 C-14.19339279 20.37771698 -14.19914825 21.60122864 -14.20507812 22.86181641 C-14.21497772 24.1497258 -14.22487732 25.43763519 -14.2350769 26.76457214 C-14.26212085 30.29731981 -14.28313316 33.83008083 -14.30307889 37.36287475 C-14.32494159 41.0544667 -14.35232889 44.74601752 -14.37913513 48.43757629 C-14.42905818 55.42856583 -14.47399845 62.4195782 -14.5171575 69.4106124 C-14.56653319 77.36944521 -14.62145009 85.32823674 -14.67683709 93.28702962 C-14.79065117 109.65933262 -14.89749147 126.03167344 -14.99975586 142.40405273 C-15.65975586 142.73405273 -16.31975586 143.06405273 -16.99975586 143.40405273 C-17.09323244 126.03628511 -17.16375127 108.66859608 -17.20700455 91.30063438 C-17.22762238 83.23622601 -17.25572793 75.17197401 -17.30151367 67.10766602 C-17.34140547 60.0781095 -17.36719435 53.04866626 -17.37610984 46.0189997 C-17.38132068 42.29741939 -17.39355135 38.57616311 -17.42267609 34.85468674 C-17.45494003 30.69830758 -17.45571378 26.54249032 -17.45385742 22.38598633 C-17.46823853 21.15455902 -17.48261963 19.92313171 -17.49743652 18.65438843 C-17.44599611 8.02939961 -17.44599611 8.02939961 -12.99975586 3.40405273 C-8.93917281 0.06583088 -5.063273 -0.0308282 0 0 Z " fill="#7692F8" transform="translate(166.999755859375,75.595947265625)"/>
<path d="M0 0 C0.91765137 -0.00315216 1.83530273 -0.00630432 2.78076172 -0.009552 C4.27760498 -0.00651566 4.27760498 -0.00651566 5.8046875 -0.00341797 C6.82191895 -0.00437469 7.83915039 -0.00533142 8.88720703 -0.00631714 C11.04264386 -0.00699908 13.19808272 -0.00514382 15.35351562 -0.00097656 C18.66541121 0.00437148 21.97717117 -0.0009211 25.2890625 -0.00732422 C27.37760447 -0.00666344 29.46614635 -0.00538228 31.5546875 -0.00341797 C32.55258301 -0.0054422 33.55047852 -0.00746643 34.57861328 -0.009552 C35.49626465 -0.00639984 36.41391602 -0.00324768 37.359375 0 C38.17132324 0.00079559 38.98327148 0.00159119 39.81982422 0.00241089 C41.6796875 0.12939453 41.6796875 0.12939453 42.6796875 1.12939453 C42.7786169 3.2942025 42.8093985 5.46233238 42.8046875 7.62939453 C42.80855469 9.40830078 42.80855469 9.40830078 42.8125 11.22314453 C42.6796875 14.12939453 42.6796875 14.12939453 41.6796875 15.12939453 C40.24228397 15.2275344 38.80012423 15.25737733 37.359375 15.25878906 C36.44172363 15.26194122 35.52407227 15.26509338 34.57861328 15.26834106 C33.58071777 15.26631683 32.58282227 15.2642926 31.5546875 15.26220703 C30.53745605 15.26316376 29.52022461 15.26412048 28.47216797 15.2651062 C26.31673114 15.26578814 24.16129228 15.26393288 22.00585938 15.25976562 C18.69396379 15.25441758 15.38220383 15.25971016 12.0703125 15.26611328 C9.98177053 15.2654525 7.89322865 15.26417135 5.8046875 15.26220703 C4.30784424 15.26524338 4.30784424 15.26524338 2.78076172 15.26834106 C1.86311035 15.2651889 0.94545898 15.26203674 0 15.25878906 C-0.81194824 15.25799347 -1.62389648 15.25719788 -2.46044922 15.25637817 C-4.3203125 15.12939453 -4.3203125 15.12939453 -5.3203125 14.12939453 C-5.4192419 11.96458657 -5.4500235 9.79645668 -5.4453125 7.62939453 C-5.44789063 6.44345703 -5.45046875 5.25751953 -5.453125 4.03564453 C-5.24751023 -0.46369044 -4.08696134 0.00400464 0 0 Z " fill="#8AA1F8" transform="translate(181.3203125,241.87060546875)"/>
<path d="M0 0 C0.66 2.97 1.32 5.94 2 9 C2.66 8.67 3.32 8.34 4 8 C4.125 13.75 4.125 13.75 3 16 C0.69 16 -1.62 16 -4 16 C-3.34 22.6 -2.68 29.2 -2 36 C-10.58 36 -19.16 36 -28 36 C-26.68 33.69 -25.36 31.38 -24 29 C-23.38185016 26.32257277 -23.38185016 26.32257277 -23.390625 23.72265625 C-23.34228516 22.33530273 -23.34228516 22.33530273 -23.29296875 20.91992188 C-23.27169922 19.50549805 -23.27169922 19.50549805 -23.25 18.0625 C-23.22035156 17.09248047 -23.19070312 16.12246094 -23.16015625 15.12304688 C-23.08997606 12.74861702 -23.03702676 10.37513914 -23 8 C-22.67 8.99 -22.34 9.98 -22 11 C-21.34 11 -20.68 11 -20 11 C-20 10.34 -20 9.68 -20 9 C-19.360625 8.87625 -18.72125 8.7525 -18.0625 8.625 C-17.381875 8.41875 -16.70125 8.2125 -16 8 C-15.67 7.34 -15.34 6.68 -15 6 C-14.34 6 -13.68 6 -13 6 C-12.34 5.34 -11.68 4.68 -11 4 C-10.34 4.66 -9.68 5.32 -9 6 C-8.54625 5.195625 -8.0925 4.39125 -7.625 3.5625 C-5.23083706 -0.2129108 -4.57751518 0 0 0 Z " fill="#EEF2FD" transform="translate(273,232)"/>
<path d="M0 0 C0.763125 0.165 1.52625 0.33 2.3125 0.5 C5.03596236 1.09145396 5.03596236 1.09145396 8 1 C8 2.98 8 4.96 8 7 C8.33 4.69 8.66 2.38 9 0 C9.66 0.66 10.32 1.32 11 2 C10.67 2.99 10.34 3.98 10 5 C10.66 5 11.32 5 12 5 C12.33 4.01 12.66 3.02 13 2 C13.61875 2.185625 14.2375 2.37125 14.875 2.5625 C17.04160178 3.23686176 17.04160178 3.23686176 19 2 C19 3.98 19 5.96 19 8 C19.33 6.35 19.66 4.7 20 3 C21.32 3.33 22.64 3.66 24 4 C23.34 5.32 22.68 6.64 22 8 C22.99 8.33 23.98 8.66 25 9 C24.01 9.66 23.02 10.32 22 11 C21.27617533 13.05925139 21.27617533 13.05925139 21 15 C21.5878125 14.2575 21.5878125 14.2575 22.1875 13.5 C24.55091715 11.54406857 26.01435003 11.75792027 29 12 C29.495 13.485 29.495 13.485 30 15 C28.68 15.33 27.36 15.66 26 16 C26.99 16.66 27.98 17.32 29 18 C26.69 18 24.38 18 22 18 C22 18.66 22 19.32 22 20 C22.969375 20.28875 23.93875 20.5775 24.9375 20.875 C28 22 28 22 29 24 C27.88625 23.979375 26.7725 23.95875 25.625 23.9375 C22.16784079 23.73619282 22.16784079 23.73619282 20 25 C19.37330801 27.16467461 18.84572626 29.35864524 18.375 31.5625 C18.11460937 32.76003906 17.85421875 33.95757812 17.5859375 35.19140625 C17.39257812 36.11824219 17.19921875 37.04507813 17 38 C15.35 38 13.7 38 12 38 C12.33 35.36 12.66 32.72 13 30 C12.34 31.32 11.68 32.64 11 34 C9.26043342 32.26043342 9.62809614 29.8063378 9.4375 27.4375 C9.31181641 25.91962891 9.31181641 25.91962891 9.18359375 24.37109375 C9.12300781 23.58863281 9.06242187 22.80617187 9 22 C8.34 22 7.68 22 7 22 C6.67 22.66 6.34 23.32 6 24 C5.01 24 4.02 24 3 24 C2.01 26.31 1.02 28.62 0 31 C-0.66 29.68 -1.32 28.36 -2 27 C-2.556875 27.474375 -3.11375 27.94875 -3.6875 28.4375 C-6.18346074 30.12395996 -8.0446237 30.58953107 -11 31 C-11 31.66 -11 32.32 -11 33 C-11.66 33 -12.32 33 -13 33 C-13.33 31.68 -13.66 30.36 -14 29 C-13.34 29 -12.68 29 -12 29 C-12.33 28.01 -12.66 27.02 -13 26 C-11.35 25.34 -9.7 24.68 -8 24 C-8.66 23.34 -9.32 22.68 -10 22 C-5.34906653 20.10809486 -2.04356508 18.85165985 3 19 C3.66 18.34 4.32 17.68 5 17 C2.01758453 16.22678118 -0.97580475 15.58803797 -4 15 C-2.25 13 -2.25 13 0 11 C1.32 11 2.64 11 4 11 C4.33 10.34 4.66 9.68 5 9 C4.34 8.34 3.68 7.68 3 7 C3.33 6.01 3.66 5.02 4 4 C3.01 3.67 2.02 3.34 1 3 C0.67 2.01 0.34 1.02 0 0 Z " fill="#F8BBAE" transform="translate(264,210)"/>
<path d="M0 0 C0.33 0.66 0.66 1.32 1 2 C2.65 1.67 4.3 1.34 6 1 C6.495 3.475 6.495 3.475 7 6 C2.35014866 9.85273397 2.35014866 9.85273397 -0.64526367 11.11254883 C-3.41603373 12.89674891 -3.41603373 12.89674891 -3.56762695 16.73706055 C-3.56683644 18.28717207 -3.53864584 19.83742544 -3.48828125 21.38671875 C-3.48120651 22.20372757 -3.47413177 23.02073639 -3.46684265 23.86250305 C-3.43885512 26.47176737 -3.37611306 29.0788846 -3.3125 31.6875 C-3.28742256 33.45634921 -3.26460842 35.22523207 -3.24414062 36.99414062 C-3.18901471 41.33025424 -3.10271575 45.66476315 -3 50 C-6.465 50.495 -6.465 50.495 -10 51 C-10 48 -10 48 -8 45.75 C-5.72729407 43.06556686 -5.72729407 43.06556686 -5.4375 39.375 C-5.67730529 35.96653566 -5.67730529 35.96653566 -7.875 34.0625 C-12.27643626 32.56601167 -16.39552906 32.75860055 -21 33 C-26 18.3 -26 18.3 -26 13 C-24.02 12.34 -22.04 11.68 -20 11 C-20 11.99 -20 12.98 -20 14 C-11.10261512 10.34886349 -11.10261512 10.34886349 -4 4 C-2.66666667 2.66666667 -1.33333333 1.33333333 0 0 Z " fill="#EFF2FC" transform="translate(156,212)"/>
<path d="M0 0 C0.39058594 0.48339844 0.78117187 0.96679688 1.18359375 1.46484375 C3.53264406 3.45017014 5.02291556 3.42372663 8.0625 3.5625 C12.79166667 3.79166667 12.79166667 3.79166667 15 6 C15.1721221 8.8706466 15.23223075 11.63252342 15.1875 14.5 C15.18685547 15.28503906 15.18621094 16.07007812 15.18554688 16.87890625 C15.14046848 22.71906304 15.14046848 22.71906304 14 25 C10.52085059 25.02887814 7.04173169 25.04675687 3.5625 25.0625 C2.07266602 25.07506836 2.07266602 25.07506836 0.55273438 25.08789062 C-0.39150391 25.09111328 -1.33574219 25.09433594 -2.30859375 25.09765625 C-3.62041626 25.10551147 -3.62041626 25.10551147 -4.95874023 25.11352539 C-7 25 -7 25 -8 24 C-8.12667764 21.00981839 -8.18520838 18.05305892 -8.1875 15.0625 C-8.19974609 14.22525391 -8.21199219 13.38800781 -8.22460938 12.52539062 C-8.22654297 11.72423828 -8.22847656 10.92308594 -8.23046875 10.09765625 C-8.23457764 9.36039307 -8.23868652 8.62312988 -8.24291992 7.86352539 C-8 6 -8 6 -6 4 C-4.01178687 3.60235737 -2.01055661 3.26224651 0 3 C0 2.01 0 1.02 0 0 Z " fill="#DCE2FB" transform="translate(305,69)"/>
<path d="M0 0 C1.93945312 -0.35644531 1.93945312 -0.35644531 4.28125 -0.328125 C5.12300781 -0.32296875 5.96476562 -0.3178125 6.83203125 -0.3125 C8.15267578 -0.2815625 8.15267578 -0.2815625 9.5 -0.25 C10.38042969 -0.24484375 11.26085937 -0.2396875 12.16796875 -0.234375 C18.69108124 -0.15445938 18.69108124 -0.15445938 21 1 C21 4.63 21 8.26 21 12 C22.65 12.66 24.3 13.32 26 14 C25.67 14.66 25.34 15.32 25 16 C23.68 15.34 22.36 14.68 21 14 C21.020625 14.969375 21.04125 15.93875 21.0625 16.9375 C21 20 21 20 20 21 C16.69561091 21.2776444 13.37717866 21.23174988 10.0625 21.25 C9.12986328 21.270625 8.19722656 21.29125 7.23632812 21.3125 C6.34494141 21.31765625 5.45355469 21.3228125 4.53515625 21.328125 C3.30357788 21.34214355 3.30357788 21.34214355 2.04711914 21.35644531 C1.03379517 21.18000488 1.03379517 21.18000488 0 21 C-2.41564046 17.37653931 -2.29781669 14.68396018 -2.25 10.5 C-2.25773437 9.82324219 -2.26546875 9.14648438 -2.2734375 8.44921875 C-2.25884811 4.75080743 -2.10264442 3.15396663 0 0 Z " fill="#DDE3FB" transform="translate(348,123)"/>
<path d="M0 0 C5.79751219 7.92326665 7.32051978 16.87361064 5.875 26.5625 C4.885 27.2225 3.895 27.8825 2.875 28.5625 C2.875 27.9025 2.875 27.2425 2.875 26.5625 C1.555 26.2325 0.235 25.9025 -1.125 25.5625 C-1.75 23.75 -1.75 23.75 -2.125 21.5625 C-1.465 20.5725 -0.805 19.5825 -0.125 18.5625 C0.26513716 16.5728005 0.60702649 14.57230131 0.875 12.5625 C0.153125 12.48 -0.56875 12.3975 -1.3125 12.3125 C-4.67813254 11.41499799 -6.54112816 9.8510722 -9.125 7.5625 C-10.115 9.8725 -11.105 12.1825 -12.125 14.5625 C-12.785 14.5625 -13.445 14.5625 -14.125 14.5625 C-13.609375 15.449375 -13.09375 16.33625 -12.5625 17.25 C-11.0381063 20.76273331 -10.97552105 22.00956507 -12.125 25.5625 C-13.115 25.8925 -14.105 26.2225 -15.125 26.5625 C-14.465 28.2125 -13.805 29.8625 -13.125 31.5625 C-16.06076279 30.550168 -17.10012741 29.59892058 -18.875 27 C-21.64146572 19.39221928 -20.25906401 11.90018954 -17.125 4.5625 C-15.30830967 1.57101659 -13.41039738 -0.81553353 -10.1875 -2.375 C-6.28942251 -2.49312356 -3.28322698 -2.22100648 0 0 Z " fill="#070606" transform="translate(122.125,166.4375)"/>
<path d="M0 0 C0.66 0.33 1.32 0.66 2 1 C2.4140625 3.94140625 2.4140625 3.94140625 2.625 7.5625 C2.69976562 8.76003906 2.77453125 9.95757812 2.8515625 11.19140625 C2.90054688 12.11824219 2.94953125 13.04507813 3 14 C5.97 14 8.94 14 12 14 C12 14.66 12 15.32 12 16 C13.3921875 16.0928125 13.3921875 16.0928125 14.8125 16.1875 C18 17 18 17 19.8125 19.1875 C21.06339812 22.15015344 21.62945573 24.81331931 22 28 C21.236875 27.79375 20.47375 27.5875 19.6875 27.375 C16.78114056 26.66608797 16.78114056 26.66608797 14 29 C16.6739124 29.89130413 19.23723823 30.47731534 22 31 C21.67 32.32 21.34 33.64 21 35 C19.783125 34.95875 18.56625 34.9175 17.3125 34.875 C13.78105873 34.86245492 11.19996434 35.40001783 8 37 C8.33 37.99 8.66 38.98 9 40 C7.35 40.66 5.7 41.32 4 42 C4 42.66 4 43.32 4 44 C3.34 44 2.68 44 2 44 C1.67 36.74 1.34 29.48 1 22 C0.34 22 -0.32 22 -1 22 C-1.02887814 18.52085059 -1.04675687 15.04173169 -1.0625 11.5625 C-1.07087891 10.56927734 -1.07925781 9.57605469 -1.08789062 8.55273438 C-1.09111328 7.60849609 -1.09433594 6.66425781 -1.09765625 5.69140625 C-1.10289307 4.81685791 -1.10812988 3.94230957 -1.11352539 3.04125977 C-1 1 -1 1 0 0 Z " fill="#EEF0F5" transform="translate(248,195)"/>
<path d="M0 0 C6.6 0 13.2 0 20 0 C20.18607962 7.25710537 19.97976919 13.97687718 18 21 C17 22 17 22 13.83984375 22.09765625 C12.55207031 22.08605469 11.26429688 22.07445312 9.9375 22.0625 C8.64714844 22.05347656 7.35679687 22.04445313 6.02734375 22.03515625 C5.02832031 22.02355469 4.02929688 22.01195312 3 22 C0.33520234 14.1832602 -0.09037147 8.31417553 0 0 Z " fill="#ACBCF7" transform="translate(269,248)"/>
<path d="M0 0 C11.88 0 23.76 0 36 0 C36 2.97 36 5.94 36 9 C34.2670702 10.7329298 32.03785664 10.12820046 29.72851562 10.13894653 C28.99310547 10.1369223 28.25769531 10.13489807 27.5 10.1328125 C26.74912109 10.13376923 25.99824219 10.13472595 25.22460938 10.13571167 C23.63411373 10.13639338 22.04361533 10.13453972 20.453125 10.13037109 C18.01035345 10.12502267 15.56776579 10.13031634 13.125 10.13671875 C11.58333293 10.13605797 10.04166597 10.1347768 8.5 10.1328125 C7.76458984 10.13483673 7.02917969 10.13686096 6.27148438 10.13894653 C1.11495161 10.11495161 1.11495161 10.11495161 0 9 C0 6.03 0 3.06 0 0 Z " fill="#FDFDFE" transform="translate(161,123)"/>
<path d="M0 0 C2.64 0 5.28 0 8 0 C8 4.62 8 9.24 8 14 C6.67613281 13.88914063 5.35226563 13.77828125 3.98828125 13.6640625 C-1.63501125 13.66626469 -4.6014891 15.8840065 -8.8125 19.375 C-10.08800012 20.38514481 -11.36528939 21.39303542 -12.64453125 22.3984375 C-13.46981323 23.07398682 -13.46981323 23.07398682 -14.31176758 23.76318359 C-18.59686097 26.90248701 -21.67737521 27.20471634 -27 27 C-26.85851011 25.3954444 -26.71164314 23.79136233 -26.5625 22.1875 C-26.48128906 21.29417969 -26.40007812 20.40085938 -26.31640625 19.48046875 C-26 17 -26 17 -25 14 C-23.72125 14.268125 -22.4425 14.53625 -21.125 14.8125 C-15.14454123 15.46337012 -10.81691787 13.44666026 -6 10 C-3.14401711 7.00677309 -1.31643109 3.94929326 0 0 Z " fill="#DA955D" transform="translate(116,211)"/>
<path d="M0 0 C5.85659906 1.66153012 11.4590134 3.47041916 17 6 C17 6.33 17 6.66 17 7 C9.29616583 7.02350257 1.59234057 7.04110321 -6.11152077 7.05181217 C-9.69138509 7.05696018 -13.27122433 7.06390429 -16.85107422 7.07543945 C-30.53649571 7.11820694 -44.22088378 7.15749226 -57.8984375 6.62109375 C-59.26036728 6.57517845 -59.26036728 6.57517845 -60.64981079 6.52833557 C-66.75848653 6.24151347 -66.75848653 6.24151347 -69 4 C-58.27005256 3.31771449 -47.5891733 2.91599918 -36.8359375 3.0078125 C-35.30431976 3.01962555 -35.30431976 3.01962555 -33.74176025 3.03167725 C-29.53860341 3.06806714 -25.3357015 3.11125502 -21.1328125 3.17138672 C-18.01298815 3.21340614 -14.8934651 3.23702223 -11.7734375 3.2578125 C-10.34093155 3.28574387 -10.34093155 3.28574387 -8.87948608 3.3142395 C-8.00321564 3.31769379 -7.12694519 3.32114807 -6.22412109 3.32470703 C-5.45393646 3.33438507 -4.68375183 3.34406311 -3.89022827 3.35403442 C-2.95456528 3.17878738 -2.95456528 3.17878738 -2 3 C-1.34 2.01 -0.68 1.02 0 0 Z " fill="#D9DADE" transform="translate(103,266)"/>
<path d="M0 0 C0.33 0.66 0.66 1.32 1 2 C2.65 1.67 4.3 1.34 6 1 C6.495 3.475 6.495 3.475 7 6 C2.91916782 9.43649026 -1.40218239 12.22069673 -5.9375 15 C-7.32215569 15.85328922 -8.70627862 16.70744363 -10.08984375 17.5625 C-10.75129395 17.97000488 -11.41274414 18.37750977 -12.09423828 18.79736328 C-13.88234213 19.92575164 -15.62350005 21.10364988 -17.36328125 22.3046875 C-20 24 -20 24 -22.25 24.125 C-25.02350404 22.34203311 -25.26654491 20.11718413 -26 17 C-26 15.68 -26 14.36 -26 13 C-24.02 12.34 -22.04 11.68 -20 11 C-20 11.99 -20 12.98 -20 14 C-11.10261512 10.34886349 -11.10261512 10.34886349 -4 4 C-2.66666667 2.66666667 -1.33333333 1.33333333 0 0 Z " fill="#D9945D" transform="translate(156,212)"/>
<path d="M0 0 C1.64826111 2.96687001 2.44271087 5.65626525 3 9 C3 7.68 3 6.36 3 5 C3.66 5 4.32 5 5 5 C5.33 6.32 5.66 7.64 6 9 C6.66 8.01 7.32 7.02 8 6 C8 7.65 8 9.3 8 11 C8.66 10.67 9.32 10.34 10 10 C10.33 11.98 10.66 13.96 11 16 C11.66 15.34 12.32 14.68 13 14 C12.690625 15.85625 12.690625 15.85625 12.375 17.75 C11.90082268 21.02956384 11.90082268 21.02956384 13.0625 24.0625 C14.60626666 27.2529511 13.10625599 29.80414937 12 33 C11.67 31.68 11.34 30.36 11 29 C10.34 30.32 9.68 31.64 9 33 C5.46627288 31.03681826 2.75520215 28.95929119 0 26 C0 27.65 0 29.3 0 31 C-0.66 30.67 -1.32 30.34 -2 30 C-2.625 26.9375 -2.625 26.9375 -3 24 C-1.68 23.67 -0.36 23.34 1 23 C1 23.66 1 24.32 1 25 C2.32 25 3.64 25 5 25 C4.38125 24.46375 3.7625 23.9275 3.125 23.375 C0.7217098 20.68896977 -0.06022153 18.44585438 -1 15 C0.32 15 1.64 15 3 15 C2.236875 14.401875 1.47375 13.80375 0.6875 13.1875 C-1.3483575 11.53040668 -3.1978279 9.89702326 -5 8 C-4.34 7.34 -3.68 6.68 -3 6 C-3.66 5.67 -4.32 5.34 -5 5 C-4.67 4.01 -4.34 3.02 -4 2 C-3.01 2 -2.02 2 -1 2 C-0.67 1.34 -0.34 0.68 0 0 Z " fill="#F5C9C1" transform="translate(268,178)"/>
<path d="M0 0 C3.12749793 3.12749793 2.32542906 6.97182813 2.3359375 11.171875 C2.3459227 12.54463593 2.3459227 12.54463593 2.35610962 13.94512939 C2.36624831 15.88527412 2.37092626 17.82545381 2.37060547 19.765625 C2.37496253 22.72455053 2.41122395 25.68196519 2.44921875 28.640625 C2.45509 30.52603657 2.45905733 32.41145522 2.4609375 34.296875 C2.47530853 35.17833191 2.48967957 36.05978882 2.50448608 36.96795654 C2.46387988 42.47139329 1.72286709 45.6739777 -2 50 C-4.95727467 52.90651656 -7.27618484 53.34733193 -11.38420105 53.3732605 C-12.44263969 53.35708176 -12.44263969 53.35708176 -13.52246094 53.34057617 C-14.27406998 53.34101425 -15.02567902 53.34145233 -15.80006409 53.34190369 C-18.27843418 53.33981766 -20.75612343 53.31649603 -23.234375 53.29296875 C-24.95501333 53.28737212 -26.67565645 53.28310234 -28.39630127 53.28010559 C-32.92064661 53.26866208 -37.44470212 53.2391992 -41.96893311 53.20599365 C-46.58732177 53.1752821 -51.20575736 53.16159794 -55.82421875 53.14648438 C-64.8829397 53.11432899 -73.94144573 53.06313862 -83 53 C-83 52.34 -83 51.68 -83 51 C-81.5884539 50.99453156 -81.5884539 50.99453156 -80.14839172 50.98895264 C-71.27590825 50.95199603 -62.40377164 50.89421626 -53.53155231 50.81609726 C-48.97032046 50.77660402 -44.40928219 50.74442468 -39.84790039 50.72900391 C-35.44508349 50.71384937 -31.04279873 50.67942558 -26.64021873 50.63169098 C-24.96137304 50.6168647 -23.28245137 50.60895827 -21.60354042 50.60811615 C-19.24984773 50.60574839 -16.89762797 50.5786869 -14.54418945 50.54589844 C-13.8515097 50.5509288 -13.15882996 50.55595917 -12.44515991 50.56114197 C-7.72867935 50.45961864 -5.28038549 49.37826922 -2 46 C-1.08812389 43.26437166 -0.85269741 41.53854525 -0.79467773 38.7121582 C-0.77473251 37.85149246 -0.75478729 36.99082672 -0.73423767 36.1040802 C-0.71752518 35.17899155 -0.70081268 34.25390289 -0.68359375 33.30078125 C-0.6524221 31.87550362 -0.6524221 31.87550362 -0.62062073 30.4214325 C-0.55521948 27.38519544 -0.49628396 24.34887169 -0.4375 21.3125 C-0.39430583 19.25454831 -0.35069124 17.19660541 -0.30664062 15.13867188 C-0.19954769 10.09253684 -0.09825354 5.04631457 0 0 Z " fill="#7D98F9" transform="translate(248,217)"/>
<path d="M0 0 C0.54269531 0.34933594 1.08539063 0.69867188 1.64453125 1.05859375 C2.35996094 1.51363281 3.07539062 1.96867188 3.8125 2.4375 C4.87404297 3.11619141 4.87404297 3.11619141 5.95703125 3.80859375 C8.08134552 5.14086339 8.08134552 5.14086339 11 6 C11.25 11.625 11.25 11.625 9 15 C9.33820153 17.01954441 9.33820153 17.01954441 10 19 C10 22 10 22 8.4375 23.75 C4.90994481 25.55900266 2.77315158 25.0106656 -1 24 C-3.4375 21.9375 -3.4375 21.9375 -5 20 C-4.484375 19.5875 -3.96875 19.175 -3.4375 18.75 C-2.963125 18.1725 -2.48875 17.595 -2 17 C-2.19471111 15.05000871 -2.19471111 15.05000871 -3 13 C-3.34060811 11.33480481 -3.67558396 9.66842534 -4 8 C-3.34 8 -2.68 8 -2 8 C-1.7834375 6.576875 -1.7834375 6.576875 -1.5625 5.125 C-1 2 -1 2 0 0 Z " fill="#DC9760" transform="translate(112,173)"/>
<path d="M0 0 C1.25941406 -0.03738281 2.51882812 -0.07476562 3.81640625 -0.11328125 C8.06114227 0.3858301 10.16567347 1.6113981 13.4375 4.3125 C14.4375 6.9375 14.4375 6.9375 14.4375 9.3125 C12.4375 11.3125 12.4375 11.3125 10.09912109 11.53955078 C9.14602051 11.52907715 8.19291992 11.51860352 7.2109375 11.5078125 C5.6640625 11.49814453 5.6640625 11.49814453 4.0859375 11.48828125 C3.00570312 11.47152344 1.92546875 11.45476562 0.8125 11.4375 C-0.27546875 11.42847656 -1.3634375 11.41945313 -2.484375 11.41015625 C-5.17730152 11.38653409 -7.86979255 11.35359556 -10.5625 11.3125 C-10.76746094 10.75820313 -10.97242188 10.20390625 -11.18359375 9.6328125 C-11.45300781 8.90835937 -11.72242188 8.18390625 -12 7.4375 C-12.26683594 6.71820313 -12.53367188 5.99890625 -12.80859375 5.2578125 C-13.54166854 3.27601155 -13.54166854 3.27601155 -14.5625 1.3125 C-9.68532011 0.53844435 -4.94916781 0.09644532 0 0 Z " fill="#030303" transform="translate(150.5625,261.6875)"/>
<path d="M0 0 C5.13206989 2.09948314 7.44436536 4.068578 10 9 C10.55130147 12.41613413 10.50633552 15.77422178 10.45410156 19.22802734 C10.45468567 20.24327484 10.45526978 21.25852234 10.45587158 22.30453491 C10.45309258 25.64868775 10.42200816 28.99194103 10.390625 32.3359375 C10.38316199 34.65906284 10.37746934 36.98219448 10.37347412 39.30532837 C10.35822271 45.41120878 10.31894454 51.51670687 10.2746582 57.62243652 C10.23369523 63.85631132 10.21546087 70.09024807 10.1953125 76.32421875 C10.1524503 88.54964688 10.08420446 100.77479161 10 113 C9.34 112.67 8.68 112.34 8 112 C7.99453156 110.10318985 7.99453156 110.10318985 7.98895264 108.1680603 C7.95200797 96.24969754 7.89424077 84.33159329 7.81609726 72.41342735 C7.77659189 66.28618678 7.74441824 60.15909058 7.72900391 54.03173828 C7.71385775 48.11824376 7.6794478 42.20514609 7.63169098 36.29182816 C7.61685624 34.03604202 7.60895779 31.78019923 7.60811615 29.52436447 C7.60575113 26.36395733 7.5787075 23.20465104 7.54589844 20.04443359 C7.5509288 19.11222992 7.55595917 18.18002625 7.56114197 17.21957397 C7.47015377 11.55281737 6.80249289 8.29929262 3 4 C2.01 3.67 1.02 3.34 0 3 C0 2.01 0 1.02 0 0 Z " fill="#809AF8" transform="translate(240,76)"/>
<path d="M0 0 C0.433125 0.66 0.86625 1.32 1.3125 2 C2.1478125 2.99 2.1478125 2.99 3 4 C3.99 4 4.98 4 6 4 C8.01151741 4.63106429 10.01363702 5.29373761 12 6 C9.17446016 10.23830976 6.87819112 9.97715348 2 11 C3.32 11.66 4.64 12.32 6 13 C3.53846154 17.8 3.53846154 17.8 0.8125 18.8125 C0.214375 18.874375 -0.38375 18.93625 -1 19 C1.475 19.99 1.475 19.99 4 21 C3.67 22.32 3.34 23.64 3 25 C3 24.01 3 23.02 3 22 C-0.96 22.495 -0.96 22.495 -5 23 C-5 23.66 -5 24.32 -5 25 C-5.99 25.33 -6.98 25.66 -8 26 C-8.144375 25.21625 -8.28875 24.4325 -8.4375 23.625 C-8.87798925 21.03578982 -8.87798925 21.03578982 -10 19 C-9.66567958 16.67416741 -9.2340706 14.36183534 -8.75 12.0625 C-8.49734375 10.81597656 -8.2446875 9.56945312 -7.984375 8.28515625 C-7.05613773 5.18734854 -6.51863157 3.91727291 -4 2 C-3.34 2.66 -2.68 3.32 -2 4 C-1.34 2.68 -0.68 1.36 0 0 Z " fill="#F6C7BF" transform="translate(297,187)"/>
<path d="M0 0 C1.6777567 0.27206865 3.34450469 0.61500109 5 1 C5.99 1.2165625 5.99 1.2165625 7 1.4375 C9.41395292 2.11642426 11.68688631 3.03620263 14 4 C13.01 4.66 12.02 5.32 11 6 C13.6739124 6.89130413 16.23723823 7.47731534 19 8 C18.67 9.32 18.34 10.64 18 12 C16.783125 11.95875 15.56625 11.9175 14.3125 11.875 C10.78105873 11.86245492 8.19996434 12.40001783 5 14 C5.33 14.99 5.66 15.98 6 17 C4.35 17.66 2.7 18.32 1 19 C1 19.66 1 20.32 1 21 C0.34 21 -0.32 21 -1 21 C-1.02888146 17.68751813 -1.04675799 14.37506833 -1.0625 11.0625 C-1.07087891 10.11697266 -1.07925781 9.17144531 -1.08789062 8.19726562 C-1.09111328 7.29814453 -1.09433594 6.39902344 -1.09765625 5.47265625 C-1.10289307 4.64000244 -1.10812988 3.80734863 -1.11352539 2.94946289 C-1 1 -1 1 0 0 Z " fill="#EFF1F8" transform="translate(251,218)"/>
<path d="M0 0 C0.66 1.32 1.32 2.64 2 4 C1.34 4 0.68 4 0 4 C0.20625 5.093125 0.4125 6.18625 0.625 7.3125 C1 11 1 11 -1 14 C-1.99 14 -2.98 14 -4 14 C-4.99 16.31 -5.98 18.62 -7 21 C-7.66 19.68 -8.32 18.36 -9 17 C-9.556875 17.474375 -10.11375 17.94875 -10.6875 18.4375 C-13.18346074 20.12395996 -15.0446237 20.58953107 -18 21 C-18 21.66 -18 22.32 -18 23 C-18.66 23 -19.32 23 -20 23 C-20.33 21.68 -20.66 20.36 -21 19 C-20.34 19 -19.68 19 -19 19 C-19.33 18.01 -19.66 17.02 -20 16 C-18.35 15.34 -16.7 14.68 -15 14 C-15.66 13.34 -16.32 12.68 -17 12 C-12.34906653 10.10809486 -9.04356508 8.85165985 -4 9 C-3.34 8.34 -2.68 7.68 -2 7 C-4.98241547 6.22678118 -7.97580475 5.58803797 -11 5 C-9.25 3 -9.25 3 -7 1 C-5.68 1 -4.36 1 -3 1 C-2.67 1.66 -2.34 2.32 -2 3 C-1.34 3 -0.68 3 0 3 C0 2.01 0 1.02 0 0 Z " fill="#F5CEC8" transform="translate(271,220)"/>
<path d="M0 0 C0.66 0 1.32 0 2 0 C2 0.66 2 1.32 2 2 C5.28696233 2.79953138 6.71023192 3.09658936 10 2 C11.5 3.3125 11.5 3.3125 13 5 C13 5.99 13 6.98 13 8 C13.33 8.99 13.66 9.98 14 11 C13.01 11 12.02 11 11 11 C10.67 11.66 10.34 12.32 10 13 C9.01 12.34 8.02 11.68 7 11 C3.88667752 11.66868314 3.88667752 11.66868314 2.8125 14.0625 C2.544375 14.701875 2.27625 15.34125 2 16 C1.1646875 14.576875 1.1646875 14.576875 0.3125 13.125 C-2.06570302 9.91121213 -3.24034426 9.04434882 -7 8 C-7 7.34 -7 6.68 -7 6 C-5.68 5.67 -4.36 5.34 -3 5 C-3.33 4.34 -3.66 3.68 -4 3 C-3.01 2.34 -2.02 1.68 -1 1 C-0.67 0.67 -0.34 0.34 0 0 Z " fill="#F2DAD8" transform="translate(293,222)"/>
<path d="M0 0 C1.1446875 0.2475 1.1446875 0.2475 2.3125 0.5 C5.03596236 1.09145396 5.03596236 1.09145396 8 1 C8 2.98 8 4.96 8 7 C8.33 4.69 8.66 2.38 9 0 C9.66 0.66 10.32 1.32 11 2 C10.67 2.99 10.34 3.98 10 5 C10.66 5 11.32 5 12 5 C12.33 4.01 12.66 3.02 13 2 C13.61875 2.185625 14.2375 2.37125 14.875 2.5625 C17.04160178 3.23686176 17.04160178 3.23686176 19 2 C19 3.98 19 5.96 19 8 C19.33 6.35 19.66 4.7 20 3 C21.32 3.33 22.64 3.66 24 4 C23.34 5.32 22.68 6.64 22 8 C22.99 8.33 23.98 8.66 25 9 C24.01 9.66 23.02 10.32 22 11 C20.93753473 12.96752828 19.92862192 14.96587579 19 17 C18.01 16.67 17.02 16.34 16 16 C16.66 14.02 17.32 12.04 18 10 C16.35 10.33 14.7 10.66 13 11 C12.34 9.68 11.68 8.36 11 7 C10.67 9.31 10.34 11.62 10 14 C9.34 13.34 8.68 12.68 8 12 C7.01 12.495 7.01 12.495 6 13 C5.87625 12.38125 5.7525 11.7625 5.625 11.125 C5.12802644 8.80879168 5.12802644 8.80879168 3 7 C3.33 6.01 3.66 5.02 4 4 C3.01 3.67 2.02 3.34 1 3 C0.67 2.01 0.34 1.02 0 0 Z " fill="#F8BFB4" transform="translate(264,210)"/>
<path d="M0 0 C2 3 2 3 2 5 C2.66 5 3.32 5 4 5 C4.33 4.34 4.66 3.68 5 3 C5.18175781 3.90492188 5.18175781 3.90492188 5.3671875 4.828125 C5.53476562 5.62734375 5.70234375 6.4265625 5.875 7.25 C6.11863281 8.43335938 6.11863281 8.43335938 6.3671875 9.640625 C6.99150075 11.96831144 7.84838542 13.89031952 9 16 C7.5199159 15.88637738 6.04089926 15.75877092 4.5625 15.625 C3.73878906 15.55539063 2.91507813 15.48578125 2.06640625 15.4140625 C1.38449219 15.27742187 0.70257813 15.14078125 0 15 C-0.33 14.34 -0.66 13.68 -1 13 C-0.34 12.67 0.32 12.34 1 12 C0.071875 11.566875 0.071875 11.566875 -0.875 11.125 C-3 10 -3 10 -5 8 C-4.67 7.34 -4.34 6.68 -4 6 C-5.65 6 -7.3 6 -9 6 C-8.67 4.68 -8.34 3.36 -8 2 C-3.25 1.875 -3.25 1.875 -1 3 C-0.67 2.01 -0.34 1.02 0 0 Z " fill="#F4D3CE" transform="translate(252,186)"/>
<path d="M0 0 C-0.33 2.97 -0.66 5.94 -1 9 C-1.66 9 -2.32 9 -3 9 C-3 9.66 -3 10.32 -3 11 C-3.99 11.33 -4.98 11.66 -6 12 C-6 11.01 -6 10.02 -6 9 C-6.061875 9.61875 -6.12375 10.2375 -6.1875 10.875 C-7 13 -7 13 -9.5625 14.25 C-10.366875 14.4975 -11.17125 14.745 -12 15 C-12.33 14.67 -12.66 14.34 -13 14 C-13.66 15.65 -14.32 17.3 -15 19 C-15.66 18.34 -16.32 17.68 -17 17 C-14.48837209 11.34883721 -14.48837209 11.34883721 -11.8125 9.4375 C-11.214375 8.963125 -10.61625 8.48875 -10 8 C-9.66574265 5.37374861 -9.66574265 5.37374861 -10 3 C-9.34 3 -8.68 3 -8 3 C-8 2.34 -8 1.68 -8 1 C-5.07175348 0.02391783 -3.04386724 -0.08226668 0 0 Z " fill="#EEF1F7" transform="translate(300,209)"/>
<path d="M0 0 C4.62 1.65 9.24 3.3 14 5 C13.67 6.65 13.34 8.3 13 10 C11.04196493 10.05389087 9.08351091 10.09274217 7.125 10.125 C6.03445312 10.14820313 4.94390625 10.17140625 3.8203125 10.1953125 C1 10 1 10 -1 8 C-1.1875 4.4375 -1.1875 4.4375 -1 1 C-0.67 0.67 -0.34 0.34 0 0 Z " fill="#020303" transform="translate(88,260)"/>
<path d="M0 0 C3.40066239 0.07018253 6.6748995 0.25573435 10 1 C12.56833545 3.87049256 13 5.16779816 13 9 C7.22192976 9.2358396 2.48675196 8.86783046 -3 7 C-2.01 4.69 -1.02 2.38 0 0 Z " fill="#D6945C" transform="translate(127,263)"/>
<path d="M0 0 C5.85659906 1.66153012 11.4590134 3.47041916 17 6 C17 6.33 17 6.66 17 7 C13.79168609 7.0292483 10.58340693 7.04688189 7.375 7.0625 C6.01955078 7.07506836 6.01955078 7.07506836 4.63671875 7.08789062 C-0.02904289 7.10491895 -4.41013285 6.96829423 -9 6 C-9 5.34 -9 4.68 -9 4 C-7.88625 3.896875 -6.7725 3.79375 -5.625 3.6875 C-4.42875 3.460625 -3.2325 3.23375 -2 3 C-1.34 2.01 -0.68 1.02 0 0 Z " fill="#DCDEE3" transform="translate(103,266)"/>
<path d="M0 0 C1.32 1.65 2.64 3.3 4 5 C1.9375 7.5625 1.9375 7.5625 -1 10 C-5.20834731 10.07383065 -7.21052015 9.66802141 -10.4375 6.9375 C-10.953125 6.298125 -11.46875 5.65875 -12 5 C-9.14592822 2.31381479 -7.73679227 1.04250725 -3.75 0.8125 C-2.38875 0.9053125 -2.38875 0.9053125 -1 1 C-0.67 0.67 -0.34 0.34 0 0 Z " fill="#C8875B" transform="translate(119,188)"/>
<path d="M0 0 C4.76887637 -0.02475064 9.53771521 -0.04288403 14.30664062 -0.05493164 C15.92839204 -0.05995505 17.55013895 -0.06677494 19.171875 -0.07543945 C21.50521969 -0.08759229 23.8385044 -0.09324828 26.171875 -0.09765625 C26.89493835 -0.10281754 27.61800171 -0.10797882 28.36297607 -0.11329651 C31.7201275 -0.11366918 34.79106108 -0.04907619 38 1 C38 1.66 38 2.32 38 3 C38.66 3 39.32 3 40 3 C40 3.99 40 4.98 40 6 C38.68 6 37.36 6 36 6 C35.34 5.01 34.68 4.02 34 3 C31.31215183 2.66215904 28.8428575 2.51107756 26.1484375 2.48828125 C25.37440582 2.47033005 24.60037415 2.45237885 23.80288696 2.43388367 C21.32698033 2.37963608 18.85126797 2.34583991 16.375 2.3125 C14.69788954 2.27933954 13.02080477 2.24485107 11.34375 2.20898438 C7.22930659 2.12390183 3.11492223 2.05716047 -1 2 C-0.67 1.34 -0.34 0.68 0 0 Z " fill="#718EF8" transform="translate(161,76)"/>
<path d="M0 0 C0.33 0 0.66 0 1 0 C1.33 12.21 1.66 24.42 2 37 C-1.465 37.495 -1.465 37.495 -5 38 C-5 35 -5 35 -3.0222168 32.73730469 C-0.47806859 29.29350537 -0.54662414 27.44172317 -0.64453125 23.203125 C-0.67063477 21.27146484 -0.67063477 21.27146484 -0.69726562 19.30078125 C-0.73476447 17.95049518 -0.77318692 16.60023447 -0.8125 15.25 C-0.86835312 12.58861452 -0.91289371 9.92725242 -0.95703125 7.265625 C-0.98772705 6.08774414 -1.01842285 4.90986328 -1.05004883 3.69628906 C-1 1 -1 1 0 0 Z " fill="#7993F3" transform="translate(151,225)"/>
<path d="M0 0 C0.99 0.33 1.98 0.66 3 1 C2.42946335 4.77235429 0.83356579 6.62716051 -1.8125 9.3125 C-2.49957031 10.03050781 -3.18664062 10.74851563 -3.89453125 11.48828125 C-6 13 -6 13 -8.1484375 12.8125 C-10.37970008 11.83338056 -11.59188575 11.00100446 -13 9 C-12.6875 6.8125 -12.6875 6.8125 -12 5 C-9.525 5.99 -9.525 5.99 -7 7 C-4.69 4.69 -2.38 2.38 0 0 Z " fill="#FBFCFE" transform="translate(363,127)"/>
<path d="M0 0 C2.31 0.33 4.62 0.66 7 1 C7 1.33 7 1.66 7 2 C5.35 2.33 3.7 2.66 2 3 C6.455 3.99 6.455 3.99 11 5 C11.33 6.65 11.66 8.3 12 10 C8.37 10.33 4.74 10.66 1 11 C1 12.65 1 14.3 1 16 C0.67 16 0.34 16 0 16 C0 10.72 0 5.44 0 0 Z " fill="#F1F6FC" transform="translate(250,197)"/>
<path d="M0 0 C0.66 0.33 1.32 0.66 2 1 C2.19629471 4.16336473 2.26843612 7.2852206 2.21484375 10.453125 C2.21284407 12.73539339 2.21284407 12.73539339 3 16 C5.91194757 18.06184659 5.91194757 18.06184659 9 19 C8.67 20.32 8.34 21.64 8 23 C5.69 23.33 3.38 23.66 1 24 C1 23.34 1 22.68 1 22 C0.34 22 -0.32 22 -1 22 C-1.02887814 18.52085059 -1.04675687 15.04173169 -1.0625 11.5625 C-1.07087891 10.56927734 -1.07925781 9.57605469 -1.08789062 8.55273438 C-1.09111328 7.60849609 -1.09433594 6.66425781 -1.09765625 5.69140625 C-1.10289307 4.81685791 -1.10812988 3.94230957 -1.11352539 3.04125977 C-1 1 -1 1 0 0 Z " fill="#BDB5DE" transform="translate(248,195)"/>
<path d="M0 0 C1 2 1 2 1 4 C5.48133574 4.72256829 5.48133574 4.72256829 10 5 C10.99 5.33 11.98 5.66 13 6 C0.20689655 11.55172414 0.20689655 11.55172414 -6 10 C-6.33 9.01 -6.66 8.02 -7 7 C-4.66666667 4.66666667 -2.33333333 2.33333333 0 0 Z " fill="#F0CAC6" transform="translate(319,207)"/>
<path d="M0 0 C1.53116518 0.20246544 3.06241517 0.40429051 4.59375 0.60546875 C5.33625 0.70649902 6.07875 0.8075293 6.84375 0.91162109 C10.86459982 1.44142057 14.90072068 1.80304483 18.9375 2.1875 C18.9375 2.5175 18.9375 2.8475 18.9375 3.1875 C4.7475 3.1875 -9.4425 3.1875 -24.0625 3.1875 C-24.0625 2.8575 -24.0625 2.5275 -24.0625 2.1875 C-23.15886719 2.13851563 -22.25523438 2.08953125 -21.32421875 2.0390625 C-20.14472656 1.96429688 -18.96523437 1.88953125 -17.75 1.8125 C-15.99236328 1.70808594 -15.99236328 1.70808594 -14.19921875 1.6015625 C-0.98482866 -0.14280282 -0.98482866 -0.14280282 0 0 Z " fill="#EBEAEB" transform="translate(131.0625,270.8125)"/>
<path d="M0 0 C1.1446875 0.2475 1.1446875 0.2475 2.3125 0.5 C5.03596236 1.09145396 5.03596236 1.09145396 8 1 C8 2.98 8 4.96 8 7 C8.33 4.69 8.66 2.38 9 0 C9.66 0.66 10.32 1.32 11 2 C10.67 2.99 10.34 3.98 10 5 C10.99 5.33 11.98 5.66 13 6 C13 6.66 13 7.32 13 8 C13.99 8 14.98 8 16 8 C15.67 8.99 15.34 9.98 15 11 C14.34 11 13.68 11 13 11 C12.34 9.68 11.68 8.36 11 7 C10.67 9.31 10.34 11.62 10 14 C9.34 13.34 8.68 12.68 8 12 C7.01 12.495 7.01 12.495 6 13 C5.87625 12.38125 5.7525 11.7625 5.625 11.125 C5.12802644 8.80879168 5.12802644 8.80879168 3 7 C3.33 6.01 3.66 5.02 4 4 C3.01 3.67 2.02 3.34 1 3 C0.67 2.01 0.34 1.02 0 0 Z " fill="#F9B5A6" transform="translate(264,210)"/>
<path d="M0 0 C0.99 0.99 1.98 1.98 3 3 C3 3.66 3 4.32 3 5 C4.65 4.67 6.3 4.34 8 4 C7.49396008 6.16874252 7.00016187 7.99967627 6 10 C6.99 10.33 7.98 10.66 9 11 C9.6875 13.0625 9.6875 13.0625 10 15 C9.01 15.66 8.02 16.32 7 17 C5.10134397 14.02819057 3.64544429 11.48539917 3 8 C2.01 9.485 2.01 9.485 1 11 C0.34 10.67 -0.32 10.34 -1 10 C-0.67 6.7 -0.34 3.4 0 0 Z " fill="#F3D7D5" transform="translate(274,216)"/>
<path d="M0 0 C2 2 2 2 2.1328125 3.98828125 C2.13023437 4.75527344 2.12765625 5.52226562 2.125 6.3125 C2.36826053 9.39049036 2.54316718 10.57711442 4.83984375 12.703125 C6.85328592 13.93454482 8.85124906 15.02596484 11 16 C9.02 16.99 9.02 16.99 7 18 C7 17.34 7 16.68 7 16 C3.95086772 14.98888907 3.95086772 14.98888907 1 16 C1 15.34 1 14.68 1 14 C-0.32 14 -1.64 14 -3 14 C-3 13.34 -3 12.68 -3 12 C-3.99 11.67 -4.98 11.34 -6 11 C-5.34 9.68 -4.68 8.36 -4 7 C-3.67 7.99 -3.34 8.98 -3 10 C-2.34 10 -1.68 10 -1 10 C-0.24572703 5.02093741 -0.24572703 5.02093741 0 0 Z " fill="#F7C3B8" transform="translate(298,210)"/>
<path d="M0 0 C-0.99 2.97 -1.98 5.94 -3 9 C-4.98 9.33 -6.96 9.66 -9 10 C-9 10.66 -9 11.32 -9 12 C-9.66 12 -10.32 12 -11 12 C-11.33 10.68 -11.66 9.36 -12 8 C-11.34 8 -10.68 8 -10 8 C-10.33 7.01 -10.66 6.02 -11 5 C-9.35 4.34 -7.7 3.68 -6 3 C-6.66 2.34 -7.32 1.68 -8 1 C-5.29120665 -0.35439668 -2.99066732 -0.06501451 0 0 Z " fill="#F5CBC5" transform="translate(262,231)"/>
<path d="M0 0 C2.64 0 5.28 0 8 0 C8 4.62 8 9.24 8 14 C5.36 14 2.72 14 0 14 C3.75 10.125 3.75 10.125 6 9 C6.65555119 6.47266765 6.65555119 6.47266765 7 4 C4.69 4.33 2.38 4.66 0 5 C0 3.35 0 1.7 0 0 Z " fill="#758FED" transform="translate(116,211)"/>
<path d="M0 0 C0.99 0 1.98 0 3 0 C3.2494783 7.29031024 2.72330907 13.90673679 1 21 C0.01 21.33 -0.98 21.66 -2 22 C-1.34 14.74 -0.68 7.48 0 0 Z " fill="#919FD3" transform="translate(286,248)"/>
<path d="M0 0 C1.65 0 3.3 0 5 0 C5.33 0.99 5.66 1.98 6 3 C6.33 2.01 6.66 1.02 7 0 C10 1 10 1 12 3 C11.625 5.125 11.625 5.125 11 7 C8.69 7 6.38 7 4 7 C3.67 6.34 3.34 5.68 3 5 C2.67 5.66 2.34 6.32 2 7 C1.34 7 0.68 7 0 7 C0 4.69 0 2.38 0 0 Z " fill="#A3B5F9" transform="translate(199,96)"/>
<path d="M0 0 C0.99 0.33 1.98 0.66 3 1 C3.33 6.61 3.66 12.22 4 18 C3.01 18 2.02 18 1 18 C1.33 15.36 1.66 12.72 2 10 C1.34 11.32 0.68 12.64 0 14 C-0.33 13.67 -0.66 13.34 -1 13 C-0.90982004 10.80949979 -0.75333792 8.621534 -0.5625 6.4375 C-0.46066406 5.23996094 -0.35882813 4.04242188 -0.25390625 2.80859375 C-0.17011719 1.88175781 -0.08632813 0.95492187 0 0 Z " fill="#FAB7A8" transform="translate(275,230)"/>
<path d="M0 0 C0.66 0.33 1.32 0.66 2 1 C2.33 0.67 2.66 0.34 3 0 C4.5 1.25 4.5 1.25 6 3 C6 4.32 6 5.64 6 7 C2.7 7 -0.6 7 -4 7 C-4.33 6.01 -4.66 5.02 -5 4 C-4.360625 3.71125 -3.72125 3.4225 -3.0625 3.125 C-0.84793921 2.17176549 -0.84793921 2.17176549 0 0 Z " fill="#F5CAC3" transform="translate(258,214)"/>
<path d="M0 0 C0.33 0.99 0.66 1.98 1 3 C1.66 3 2.32 3 3 3 C3 3.66 3 4.32 3 5 C3.99 5 4.98 5 6 5 C6 7.31 6 9.62 6 12 C5.34 12 4.68 12 4 12 C3.67 10.35 3.34 8.7 3 7 C2.34 7.66 1.68 8.32 1 9 C0.01 8.01 -0.98 7.02 -2 6 C-2.33 7.32 -2.66 8.64 -3 10 C-3.66 9.67 -4.32 9.34 -5 9 C-5 7.35 -5 5.7 -5 4 C-4.01 4 -3.02 4 -2 4 C-1.34 2.68 -0.68 1.36 0 0 Z " fill="#F0E3E1" transform="translate(279,206)"/>
<path d="M0 0 C1.8125 0.125 1.8125 0.125 4 1 C5.9375 3.75 5.9375 3.75 7 7 C5.8125 9.875 5.8125 9.875 4 12 C3.34 12 2.68 12 2 12 C2 10.68 2 9.36 2 8 C1.34 7.67 0.68 7.34 0 7 C0 4.69 0 2.38 0 0 Z " fill="#F6C7BE" transform="translate(271,224)"/>
<path d="M0 0 C3.1875 -0.3125 3.1875 -0.3125 6 0 C6.33 0.99 6.66 1.98 7 3 C5.68 3.33 4.36 3.66 3 4 C3.99 4.66 4.98 5.32 6 6 C3.69 6 1.38 6 -1 6 C-1.33 6.99 -1.66 7.98 -2 9 C-2.66 8.67 -3.32 8.34 -4 8 C-2.95446418 4.86339253 -2.04308411 2.60669352 0 0 Z " fill="#F9B9AB" transform="translate(287,222)"/>
<path d="M0 0 C1.98 0 3.96 0 6 0 C5.34 2.31 4.68 4.62 4 7 C2.35 7.33 0.7 7.66 -1 8 C-1.66 7.01 -2.32 6.02 -3 5 C-2.34 4.34 -1.68 3.68 -1 3 C-0.01 3.66 0.98 4.32 2 5 C2 4.01 2 3.02 2 2 C1.34 2 0.68 2 0 2 C0 1.34 0 0.68 0 0 Z " fill="#89A1F9" transform="translate(199,77)"/>
<path d="M0 0 C1.2065625 0.0309375 1.2065625 0.0309375 2.4375 0.0625 C2.4375 2.3725 2.4375 4.6825 2.4375 7.0625 C0.77138095 7.105221 -0.89632885 7.10313832 -2.5625 7.0625 C-3.5625 6.0625 -3.5625 6.0625 -3.6875 3.5625 C-3.51717518 0.15600356 -3.41884482 0.08338646 0 0 Z " fill="#F3F6FD" transform="translate(172.5625,229.9375)"/>
<path d="M0 0 C2.375 0.1875 2.375 0.1875 5 1 C6.59642719 3.68490027 7.12740282 5.21434929 6.625 8.3125 C6.41875 8.869375 6.2125 9.42625 6 10 C3.525 9.01 3.525 9.01 1 8 C0.67 5.36 0.34 2.72 0 0 Z " fill="#F1E0E1" transform="translate(263,213)"/>
<path d="M0 0 C0 0.99 0 1.98 0 3 C-0.66 3.66 -1.32 4.32 -2 5 C-2.33218192 8.00259517 -2.33218192 8.00259517 -0.5 9.6875 C-0.005 10.120625 0.49 10.55375 1 11 C0.01 11.495 0.01 11.495 -1 12 C-2.9453125 11.22265625 -2.9453125 11.22265625 -5.125 10.0625 C-5.84945313 9.68222656 -6.57390625 9.30195313 -7.3203125 8.91015625 C-7.87460937 8.60980469 -8.42890625 8.30945313 -9 8 C-6.16721702 5.09916218 -3.13019492 2.57371582 0 0 Z " fill="#F8BFB3" transform="translate(313,209)"/>
<path d="M0 0 C0.33 0.66 0.66 1.32 1 2 C1.804375 2.12375 2.60875 2.2475 3.4375 2.375 C6 3 6 3 7.3125 5.0625 C7.6528125 6.0215625 7.6528125 6.0215625 8 7 C8.66 6.67 9.32 6.34 10 6 C9.67 7.32 9.34 8.64 9 10 C5.46627288 8.03681826 2.75520215 5.95929119 0 3 C0 4.65 0 6.3 0 8 C-0.66 7.67 -1.32 7.34 -2 7 C-2.625 3.9375 -2.625 3.9375 -3 1 C-2.01 0.67 -1.02 0.34 0 0 Z " fill="#F8BBAE" transform="translate(268,201)"/>
<path d="M0 0 C1.67542976 0.28604898 3.34385343 0.61781233 5 1 C5 2.65 5 4.3 5 6 C3.34385343 6.38218767 1.67542976 6.71395102 0 7 C-1 6 -1 6 -1.125 3.5 C-1 1 -1 1 0 0 Z " fill="#A6B8F9" transform="translate(193,96)"/>
<path d="M0 0 C0.66 1.32 1.32 2.64 2 4 C0.68 4.99 -0.64 5.98 -2 7 C-2.66 6.67 -3.32 6.34 -4 6 C-4.66 7.65 -5.32 9.3 -6 11 C-6.66 10.34 -7.32 9.68 -8 9 C-6.06273348 4.41173718 -4.51135667 2.19471406 0 0 Z " fill="#F0E1E1" transform="translate(291,217)"/>
<path d="M0 0 C0.66 -0.33 1.32 -0.66 2 -1 C2.66 0.32 3.32 1.64 4 3 C-0.29 3 -4.58 3 -9 3 C-9 2.01 -9 1.02 -9 0 C-5.95751583 -1.52124209 -3.29979168 -0.47139881 0 0 Z " fill="#CCD6F9" transform="translate(176,182)"/>
<path d="M0 0 C2 2 2 2 2 5.875 C1.979375 6.58398438 1.95875 7.29296875 1.9375 8.0234375 C2.01338636 10.42334374 2.67354148 12.01031222 4 14 C3.01 14 2.02 14 1 14 C1 13.34 1 12.68 1 12 C0.34 12 -0.32 12 -1 12 C-1.02698189 10.37509046 -1.04638757 8.75005367 -1.0625 7.125 C-1.07410156 6.22007812 -1.08570313 5.31515625 -1.09765625 4.3828125 C-1 2 -1 2 0 0 Z " fill="#F2D8D5" transform="translate(286,197)"/>
<path d="M0 0 C1.33333333 2.66666667 2.66666667 5.33333333 4 8 C2.5199159 7.88637738 1.04089926 7.75877092 -0.4375 7.625 C-1.26121094 7.55539063 -2.08492187 7.48578125 -2.93359375 7.4140625 C-3.61550781 7.27742187 -4.29742187 7.14078125 -5 7 C-5.33 6.34 -5.66 5.68 -6 5 C-5.01 4.34 -4.02 3.68 -3 3 C-3 2.34 -3 1.68 -3 1 C-2.01 0.67 -1.02 0.34 0 0 Z " fill="#F8BCB0" transform="translate(257,194)"/>
<path d="M0 0 C1.98 0.99 1.98 0.99 4 2 C4 3.32 4 4.64 4 6 C3.01 6.495 3.01 6.495 2 7 C2 9.97 2 12.94 2 16 C-0.05279359 11.89441282 -0.2216942 10.19793315 -0.125 5.75 C-0.10695313 4.67234375 -0.08890625 3.5946875 -0.0703125 2.484375 C-0.04710937 1.66453125 -0.02390625 0.8446875 0 0 Z " fill="#EFEDF0" transform="translate(278,232)"/>
<path d="M0 0 C-1.35513665 4.06540996 -3.30796918 4.97300269 -7 7 C-9.375 6.75 -9.375 6.75 -11 6 C-8 4 -8 4 -6 3 C-6.66 2.34 -7.32 1.68 -8 1 C-5.29120665 -0.35439668 -2.99066732 -0.06501451 0 0 Z " fill="#F2DBDC" transform="translate(262,231)"/>
<path d="M0 0 C1.1446875 0.2475 1.1446875 0.2475 2.3125 0.5 C5.03596236 1.09145396 5.03596236 1.09145396 8 1 C7.67 3.31 7.34 5.62 7 8 C6.01 7.34 5.02 6.68 4 6 C4 5.34 4 4.68 4 4 C3.01 3.67 2.02 3.34 1 3 C0.67 2.01 0.34 1.02 0 0 Z " fill="#F8BEB1" transform="translate(264,210)"/>
<path d="M0 0 C1.65 0 3.3 0 5 0 C5.66 2.31 6.32 4.62 7 7 C5.68 6.67 4.36 6.34 3 6 C3.33 5.34 3.66 4.68 4 4 C2.35 4 0.7 4 -1 4 C-0.67 2.68 -0.34 1.36 0 0 Z " fill="#E4B7BA" transform="translate(244,188)"/>
<path d="M0 0 C3.63 0 7.26 0 11 0 C11.33 0.99 11.66 1.98 12 3 C8.04 3 4.08 3 0 3 C0 2.01 0 1.02 0 0 Z " fill="#E3E8FA" transform="translate(198,232)"/>
<path d="M0 0 C3 2 3 2 4 5 C3.83988879 7.70123106 3.39559392 10.31875231 3 13 C0.68468695 10.68468695 -0.07417343 9.13356684 -1 6 C-0.625 2.6875 -0.625 2.6875 0 0 Z " fill="#F0E7E9" transform="translate(270,205)"/>
<path d="M0 0 C6.92307692 3.07692308 6.92307692 3.07692308 9 7 C9.1875 9.75 9.1875 9.75 9 12 C7.46686008 9.95581344 5.94535136 7.92030407 4.5 5.8125 C3.03596546 3.71796426 3.03596546 3.71796426 0 3 C0 2.01 0 1.02 0 0 Z " fill="#7F99F8" transform="translate(240,76)"/>
<path d="M0 0 C2 2 2 2 2 5 C-4.625 5.25 -4.625 5.25 -8 3 C-4.93882432 0.37613513 -4.26826873 0 0 0 Z " fill="#F8C0B5" transform="translate(268,221)"/>
<path d="M0 0 C1.65322266 0.01740234 1.65322266 0.01740234 3.33984375 0.03515625 C4.99693359 0.04869141 4.99693359 0.04869141 6.6875 0.0625 C7.54214844 0.07410156 8.39679688 0.08570313 9.27734375 0.09765625 C8.94734375 1.41765625 8.61734375 2.73765625 8.27734375 4.09765625 C8.27734375 3.10765625 8.27734375 2.11765625 8.27734375 1.09765625 C5.63734375 1.42765625 2.99734375 1.75765625 0.27734375 2.09765625 C0.27734375 2.75765625 0.27734375 3.41765625 0.27734375 4.09765625 C-0.71265625 4.42765625 -1.70265625 4.75765625 -2.72265625 5.09765625 C-3.28515625 3.16015625 -3.28515625 3.16015625 -3.72265625 1.09765625 C-2.72265625 0.09765625 -2.72265625 0.09765625 0 0 Z " fill="#F8BBAE" transform="translate(291.72265625,207.90234375)"/>
<path d="M0 0 C4.95 0.33 9.9 0.66 15 1 C15 1.66 15 2.32 15 3 C10.05 3 5.1 3 0 3 C0 2.01 0 1.02 0 0 Z " fill="#BECAF7" transform="translate(160,203)"/>
<path d="M0 0 C0.99 0.66 1.98 1.32 3 2 C3.99 2 4.98 2 6 2 C6 2.99 6 3.98 6 5 C3.69 5.33 1.38 5.66 -1 6 C-1.33 5.34 -1.66 4.68 -2 4 C-1.0625 1.875 -1.0625 1.875 0 0 Z " fill="#F6C5BC" transform="translate(305,185)"/>
<path d="M0 0 C1.98 0.495 1.98 0.495 4 1 C3.34 2.32 2.68 3.64 2 5 C2.99 5.33 3.98 5.66 5 6 C3.02 7.32 1.04 8.64 -1 10 C-1.09978121 6.50765756 -0.77842938 3.40562852 0 0 Z " fill="#F9B7A7" transform="translate(284,213)"/>
<path d="M0 0 C1.32 0.33 2.64 0.66 4 1 C3.67 1.99 3.34 2.98 3 4 C4.32 5.32 5.64 6.64 7 8 C2.545 7.01 2.545 7.01 -2 6 C-1.34 5.67 -0.68 5.34 0 5 C0 3.35 0 1.7 0 0 Z " fill="#EFE7E7" transform="translate(267,196)"/>
<path d="M0 0 C1.65 0 3.3 0 5 0 C5.66 1.65 6.32 3.3 7 5 C6.01 5 5.02 5 4 5 C3.67 5.66 3.34 6.32 3 7 C0 3.375 0 3.375 0 0 Z " fill="#F5CDC7" transform="translate(300,228)"/>
<path d="M0 0 C3 3 3 3 3.07421875 5.04296875 C2.71614583 7.02864583 2.35807292 9.01432292 2 11 C1.01 10.67 0.02 10.34 -1 10 C-0.67 6.7 -0.34 3.4 0 0 Z " fill="#EDF1F6" transform="translate(274,216)"/>
<path d="M0 0 C0.66 1.32 1.32 2.64 2 4 C-2.29299643 5.26264601 -4.87831311 4.62950412 -9 3 C-6.03312999 1.35173889 -3.34373475 0.55728913 0 0 Z " fill="#AF764F" transform="translate(119,188)"/>
<path d="M0 0 C-0.33 0.66 -0.66 1.32 -1 2 C-4.96 2 -8.92 2 -13 2 C-12.67 1.34 -12.34 0.68 -12 0 C-7.8265198 -1.35024359 -4.26066408 -0.7518819 0 0 Z " fill="#BFCBF7" transform="translate(191,161)"/>
<path d="M0 0 C3 1 3 1 5 3 C4.625 5.125 4.625 5.125 4 7 C2.68 7 1.36 7 0 7 C0 4.69 0 2.38 0 0 Z " fill="#89A1F7" transform="translate(206,96)"/>
<path d="M0 0 C0.66 0 1.32 0 2 0 C2 0.66 2 1.32 2 2 C3.32 2.33 4.64 2.66 6 3 C4.68 3.33 3.36 3.66 2 4 C2.99 4.66 3.98 5.32 5 6 C2.36 6 -0.28 6 -3 6 C-2.01 4.02 -1.02 2.04 0 0 Z " fill="#F2DDDB" transform="translate(294,202)"/>
<path d="M0 0 C0.33 0 0.66 0 1 0 C1 2.97 1 5.94 1 9 C1.66 9 2.32 9 3 9 C2.34 10.65 1.68 12.3 1 14 C0.67 14 0.34 14 0 14 C-0.19627391 12.41773035 -0.38165538 10.83410729 -0.5625 9.25 C-0.66691406 8.36828125 -0.77132813 7.4865625 -0.87890625 6.578125 C-0.99456676 4.11567549 -0.73638695 2.33461936 0 0 Z " fill="#F3D9D8" transform="translate(290,192)"/>
<path d="M0 0 C2.64 0.33 5.28 0.66 8 1 C8 1.66 8 2.32 8 3 C5.03 3 2.06 3 -1 3 C-0.67 2.01 -0.34 1.02 0 0 Z " fill="#D9DBDF" transform="translate(123,270)"/>
<path d="M0 0 C3 1 3 1 5 4 C5 4.99 5 5.98 5 7 C3.35 6.67 1.7 6.34 0 6 C0 4.02 0 2.04 0 0 Z " fill="#F4CFC8" transform="translate(277,212)"/>
<path d="M0 0 C2.31 0.33 4.62 0.66 7 1 C7 1.99 7 2.98 7 4 C4.69 4.33 2.38 4.66 0 5 C0 3.35 0 1.7 0 0 Z " fill="#869BED" transform="translate(116,211)"/>
<path d="M0 0 C3.3 0 6.6 0 10 0 C10 0.99 10 1.98 10 3 C7.36 3 4.72 3 2 3 C2 2.34 2 1.68 2 1 C1.34 0.67 0.68 0.34 0 0 Z " fill="#CAD4F8" transform="translate(179,182)"/>
<path d="M0 0 C0.33 0.66 0.66 1.32 1 2 C1.99 2 2.98 2 4 2 C3.34 5.3 2.68 8.6 2 12 C1.67 12 1.34 12 1 12 C0.67 8.04 0.34 4.08 0 0 Z " fill="#F5CCC5" transform="translate(279,236)"/>
<path d="M0 0 C2.97 0 5.94 0 9 0 C9 1.32 9 2.64 9 4 C4.545 3.01 4.545 3.01 0 2 C0 1.34 0 0.68 0 0 Z " fill="#DDE4F9" transform="translate(211,232)"/>
<path d="M0 0 C2.875 0.3125 2.875 0.3125 6 1 C6.66 1.99 7.32 2.98 8 4 C5.03 3.67 2.06 3.34 -1 3 C-0.67 2.01 -0.34 1.02 0 0 Z " fill="#F6C5BC" transform="translate(285,230)"/>
<path d="M0 0 C0.99 0.33 1.98 0.66 3 1 C3.6875 3.0625 3.6875 3.0625 4 5 C3.01 5.66 2.02 6.32 1 7 C-0.0625 4.625 -0.0625 4.625 -1 2 C-0.67 1.34 -0.34 0.68 0 0 Z " fill="#F0E3E2" transform="translate(280,226)"/>
<path d="M0 0 C2.475 0.99 2.475 0.99 5 2 C4.01 2.99 3.02 3.98 2 5 C0.68 4.34 -0.64 3.68 -2 3 C-1.34 2.01 -0.68 1.02 0 0 Z " fill="#EDF1F7" transform="translate(301,224)"/>
<path d="M0 0 C2.97 0.33 5.94 0.66 9 1 C9.33 1.99 9.66 2.98 10 4 C8.1875 4.625 8.1875 4.625 6 5 C3 3 3 3 0 0 Z " fill="#F1E0E0" transform="translate(252,201)"/>
<path d="M0 0 C2.97 0 5.94 0 9 0 C9 0.99 9 1.98 9 3 C6.03 3 3.06 3 0 3 C0 2.01 0 1.02 0 0 Z " fill="#CBD5F8" transform="translate(160,118)"/>
<path d="M0 0 C1.0625 1.875 1.0625 1.875 2 4 C1.67 4.66 1.34 5.32 1 6 C-0.65 5.67 -2.3 5.34 -4 5 C-2.68 3.35 -1.36 1.7 0 0 Z " fill="#E0E3E9" transform="translate(149,257)"/>
<path d="M0 0 C2.64 0 5.28 0 8 0 C7.67 0.99 7.34 1.98 7 3 C4.69 3 2.38 3 0 3 C0 2.01 0 1.02 0 0 Z " fill="#DBE3F9" transform="translate(179,232)"/>
<path d="M0 0 C2.31 0 4.62 0 7 0 C7 1.32 7 2.64 7 4 C4.69 3.34 2.38 2.68 0 2 C0 1.34 0 0.68 0 0 Z " fill="#DFE5F9" transform="translate(222,232)"/>
<path d="M0 0 C1.65 0.99 3.3 1.98 5 3 C4.34 3.66 3.68 4.32 3 5 C-0.625 4.625 -0.625 4.625 -4 4 C-2.68 2.68 -1.36 1.36 0 0 Z " fill="#F6C6BD" transform="translate(317,213)"/>
<path d="M0 0 C0.66 0 1.32 0 2 0 C2 1.65 2 3.3 2 5 C1.34 5 0.68 5 0 5 C0 5.66 0 6.32 0 7 C-0.99 7.33 -1.98 7.66 -3 8 C-2.67 6.02 -2.34 4.04 -2 2 C-1.34 2 -0.68 2 0 2 C0 1.34 0 0.68 0 0 Z " fill="#F2DCD9" transform="translate(297,213)"/>
<path d="M0 0 C3.53600465 1.91135386 5.78972846 3.62642766 8 7 C5 7 5 7 2.3125 4.625 C0 2 0 2 0 0 Z " fill="#C3CEF8" transform="translate(307,81)"/>
<path d="M0 0 C1.32 0 2.64 0 4 0 C4 0.66 4 1.32 4 2 C4.66 2 5.32 2 6 2 C6 2.99 6 3.98 6 5 C4.68 5 3.36 5 2 5 C0 2 0 2 0 0 Z " fill="#5F76CD" transform="translate(195,77)"/>
<path d="M0 0 C2.3431213 0.25561323 4.67843403 0.59270772 7 1 C7.33 1.66 7.66 2.32 8 3 C5.39417629 3.93065133 4.35801776 4.14917407 1.75 3.0625 C1.1725 2.711875 0.595 2.36125 0 2 C0 1.34 0 0.68 0 0 Z " fill="#F1E0E0" transform="translate(257,220)"/>
<path d="M0 0 C0.66 0 1.32 0 2 0 C2 0.66 2 1.32 2 2 C2.99 2 3.98 2 5 2 C5 4.31 5 6.62 5 9 C4.34 9 3.68 9 3 9 C2.87625 8.195625 2.7525 7.39125 2.625 6.5625 C2.315625 5.2940625 2.315625 5.2940625 2 4 C1.34 3.67 0.68 3.34 0 3 C0 2.01 0 1.02 0 0 Z " fill="#F2DBDA" transform="translate(280,209)"/>
<path d="M0 0 C0.66666667 2 1.33333333 4 2 6 C-1.26954202 5.43628586 -2.82575883 4.50037734 -5 2 C-3.35 1.34 -1.7 0.68 0 0 Z " fill="#F4D0CA" transform="translate(268,184)"/>
<path d="M0 0 C1.32 0.33 2.64 0.66 4 1 C3.34 1 2.68 1 2 1 C2 1.66 2 2.32 2 3 C2.66 3.33 3.32 3.66 4 4 C3.34 4 2.68 4 2 4 C2 4.99 2 5.98 2 7 C1.34 7 0.68 7 0 7 C0 4.69 0 2.38 0 0 Z " fill="#829BF7" transform="translate(186,96)"/>
<path d="M0 0 C1.98 0 3.96 0 6 0 C5.67 1.65 5.34 3.3 5 5 C4.01 4.67 3.02 4.34 2 4 C2 3.34 2 2.68 2 2 C1.34 2 0.68 2 0 2 C0 1.34 0 0.68 0 0 Z " fill="#809AF8" transform="translate(199,77)"/>
<path d="M0 0 C2.64 0.66 5.28 1.32 8 2 C8 2.33 8 2.66 8 3 C5.03 3 2.06 3 -1 3 C-0.67 2.01 -0.34 1.02 0 0 Z " fill="#C48D67" transform="translate(103,266)"/>
<path d="M0 0 C1.65 0 3.3 0 5 0 C5.33 0.66 5.66 1.32 6 2 C4.1875 3.0625 4.1875 3.0625 2 4 C1.01 3.67 0.02 3.34 -1 3 C-0.67 2.01 -0.34 1.02 0 0 Z " fill="#D3DCFA" transform="translate(209,248)"/>
<path d="M0 0 C0.66 0 1.32 0 2 0 C2.125 5.75 2.125 5.75 1 8 C0.01 7.67 -0.98 7.34 -2 7 C-1.67 6.030625 -1.34 5.06125 -1 4.0625 C0.05173363 1.37850426 0.05173363 1.37850426 0 0 Z " fill="#F3DEDB" transform="translate(275,240)"/>
<path d="M0 0 C1.32 0.33 2.64 0.66 4 1 C3.34 3.31 2.68 5.62 2 8 C1.34 7.67 0.68 7.34 0 7 C0 4.69 0 2.38 0 0 Z " fill="#F9B7A8" transform="translate(271,224)"/>
<path d="M0 0 C0.99 0.33 1.98 0.66 3 1 C3 3.31 3 5.62 3 8 C2.34 8 1.68 8 1 8 C0.67 5.36 0.34 2.72 0 0 Z " fill="#F3D5D1" transform="translate(267,203)"/>
<path d="M0 0 C0.99 0 1.98 0 3 0 C3 2.31 3 4.62 3 7 C2.34 7 1.68 7 1 7 C0.67 4.69 0.34 2.38 0 0 Z " fill="#94A9F8" transform="translate(211,96)"/>
</svg>
